<?xml version="1.0" encoding="UTF-8" standalone="no"?>
<svg
   xmlns:dc="http://purl.org/dc/elements/1.1/"
   xmlns:cc="http://creativecommons.org/ns#"
   xmlns:rdf="http://www.w3.org/1999/02/22-rdf-syntax-ns#"
   xmlns:svg="http://www.w3.org/2000/svg"
   xmlns="http://www.w3.org/2000/svg"
   xmlns:sodipodi="http://sodipodi.sourceforge.net/DTD/sodipodi-0.dtd"
   xmlns:inkscape="http://www.inkscape.org/namespaces/inkscape"
   width="40"
   height="40"
   viewBox="0 0 40 40"
   fill="none"
   version="1.1"
   id="svg4155"
   sodipodi:docname="nw-pagination-next-right-hover.svg"
   inkscape:version="0.92.3 (2405546, 2018-03-11)">
  <metadata
     id="metadata4159">
    <rdf:RDF>
      <cc:Work
         rdf:about="">
        <dc:format>image/svg+xml</dc:format>
        <dc:type
           rdf:resource="http://purl.org/dc/dcmitype/StillImage" />
        <dc:title></dc:title>
      </cc:Work>
    </rdf:RDF>
  </metadata>
  <sodipodi:namedview
     pagecolor="#ffffff"
     bordercolor="#666666"
     borderopacity="1"
     objecttolerance="10"
     gridtolerance="10"
     guidetolerance="10"
     inkscape:pageopacity="0"
     inkscape:pageshadow="2"
     inkscape:window-width="1920"
     inkscape:window-height="1011"
     id="namedview4157"
     showgrid="false"
     inkscape:zoom="14.460334"
     inkscape:cx="19.370495"
     inkscape:cy="24.905358"
     inkscape:window-x="-9"
     inkscape:window-y="-9"
     inkscape:window-maximized="1"
     inkscape:current-layer="svg4155" />
  <rect
     x="0.5"
     y="0.5"
     width="39"
     height="39"
     rx="4.5"
     stroke="black"
     stroke-opacity="0.25"
     id="rect4144"
     style="stroke:#ff7875;stroke-opacity:1" />
  <g
     clip-path="url(#clip0)"
     id="g4148">
    <path
       d="M23.6212 19.6158L17.1458 13.1583C16.9336 12.9469 16.5901 12.9472 16.3783 13.1594C16.1667 13.3716 16.1672 13.7153 16.3794 13.9269L22.4694 20L16.3792 26.0732C16.167 26.2848 16.1665 26.6283 16.3781 26.8404C16.4843 26.9468 16.6234 27 16.7625 27C16.9012 27 17.0398 26.9472 17.1457 26.8415L23.6212 20.3842C23.7234 20.2825 23.7807 20.1442 23.7807 20C23.7807 19.8559 23.7232 19.7177 23.6212 19.6158Z"
       fill="black"
       fill-opacity="0.85"
       id="path4146"
       style="fill:#ff7875;fill-opacity:1" />
  </g>
  <defs
     id="defs4153">
    <clipPath
       id="clip0">
      <rect
         width="14"
         height="14"
         fill="white"
         transform="translate(13 13)"
         id="rect4150" />
    </clipPath>
  </defs>
</svg>
