<svg width="80" height="80" viewBox="0 0 80 80" fill="none" xmlns="http://www.w3.org/2000/svg">
  <g filter="url(#filter0_d)">
    <rect x="15" y="5" width="50" height="50" rx="5" fill="#0050B3"/>
  </g>
  <rect x="15" y="2" width="50" height="50" rx="5" fill="#1890FF"/>
  <g clip-path="url(#clip0)">
    <path d="M47.1731 26.4512L37.9225 17.2262C37.6194 16.9241 37.1287 16.9246 36.8262 17.2277C36.5238 17.5308 36.5246 18.0218 36.8277 18.3241L45.5277 27L36.8274 35.6759C36.5243 35.9783 36.5235 36.4689 36.8258 36.7721C36.9775 36.924 37.1762 37 37.3749 37C37.5732 37 37.7711 36.9245 37.9225 36.7736L47.1731 27.5489C47.3191 27.4036 47.401 27.206 47.401 27C47.401 26.7941 47.3189 26.5967 47.1731 26.4512Z" fill="white"/>
  </g>
  <defs>
    <filter id="filter0_d" x="0" y="0" width="80" height="80" filterUnits="userSpaceOnUse" color-interpolation-filters="sRGB">
      <feFlood flood-opacity="0" result="BackgroundImageFix"/>
      <feColorMatrix in="SourceAlpha" type="matrix" values="0 0 0 0 0 0 0 0 0 0 0 0 0 0 0 0 0 0 127 0"/>
      <feOffset dy="10"/>
      <feGaussianBlur stdDeviation="7.5"/>
      <feColorMatrix type="matrix" values="0 0 0 0 0.494118 0 0 0 0 0.784314 0 0 0 0 0.886275 0 0 0 0.4 0"/>
      <feBlend mode="normal" in2="BackgroundImageFix" result="effect1_dropShadow"/>
      <feBlend mode="normal" in="SourceGraphic" in2="effect1_dropShadow" result="shape"/>
    </filter>
    <clipPath id="clip0">
      <rect width="20" height="20" fill="white" transform="translate(32 17)"/>
    </clipPath>
  </defs>
</svg>
