<svg width="80" height="80" viewBox="0 0 80 80" fill="none" xmlns="http://www.w3.org/2000/svg">
  <g filter="url(#filter0_d)">
    <rect width="50" height="50" rx="5" transform="matrix(-1 0 0 1 65 5)" fill="#1890FF"/>
  </g>
  <rect width="50" height="50" rx="5" transform="matrix(-1 0 0 1 65 2)" fill="#40A9FF"/>
  <g clip-path="url(#clip0)">
    <path d="M32.8269 26.4512L42.0775 17.2262C42.3806 16.9241 42.8713 16.9246 43.1738 17.2277C43.4762 17.5308 43.4754 18.0218 43.1723 18.3241L34.4723 27L43.1726 35.6759C43.4757 35.9783 43.4765 36.4689 43.1742 36.7721C43.0225 36.924 42.8238 37 42.6251 37C42.4268 37 42.2289 36.9245 42.0775 36.7736L32.8269 27.5489C32.6809 27.4036 32.599 27.206 32.599 27C32.599 26.7941 32.6811 26.5967 32.8269 26.4512Z" fill="white"/>
  </g>
  <defs>
    <filter id="filter0_d" x="0" y="0" width="80" height="80" filterUnits="userSpaceOnUse" color-interpolation-filters="sRGB">
      <feFlood flood-opacity="0" result="BackgroundImageFix"/>
      <feColorMatrix in="SourceAlpha" type="matrix" values="0 0 0 0 0 0 0 0 0 0 0 0 0 0 0 0 0 0 127 0"/>
      <feOffset dy="10"/>
      <feGaussianBlur stdDeviation="7.5"/>
      <feColorMatrix type="matrix" values="0 0 0 0 0.494118 0 0 0 0 0.784314 0 0 0 0 0.886275 0 0 0 0.2 0"/>
      <feBlend mode="normal" in2="BackgroundImageFix" result="effect1_dropShadow"/>
      <feBlend mode="normal" in="SourceGraphic" in2="effect1_dropShadow" result="shape"/>
    </filter>
    <clipPath id="clip0">
      <rect width="20" height="20" fill="white" transform="matrix(-1 0 0 1 48 17)"/>
    </clipPath>
  </defs>
</svg>
