<svg width="235" height="80" viewBox="0 0 235 80" fill="none" xmlns="http://www.w3.org/2000/svg">
  <g filter="url(#filter0_d)">
    <rect x="15" y="5" width="205" height="50" rx="5" fill="#FF4D4F"/>
  </g>
  <rect x="15" y="2" width="205" height="50" rx="5" fill="#FF7875"/>
  <path d="M60.1268 34.112C59.1468 34.112 58.2601 33.8973 57.4668 33.468C56.6828 33.0293 56.0668 32.432 55.6188 31.676C55.1708 30.9107 54.9468 30.052 54.9468 29.1C54.9468 28.148 55.1708 27.294 55.6188 26.538C56.0668 25.7727 56.6874 25.1753 57.4808 24.746C58.2741 24.3073 59.1608 24.088 60.1408 24.088C60.9061 24.088 61.6061 24.2187 62.2408 24.48C62.8754 24.732 63.4168 25.11 63.8648 25.614L62.9548 26.496C62.2174 25.7213 61.2981 25.334 60.1968 25.334C59.4688 25.334 58.8108 25.4973 58.2228 25.824C57.6348 26.1507 57.1728 26.6033 56.8368 27.182C56.5101 27.7513 56.3468 28.3907 56.3468 29.1C56.3468 29.8093 56.5101 30.4533 56.8368 31.032C57.1728 31.6013 57.6348 32.0493 58.2228 32.376C58.8108 32.7027 59.4688 32.866 60.1968 32.866C61.2888 32.866 62.2081 32.474 62.9548 31.69L63.8648 32.572C63.4168 33.076 62.8708 33.4587 62.2268 33.72C61.5921 33.9813 60.8921 34.112 60.1268 34.112ZM75.5376 32.782V36.142H74.2356V34H65.9896L65.9756 36.142H64.6876L64.7016 32.782H65.9056V28.386C65.9056 27.0047 66.2836 25.9453 67.0396 25.208C67.7956 24.4613 68.8176 24.088 70.1056 24.088C71.4029 24.088 72.4296 24.4613 73.1856 25.208C73.9509 25.9453 74.3336 27.0047 74.3336 28.386V32.782H75.5376ZM72.9196 32.782V28.246C72.9196 27.294 72.6722 26.5753 72.1776 26.09C71.6922 25.5953 71.0016 25.348 70.1056 25.348C69.2189 25.348 68.5282 25.5953 68.0336 26.09C67.5389 26.5753 67.2916 27.294 67.2916 28.246V32.782H72.9196ZM84.7347 32.978C84.3147 33.3327 83.764 33.6127 83.0827 33.818C82.4014 34.014 81.6594 34.112 80.8567 34.112C79.9607 34.112 79.2 33.9953 78.5747 33.762C77.9494 33.5193 77.478 33.188 77.1607 32.768C76.8434 32.348 76.6847 31.8627 76.6847 31.312C76.6847 30.752 76.8434 30.2713 77.1607 29.87C77.4874 29.4593 77.9074 29.1653 78.4207 28.988C78.01 28.8013 77.688 28.5213 77.4547 28.148C77.2214 27.7653 77.1047 27.3267 77.1047 26.832C77.1047 26.3187 77.2494 25.8567 77.5387 25.446C77.8374 25.0353 78.2854 24.7087 78.8827 24.466C79.48 24.214 80.208 24.088 81.0667 24.088C81.6734 24.088 82.2614 24.1533 82.8307 24.284C83.4094 24.4147 83.9087 24.6013 84.3287 24.844L83.9227 25.964C83.0827 25.516 82.1494 25.292 81.1227 25.292C80.2734 25.292 79.6247 25.446 79.1767 25.754C78.7287 26.0527 78.5047 26.4447 78.5047 26.93C78.5047 27.4153 78.6774 27.7887 79.0227 28.05C79.368 28.3113 79.8627 28.442 80.5067 28.442H83.0267V29.646H80.4507C79.7134 29.646 79.1347 29.7767 78.7147 30.038C78.2947 30.2993 78.0847 30.6913 78.0847 31.214C78.0847 31.746 78.3227 32.1613 78.7987 32.46C79.2747 32.7587 79.984 32.908 80.9267 32.908C81.58 32.908 82.2007 32.8193 82.7887 32.642C83.386 32.4553 83.876 32.2033 84.2587 31.886L84.7347 32.978ZM90.6925 24.088C91.5138 24.088 92.2325 24.2513 92.8485 24.578C93.4645 24.9047 93.9405 25.39 94.2765 26.034C94.6218 26.678 94.7945 27.462 94.7945 28.386V34H93.3805V28.246C93.3805 27.294 93.1425 26.5753 92.6665 26.09C92.1998 25.5953 91.5418 25.348 90.6925 25.348C89.8431 25.348 89.1805 25.5953 88.7045 26.09C88.2285 26.5753 87.9905 27.294 87.9905 28.246V34H85.4425L85.4285 32.782H86.5905V28.386C86.5905 27.462 86.7585 26.678 87.0945 26.034C87.4398 25.39 87.9205 24.9047 88.5365 24.578C89.1525 24.2513 89.8711 24.088 90.6925 24.088ZM101.627 24.088C102.934 24.088 103.965 24.4707 104.721 25.236C105.477 25.992 105.855 27.0793 105.855 28.498V34H104.455V31.298H98.799V34H97.427V28.498C97.427 27.0793 97.805 25.992 98.561 25.236C99.317 24.4707 100.339 24.088 101.627 24.088ZM104.455 30.08V28.372C104.455 27.3733 104.203 26.6173 103.699 26.104C103.204 25.5907 102.514 25.334 101.627 25.334C100.74 25.334 100.045 25.5907 99.541 26.104C99.0463 26.6173 98.799 27.3733 98.799 28.372V30.08H104.455ZM115.278 26.314C114.326 25.7727 113.308 25.4507 112.226 25.348V34H110.84V25.348C109.748 25.4507 108.726 25.7727 107.774 26.314L107.284 25.208C108.534 24.4613 109.944 24.088 111.512 24.088C113.098 24.088 114.517 24.4613 115.768 25.208L115.278 26.314ZM121.758 27.28C122.467 27.28 123.097 27.4153 123.648 27.686C124.198 27.9473 124.623 28.3347 124.922 28.848C125.23 29.3613 125.384 29.9727 125.384 30.682C125.384 31.774 125.024 32.628 124.306 33.244C123.587 33.8507 122.579 34.154 121.282 34.154C119.984 34.154 118.99 33.846 118.3 33.23C117.609 32.614 117.264 31.7273 117.264 30.57V24.2H118.636V28.134C119.681 27.5647 120.722 27.28 121.758 27.28ZM121.324 32.992C122.154 32.992 122.803 32.7913 123.27 32.39C123.736 31.9793 123.97 31.424 123.97 30.724C123.97 30.0053 123.727 29.4407 123.242 29.03C122.756 28.6193 122.136 28.414 121.38 28.414C120.904 28.414 120.428 28.5027 119.952 28.68C119.485 28.848 119.046 29.1 118.636 29.436V30.542C118.636 31.3167 118.869 31.9187 119.336 32.348C119.812 32.7773 120.474 32.992 121.324 32.992ZM135.931 28.89C136.547 29.058 137.028 29.352 137.373 29.772C137.718 30.1827 137.891 30.6773 137.891 31.256C137.891 31.8347 137.704 32.3433 137.331 32.782C136.967 33.2113 136.477 33.5427 135.861 33.776C135.254 34 134.592 34.112 133.873 34.112C133.22 34.112 132.571 34.014 131.927 33.818C131.283 33.622 130.695 33.328 130.163 32.936L130.653 31.9C131.082 32.236 131.563 32.488 132.095 32.656C132.627 32.824 133.164 32.908 133.705 32.908C134.489 32.908 135.147 32.7447 135.679 32.418C136.211 32.082 136.477 31.6247 136.477 31.046C136.477 30.5513 136.276 30.1733 135.875 29.912C135.474 29.6413 134.909 29.506 134.181 29.506H131.997V28.372H134.083C134.708 28.372 135.194 28.246 135.539 27.994C135.894 27.7327 136.071 27.3733 136.071 26.916C136.071 26.4027 135.842 25.9967 135.385 25.698C134.928 25.3993 134.349 25.25 133.649 25.25C133.192 25.25 132.725 25.3153 132.249 25.446C131.782 25.5767 131.339 25.7727 130.919 26.034L130.471 24.886C130.966 24.606 131.488 24.396 132.039 24.256C132.59 24.116 133.14 24.046 133.691 24.046C134.382 24.046 135.016 24.1533 135.595 24.368C136.174 24.5827 136.631 24.8953 136.967 25.306C137.312 25.7167 137.485 26.1973 137.485 26.748C137.485 27.2427 137.345 27.6767 137.065 28.05C136.794 28.4233 136.416 28.7033 135.931 28.89ZM144.283 24.088C145.59 24.088 146.621 24.4707 147.377 25.236C148.133 25.992 148.511 27.0793 148.511 28.498V34H147.111V31.298H141.455V34H140.083V28.498C140.083 27.0793 140.461 25.992 141.217 25.236C141.973 24.4707 142.995 24.088 144.283 24.088ZM147.111 30.08V28.372C147.111 27.3733 146.859 26.6173 146.355 26.104C145.861 25.5907 145.17 25.334 144.283 25.334C143.397 25.334 142.701 25.5907 142.197 26.104C141.703 26.6173 141.455 27.3733 141.455 28.372V30.08H147.111ZM154.837 29.688H152.793V34H151.421V24.2H152.793V28.456H154.865L157.945 24.2H159.443L155.943 28.946L159.611 34H158.015L154.837 29.688ZM165.229 24.088C166.535 24.088 167.567 24.4707 168.323 25.236C169.079 25.992 169.457 27.0793 169.457 28.498V34H168.057V31.298H162.401V34H161.029V28.498C161.029 27.0793 161.407 25.992 162.163 25.236C162.919 24.4707 163.941 24.088 165.229 24.088ZM168.057 30.08V28.372C168.057 27.3733 167.805 26.6173 167.301 26.104C166.806 25.5907 166.115 25.334 165.229 25.334C164.342 25.334 163.647 25.5907 163.143 26.104C162.648 26.6173 162.401 27.3733 162.401 28.372V30.08H168.057ZM177.015 28.89C177.631 29.058 178.111 29.352 178.457 29.772C178.802 30.1827 178.975 30.6773 178.975 31.256C178.975 31.8347 178.788 32.3433 178.415 32.782C178.051 33.2113 177.561 33.5427 176.945 33.776C176.338 34 175.675 34.112 174.957 34.112C174.303 34.112 173.655 34.014 173.011 33.818C172.367 33.622 171.779 33.328 171.247 32.936L171.737 31.9C172.166 32.236 172.647 32.488 173.179 32.656C173.711 32.824 174.247 32.908 174.789 32.908C175.573 32.908 176.231 32.7447 176.763 32.418C177.295 32.082 177.561 31.6247 177.561 31.046C177.561 30.5513 177.36 30.1733 176.959 29.912C176.557 29.6413 175.993 29.506 175.265 29.506H173.081V28.372H175.167C175.792 28.372 176.277 28.246 176.623 27.994C176.977 27.7327 177.155 27.3733 177.155 26.916C177.155 26.4027 176.926 25.9967 176.469 25.698C176.011 25.3993 175.433 25.25 174.733 25.25C174.275 25.25 173.809 25.3153 173.333 25.446C172.866 25.5767 172.423 25.7727 172.003 26.034L171.555 24.886C172.049 24.606 172.572 24.396 173.123 24.256C173.673 24.116 174.224 24.046 174.775 24.046C175.465 24.046 176.1 24.1533 176.679 24.368C177.257 24.5827 177.715 24.8953 178.051 25.306C178.396 25.7167 178.569 26.1973 178.569 26.748C178.569 27.2427 178.429 27.6767 178.149 28.05C177.878 28.4233 177.5 28.7033 177.015 28.89Z" fill="white"/>
  <defs>
    <filter id="filter0_d" x="0" y="0" width="235" height="80" filterUnits="userSpaceOnUse" color-interpolation-filters="sRGB">
      <feFlood flood-opacity="0" result="BackgroundImageFix"/>
      <feColorMatrix in="SourceAlpha" type="matrix" values="0 0 0 0 0 0 0 0 0 0 0 0 0 0 0 0 0 0 127 0"/>
      <feOffset dy="10"/>
      <feGaussianBlur stdDeviation="7.5"/>
      <feColorMatrix type="matrix" values="0 0 0 0 1 0 0 0 0 0.470588 0 0 0 0 0.458824 0 0 0 0.2 0"/>
      <feBlend mode="normal" in2="BackgroundImageFix" result="effect1_dropShadow"/>
      <feBlend mode="normal" in="SourceGraphic" in2="effect1_dropShadow" result="shape"/>
    </filter>
  </defs>
</svg>
