<svg width="30" height="30" viewBox="0 0 30 30" fill="none" xmlns="http://www.w3.org/2000/svg">
<g clip-path="url(#clip0)">
<path d="M15.0003 30.0007C23.2843 30.0007 29.9997 23.2852 29.9997 15.0013C29.9997 6.7174 23.2843 0.00195312 15.0003 0.00195312C6.71642 0.00195312 0.000976562 6.7174 0.000976562 15.0013C0.000976562 23.2852 6.71642 30.0007 15.0003 30.0007Z" fill="#F3F2F2"/>
<path d="M11.1064 17.878L12.2542 11.1006H14.1124L12.9647 17.878H11.1064Z" fill="#293688"/>
<path d="M19.58 11.2757C19.2118 11.1383 18.6348 10.9912 17.9143 10.9912C16.0779 10.9912 14.7843 11.9107 14.7731 13.2279C14.7629 14.2015 15.6966 14.7446 16.4019 15.0691C17.1252 15.4006 17.3684 15.6134 17.3649 15.9097C17.3604 16.3639 16.787 16.5716 16.2527 16.5716C15.509 16.5714 15.1137 16.4688 14.5034 16.2159L14.2639 16.1079L14.0029 17.6251C14.4371 17.8144 15.2399 17.9785 16.0734 17.9868C18.0266 17.9864 19.2951 17.0783 19.3093 15.6712C19.3164 14.9003 18.8212 14.3136 17.749 13.8298C17.0993 13.5167 16.7014 13.3075 16.7058 12.9897C16.7058 12.7081 17.0427 12.4069 17.7701 12.4069C18.3778 12.3974 18.8181 12.5291 19.1613 12.6665L19.3276 12.7447L19.58 11.2757Z" fill="#293688"/>
<path d="M22.7487 11.1006C22.3035 11.1006 21.9818 11.2365 21.7862 11.6778L19.0322 17.8782H20.9997L21.3822 16.8397H23.7328L23.9512 17.8782H25.7003L24.1701 11.1008H22.7488L22.7487 11.1006ZM21.9042 15.4835C22.0577 15.0933 22.6443 13.5893 22.6443 13.5893C22.6337 13.6071 22.797 13.1971 22.8908 12.9427L23.0166 13.5267C23.0166 13.5267 23.3721 15.1446 23.4467 15.4837H21.9042V15.4835Z" fill="#293688"/>
<path d="M7.71825 15.7464L7.55456 14.8173C7.21542 13.7342 6.16287 12.5624 4.9834 11.9752L6.62518 17.878H8.59307L11.5443 11.1006H9.57689L7.71825 15.7464Z" fill="#293688"/>
<path d="M2.96387 11.1006V11.21C5.29558 11.7708 6.91439 13.1886 7.55527 14.8174L6.88148 11.679C6.769 11.2501 6.42815 11.1155 6.02482 11.1006L2.96387 11.1006Z" fill="#F7981D"/>
<path d="M14.9987 29.9996C20.788 29.9996 25.8078 26.7179 28.3082 21.915H1.68945C4.18998 26.7179 9.20958 29.9996 14.9987 29.9996Z" fill="#F7981D"/>
<path d="M14.9986 0C9.3012 0 4.34578 3.17647 1.80664 7.85529H28.1911C25.6517 3.17673 20.6961 0 14.9986 0Z" fill="#293688"/>
</g>
<defs>
<clipPath id="clip0">
<rect width="30" height="30" fill="white"/>
</clipPath>
</defs>
</svg>
