<svg width="30" height="30" viewBox="0 0 30 30" fill="none" xmlns="http://www.w3.org/2000/svg">
<path d="M15 30C23.2843 30 30 23.2843 30 15C30 6.71573 23.2843 0 15 0C6.71573 0 0 6.71573 0 15C0 23.2843 6.71573 30 15 30Z" fill="#003473"/>
<path d="M14.6078 19.514C15.9124 18.3364 16.7357 16.6265 16.7357 14.7274C16.7357 12.8279 15.9122 11.119 14.6078 9.92832C13.4679 8.89021 11.9491 8.25684 10.2775 8.25684C6.70713 8.25684 3.80664 11.1568 3.80664 14.7272C3.80664 18.2984 6.70713 21.1852 10.2775 21.1852C11.9492 21.1854 13.4679 20.5526 14.6078 19.514Z" fill="#009DDD"/>
<path d="M14.6084 19.5134C15.913 18.3358 16.7363 16.6259 16.7363 14.7268C16.7363 12.8273 15.9127 11.1184 14.6084 9.92773V19.5134Z" fill="#009DDD"/>
<path d="M18.9506 8.25684C17.2787 8.25684 15.759 8.89021 14.6068 9.92832C14.3791 10.1434 14.1641 10.3715 13.9609 10.6126H15.265C15.4426 10.8272 15.6072 11.0683 15.759 11.2959H13.4668C13.3279 11.524 13.2012 11.7523 13.0868 11.9797H16.1261C16.228 12.2073 16.3286 12.4361 16.4047 12.6637H12.8221C12.7458 12.8916 12.6823 13.1201 12.6318 13.3601H16.5949C16.6832 13.7907 16.7346 14.2594 16.7346 14.7274C16.7346 15.4366 16.62 16.1333 16.4047 16.779H12.8221C12.8974 17.0066 12.9862 17.2349 13.0871 17.4628H16.1265C16.0128 17.6909 15.8984 17.9313 15.7591 18.1466H13.4668C13.6196 18.3873 13.7838 18.6151 13.9609 18.8305H15.265C15.0627 19.0711 14.8471 19.2992 14.6068 19.5143C15.7591 20.5529 17.2787 21.1858 18.9506 21.1858C22.5214 21.1858 25.4086 18.299 25.4086 14.7277C25.4083 11.1569 22.5214 8.25684 18.9506 8.25684Z" fill="#ED1C2E"/>
<path d="M23.1797 16.1205C23.1797 16.0063 23.2815 15.918 23.3952 15.918C23.5094 15.918 23.5977 16.0063 23.5977 16.1205C23.5977 16.2348 23.5093 16.336 23.3952 16.336C23.2815 16.336 23.1797 16.2348 23.1797 16.1205ZM23.3952 16.2853C23.4836 16.2853 23.547 16.2093 23.547 16.1205C23.547 16.0319 23.4835 15.9684 23.3952 15.9684C23.3064 15.9684 23.2311 16.0319 23.2311 16.1205C23.2311 16.2093 23.3064 16.2853 23.3952 16.2853ZM23.3698 16.2093H23.3194V16.0318H23.3952C23.42 16.0318 23.4331 16.0318 23.4461 16.0446C23.4586 16.0572 23.4709 16.0695 23.4709 16.0825C23.4709 16.1081 23.4584 16.1334 23.433 16.1334L23.4709 16.2092H23.42L23.3952 16.1457H23.3698V16.2093ZM23.3698 16.1081H23.3952C23.3952 16.1081 23.4077 16.1081 23.42 16.1081C23.42 16.1081 23.42 16.0951 23.42 16.0825V16.0695C23.4075 16.0695 23.3952 16.0695 23.3826 16.0695H23.3696V16.1081H23.3698Z" fill="white"/>
<path d="M9.46652 16.3361H8.65648L9.13749 13.8162L8.03615 16.3361H7.30099L7.17471 13.8288L6.6937 16.3361H5.95898L6.57976 13.0566H7.84549L7.90872 15.0822L8.79624 13.0566H10.0991L9.46652 16.3361Z" fill="white"/>
<path d="M18.4565 16.2982C18.2285 16.361 18.0638 16.3863 17.8736 16.3863C17.4688 16.3863 17.2402 16.1838 17.2402 15.8043C17.2402 15.7281 17.2533 15.6518 17.2656 15.5632L17.316 15.2973L17.3549 15.095L17.7218 13.0566H18.5193L18.4058 13.6639H18.8232L18.7095 14.3103H18.2917L18.0892 15.4242C18.0762 15.4749 18.0639 15.513 18.0639 15.5382C18.0639 15.6777 18.1527 15.7404 18.3429 15.7404C18.4313 15.7404 18.5066 15.7279 18.558 15.7153L18.4565 16.2982Z" fill="white"/>
<path d="M20.7988 13.6896C20.7353 13.6638 20.723 13.6638 20.7104 13.6638C20.6721 13.6508 20.647 13.6508 20.647 13.6387C20.6211 13.6387 20.5961 13.6387 20.5586 13.6387C20.2921 13.6387 20.1024 13.7526 19.8615 14.0688L19.9373 13.6638H19.2026L18.709 16.3357H19.5195C19.8106 14.7016 19.9247 14.4108 20.317 14.4108C20.3423 14.4108 20.3809 14.4236 20.4184 14.4236L20.5072 14.4487L20.7988 13.6896Z" fill="white"/>
<path d="M15.2658 14.5124C15.2658 14.8419 15.456 15.0823 15.8865 15.2474C16.216 15.3862 16.2667 15.4246 16.2667 15.5513C16.2667 15.7157 16.1144 15.7919 15.798 15.7919C15.5573 15.7919 15.329 15.7538 15.0633 15.6783L14.9619 16.2988H15.0003L15.1391 16.3364C15.1895 16.3364 15.2653 16.3492 15.3542 16.3492C15.5444 16.3741 15.6964 16.3741 15.8104 16.3741C16.6588 16.3741 17.064 16.0956 17.064 15.488C17.064 15.1207 16.8994 14.9056 16.4816 14.741C16.1393 14.6143 16.1017 14.5763 16.1017 14.4497C16.1017 14.3109 16.2409 14.2346 16.5069 14.2346C16.6587 14.2346 16.8863 14.2476 17.0889 14.2723L17.2031 13.6647C16.988 13.6273 16.6716 13.6143 16.4939 13.6143C15.5826 13.6138 15.2658 14.0188 15.2658 14.5124Z" fill="white"/>
<path d="M12.075 16.3366H11.4163L11.4293 16.0576C11.2269 16.2732 10.9483 16.3743 10.5809 16.3743C10.1508 16.3743 9.84668 16.0832 9.84668 15.6526C9.84668 15.0065 10.3652 14.6268 11.265 14.6268C11.3528 14.6268 11.4672 14.6268 11.5939 14.6398C11.6192 14.5513 11.6192 14.5129 11.6192 14.4752C11.6192 14.298 11.4795 14.2345 11.0998 14.2345C10.8717 14.2345 10.6192 14.2598 10.4416 14.298L10.3279 14.3361L10.2517 14.3485L10.3654 13.7535C10.7711 13.6517 11.024 13.6143 11.3284 13.6143C12.0242 13.6143 12.3791 13.8798 12.3791 14.3861C12.3791 14.5256 12.3666 14.627 12.3161 14.9184L12.1515 15.8682L12.1261 16.0326L12.1003 16.1723L12.0878 16.2604L12.075 16.3366ZM11.4926 15.146C11.4033 15.1334 11.3659 15.1334 11.3154 15.1334C10.8592 15.1334 10.6316 15.2727 10.6316 15.5389C10.6316 15.7033 10.7325 15.8175 10.9097 15.8175C11.2396 15.8175 11.4798 15.5389 11.4926 15.146Z" fill="white"/>
<path d="M14.7207 16.2728C14.4426 16.3488 14.1766 16.3864 13.8976 16.3864C12.9997 16.3864 12.5303 15.9684 12.5303 15.1834C12.5303 14.2716 13.1257 13.6006 13.9362 13.6006C14.5944 13.6006 15.0132 13.9805 15.0132 14.5629C15.0132 14.7652 14.9874 14.9561 14.9244 15.2216H13.3154C13.3154 15.2721 13.3154 15.2846 13.3154 15.3104C13.3154 15.6143 13.5435 15.7787 14.012 15.7787C14.3033 15.7787 14.5691 15.7283 14.8474 15.6146L14.7207 16.2728ZM14.2906 14.6903C14.2906 14.6395 14.2906 14.5885 14.2906 14.5508C14.2906 14.3357 14.1508 14.2086 13.9106 14.2086C13.6572 14.2086 13.48 14.3857 13.4035 14.6903H14.2906Z" fill="white"/>
<path d="M23.3066 15.1208C23.1798 16.0066 22.5595 16.3993 21.736 16.3993C20.8376 16.3993 20.4707 15.8553 20.4707 15.1715C20.4707 14.2343 21.0905 13.5879 22.0529 13.5879C22.8887 13.5879 23.3319 14.1199 23.3319 14.7911C23.3321 14.9567 23.3321 14.969 23.3066 15.1208ZM22.4711 14.7785C22.4711 14.5 22.3569 14.2475 22.0285 14.2475C21.6223 14.2475 21.3694 14.7281 21.3694 15.1589C21.3694 15.5137 21.547 15.7541 21.8256 15.7541C22.0027 15.7541 22.3826 15.5137 22.4459 15.1085C22.4711 15.0067 22.4711 14.8932 22.4711 14.7785Z" fill="white"/>
</svg>
