<svg width="30" height="30" viewBox="0 0 30 30" fill="none" xmlns="http://www.w3.org/2000/svg">
<path d="M15 30C23.2843 30 30 23.2843 30 15C30 6.71573 23.2843 0 15 0C6.71573 0 0 6.71573 0 15C0 23.2843 6.71573 30 15 30Z" fill="#3C80AD"/>
<path d="M10.0958 7.71973C6.31072 7.74365 3.24609 10.8298 3.24609 14.6284C3.24609 18.4419 6.3344 21.5366 10.1401 21.5366C11.9252 21.5366 13.5533 20.8547 14.7783 19.7366L14.7781 19.7363H14.779C15.0303 19.5073 15.2643 19.2595 15.4792 18.9964H14.0671C13.8783 18.7683 13.7068 18.53 13.5529 18.2844H15.9885C16.1372 18.0471 16.2708 17.8006 16.3904 17.5452H13.1513C13.0407 17.3079 12.9447 17.066 12.863 16.8195H16.6787C16.9092 16.1307 17.0335 15.3937 17.0335 14.6284C17.0335 14.1201 16.9783 13.6255 16.8748 13.1485H12.6605C12.7131 12.9029 12.7787 12.6606 12.8569 12.423H16.6744C16.5892 12.1696 16.4899 11.923 16.3772 11.6833H13.1508C13.2671 11.4339 13.399 11.1921 13.5461 10.9576H15.9802C15.818 10.6987 15.6389 10.4515 15.4454 10.2184H14.0883C14.2984 9.97039 14.529 9.73713 14.7794 9.5209C13.5549 8.40228 11.9266 7.71992 10.1404 7.71992C10.1249 7.71973 10.1103 7.71973 10.0958 7.71973Z" fill="#931B1D"/>
<path d="M26.2814 14.6305C26.2821 18.4455 23.1974 21.539 19.3891 21.5402C15.5824 21.5414 12.4953 18.449 12.4941 14.6334V14.6305C12.4929 10.8144 15.5786 7.72068 19.386 7.71973C23.1931 7.71833 26.2805 10.8109 26.2814 14.6267C26.2814 14.6267 26.2814 14.6285 26.2814 14.6305Z" fill="#F16622"/>
<path d="M26.2814 14.7063C26.2821 18.5214 23.1974 21.6154 19.3891 21.6161C15.5824 21.6175 12.4953 18.5248 12.4941 14.7098V14.7063C12.4929 10.8908 15.5786 7.79685 19.386 7.7959C23.1931 7.79451 26.2805 10.887 26.2814 14.7027C26.2814 14.7027 26.2814 14.7049 26.2814 14.7063Z" fill="#F7981D"/>
<path d="M10.0958 7.79791C6.31072 7.82229 3.24609 10.9077 3.24609 14.7066C3.24609 18.5204 6.3344 21.6152 10.1401 21.6152C11.9252 21.6152 13.5533 20.9329 14.7783 19.8149L14.7781 19.8143H14.779C15.0303 19.5854 15.2643 19.3384 15.4792 19.0743H14.0671C13.8783 18.8467 13.7068 18.6089 13.5529 18.3633H15.9885C16.1372 18.1257 16.2708 17.8785 16.3904 17.6234H13.1513C13.0407 17.3858 12.9447 17.144 12.863 16.8979H16.6787C16.9092 16.2087 17.0335 15.4719 17.0335 14.7066C17.0335 14.1985 16.9783 13.7037 16.8748 13.227H12.6605C12.7131 12.9816 12.7787 12.7388 12.8569 12.5015H16.6744C16.5892 12.2478 16.4899 12.0012 16.3772 11.7613H13.1508C13.2671 11.5129 13.399 11.2701 13.5461 11.0359H15.9802C15.818 10.7772 15.6389 10.5302 15.4454 10.2961H14.0883C14.2984 10.0486 14.529 9.81532 14.7794 9.59865C13.5549 8.48022 11.9266 7.79785 10.1404 7.79785C10.1249 7.79791 10.1103 7.79791 10.0958 7.79791Z" fill="#CB2026"/>
<path d="M12.6193 16.4644L12.7114 15.8393C12.6612 15.8393 12.5873 15.8606 12.5222 15.8606C12.2668 15.8606 12.2384 15.7247 12.255 15.624L12.4613 14.3481H12.8495L12.9433 13.6562H12.5774L12.652 13.2266H11.9178C11.9019 13.2426 11.4844 15.6455 11.4844 15.9375C11.4844 16.3707 11.7267 16.5637 12.0691 16.5609C12.3367 16.5584 12.5458 16.4843 12.6193 16.4644Z" fill="white"/>
<path d="M12.8516 15.2726C12.8516 16.3122 13.5358 16.5594 14.1192 16.5594C14.6578 16.5594 14.8944 16.4384 14.8944 16.4384L15.024 15.7288C15.024 15.7288 14.6145 15.9107 14.2445 15.9107C13.4565 15.9107 13.5946 15.3215 13.5946 15.3215H15.0865C15.0865 15.3215 15.1824 14.8445 15.1824 14.6503C15.1824 14.1659 14.9413 13.5752 14.1358 13.5752C13.3975 13.5754 12.8516 14.3719 12.8516 15.2726ZM14.1389 14.2336C14.5529 14.2336 14.4764 14.7001 14.4764 14.7378H13.6616C13.6613 14.6898 13.7384 14.2336 14.1389 14.2336Z" fill="white"/>
<path d="M18.7862 16.465L18.9177 15.6623C18.9177 15.6623 18.5574 15.8442 18.3104 15.8442C17.7898 15.8442 17.5811 15.4448 17.5811 15.0176C17.5811 14.1488 18.029 13.6708 18.5281 13.6708C18.9019 13.6708 19.2022 13.8816 19.2022 13.8816L19.3218 13.1028C19.3218 13.1028 18.8767 12.9219 18.4954 12.9219C17.648 12.9219 16.8232 13.6578 16.8232 15.0424C16.8232 15.959 17.2687 16.5655 18.1446 16.5655C18.392 16.5657 18.7862 16.465 18.7862 16.465Z" fill="white"/>
<path d="M8.58253 13.5869C8.07924 13.5869 7.69337 13.7487 7.69337 13.7487L7.58702 14.3825C7.58702 14.3825 7.9058 14.2532 8.38687 14.2532C8.66019 14.2532 8.85984 14.2838 8.85984 14.5067C8.85984 14.6417 8.83547 14.6916 8.83547 14.6916C8.83547 14.6916 8.62019 14.6734 8.52024 14.6734C7.88573 14.6734 7.21875 14.9448 7.21875 15.7638C7.21875 16.4086 7.65596 16.5568 7.92719 16.5568C8.44517 16.5568 8.66779 16.2202 8.68013 16.2188L8.65595 16.5001H9.30211L9.59056 14.4739C9.59056 13.6146 8.8423 13.5869 8.58253 13.5869ZM8.74001 15.2359C8.754 15.3597 8.66235 15.94 8.22039 15.94C7.99252 15.94 7.93308 15.7652 7.93308 15.6619C7.93308 15.4608 8.04227 15.219 8.58037 15.219C8.7052 15.219 8.71868 15.2328 8.74001 15.2359Z" fill="white"/>
<path d="M10.2766 16.5415C10.4417 16.5415 11.3868 16.5839 11.3868 15.6067C11.3868 14.6929 10.5121 14.8732 10.5121 14.506C10.5121 14.3239 10.6547 14.2656 10.9152 14.2656C11.0187 14.2656 11.4169 14.299 11.4169 14.299L11.5097 13.6491C11.5097 13.6491 11.252 13.5918 10.8328 13.5918C10.2892 13.5918 9.73854 13.8083 9.73854 14.5517C9.73854 15.3947 10.6575 15.3094 10.6575 15.6642C10.6575 15.9011 10.4005 15.9205 10.2025 15.9205C9.86052 15.9205 9.55238 15.8028 9.55092 15.8082L9.45312 16.4508C9.47022 16.4568 9.66062 16.5415 10.2766 16.5415Z" fill="white"/>
<path d="M24.8665 13.0045L24.7085 13.9889C24.7085 13.9889 24.4321 13.6069 23.9999 13.6069C23.327 13.6069 22.7666 14.4193 22.7666 15.3532C22.7666 15.956 23.0652 16.546 23.6768 16.546C24.1166 16.546 24.3599 16.2388 24.3599 16.2388L24.3279 16.501H25.0418L25.6029 13.0029L24.8665 13.0045ZM24.5259 14.9247C24.5259 15.3129 24.3336 15.8313 23.9359 15.8313C23.6715 15.8313 23.5482 15.6092 23.5482 15.2605C23.5482 14.6906 23.8035 14.3135 24.1256 14.3135C24.3902 14.3136 24.5259 14.496 24.5259 14.9247Z" fill="white"/>
<path d="M4.60763 16.5038L5.05503 13.8629L5.12017 16.5038H5.62605L6.5694 13.8629L6.15137 16.5038H6.90267L7.4818 13.002H6.31962L5.59605 15.1502L5.55839 13.002H4.48755L3.90039 16.5038H4.60763Z" fill="white"/>
<path d="M15.9168 16.5082C16.1304 15.291 16.17 14.3022 16.6802 14.4824C16.7695 14.0116 16.8555 13.8294 16.9526 13.6298C16.9526 13.6298 16.9071 13.6201 16.8109 13.6201C16.4829 13.6201 16.2391 14.0701 16.2391 14.0701L16.304 13.657H15.6204L15.1631 16.5082H15.9168Z" fill="white"/>
<path d="M20.48 13.5869C19.9767 13.5869 19.5911 13.7487 19.5911 13.7487L19.485 14.3825C19.485 14.3825 19.8031 14.2532 20.2846 14.2532C20.5577 14.2532 20.7578 14.2838 20.7578 14.5067C20.7578 14.6417 20.7332 14.6916 20.7332 14.6916C20.7332 14.6916 20.5179 14.6734 20.4172 14.6734C19.7824 14.6734 19.1162 14.9448 19.1162 15.7638C19.1162 16.4086 19.5537 16.5568 19.8247 16.5568C20.3426 16.5568 20.5655 16.2202 20.5773 16.2188L20.5534 16.5001H21.2L21.4883 14.4739C21.4885 13.6146 20.7405 13.5869 20.48 13.5869ZM20.6377 15.2359C20.6517 15.3597 20.5605 15.94 20.1179 15.94C19.8902 15.94 19.8312 15.7652 19.8312 15.6619C19.8312 15.4608 19.9404 15.219 20.4776 15.219C20.6032 15.219 20.6162 15.2328 20.6377 15.2359Z" fill="white"/>
<path d="M22.0788 16.5082C22.2927 15.291 22.3322 14.3022 22.8423 14.4824C22.9317 14.0116 23.0176 13.8294 23.1152 13.6298C23.1152 13.6298 23.069 13.6201 22.9734 13.6201C22.6444 13.6201 22.4014 14.0701 22.4014 14.0701L22.4668 13.657H21.7828L21.3252 16.508H22.0788L22.0788 16.5082Z" fill="white"/>
</svg>
