<svg width="30" height="30" viewBox="0 0 30 30" fill="none" xmlns="http://www.w3.org/2000/svg">
<path d="M15 30C23.2843 30 30 23.2843 30 15C30 6.71573 23.2843 0 15 0C6.71573 0 0 6.71573 0 15C0 23.2843 6.71573 30 15 30Z" fill="#F3F2F2"/>
<path d="M21.9862 12.4791C21.3621 12.4791 20.8686 12.6446 20.491 12.7202L20.375 13.669C20.5637 13.5783 21.1589 13.4132 21.6525 13.3976C22.1464 13.3826 22.4365 13.488 22.3349 13.9098C20.8688 13.9098 19.8814 14.2106 19.6782 15.1595C19.3876 16.7859 21.1734 16.7409 21.8849 16.033L21.798 16.4243H23.1045L23.6706 13.8338C23.9023 12.7349 22.9009 12.4642 21.9862 12.4791ZM22.0734 15.1294C22.0009 15.4757 21.7253 15.6263 21.3913 15.6417C21.1009 15.6566 20.8396 15.4001 21.0285 15.0991C21.1737 14.8433 21.5803 14.7831 21.8269 14.7831C21.9285 14.7831 22.0447 14.7831 22.1466 14.7831C22.117 14.9035 22.1023 15.0089 22.0734 15.1294Z" fill="#1A80AD"/>
<path d="M24.7881 11.4551L23.707 16.4246H25.0341L26.1286 11.4551H24.7881Z" fill="#1A80AD"/>
<path d="M18.6912 11.4697H16.2613L15.1846 16.4242H16.5957L16.9597 14.7828H17.9635C18.9531 14.7828 19.7679 14.1805 19.986 13.1563C20.2335 11.9968 19.3896 11.4697 18.6912 11.4697ZM18.648 13.1563C18.5606 13.5327 18.1822 13.8337 17.8181 13.8337H17.1635L17.4546 12.4785H18.1529C18.5168 12.4787 18.735 12.7798 18.648 13.1563Z" fill="#1A80AD"/>
<path d="M9.26382 12.4791C8.64704 12.4791 8.15938 12.6446 7.80054 12.7202L7.68635 13.6688C7.85852 13.5781 8.44638 13.413 8.9341 13.3974C9.42175 13.3824 9.70863 13.4878 9.62216 13.9097C8.17407 13.9097 7.19895 14.2104 6.9981 15.1593C6.71104 16.7858 8.47487 16.7408 9.16337 16.0328L9.0776 16.4241H10.3826L10.9418 13.8336C11.171 12.7349 10.167 12.4642 9.26382 12.4791ZM9.36428 15.1294C9.29231 15.4757 9.00518 15.6263 8.67597 15.6417C8.38916 15.6566 8.1452 15.4001 8.33181 15.0991C8.47486 14.8433 8.87656 14.7831 9.10608 14.7831C9.22097 14.7831 9.32117 14.7831 9.43625 14.7831C9.40688 14.9035 9.37846 15.0089 9.36428 15.1294Z" fill="#1A5B80"/>
<path d="M11.5095 12.5508H12.8145L13.0251 14.858L14.3017 12.5508H15.6484L12.5478 18.0725H11.0889L12.0424 16.4494L11.5095 12.5508Z" fill="#1A5B80"/>
<path d="M6.01778 11.4697H3.58152L2.50195 16.4242H3.93156L4.28161 14.7828H5.30269C6.28015 14.7828 7.09709 14.1805 7.31592 13.1563C7.56392 11.9968 6.73262 11.4697 6.01778 11.4697ZM5.97398 13.1563C5.88656 13.5327 5.52208 13.8337 5.1571 13.8337H4.48613L4.79262 12.4785H5.49277C5.84276 12.4787 6.07608 12.7798 5.97398 13.1563Z" fill="#1A5B80"/>
<path d="M26.4169 12.0974V11.5112H26.1982V11.4326H26.725V11.5112H26.5052V12.0974H26.4169Z" fill="#1A5B80"/>
<path d="M26.8125 12.0974V11.4326H26.9444L27.1019 11.903C27.1166 11.9468 27.1268 11.9793 27.1336 12.0008C27.1412 11.9769 27.153 11.9414 27.1687 11.8947L27.3286 11.4326H27.4468V12.0974H27.3622V11.5409L27.1684 12.0974H27.0896L26.897 11.5316V12.0974H26.8125Z" fill="#1A5B80"/>
</svg>
