<?xml version="1.0" encoding="UTF-8" standalone="no"?>
<svg
   xmlns:dc="http://purl.org/dc/elements/1.1/"
   xmlns:cc="http://creativecommons.org/ns#"
   xmlns:rdf="http://www.w3.org/1999/02/22-rdf-syntax-ns#"
   xmlns:svg="http://www.w3.org/2000/svg"
   xmlns="http://www.w3.org/2000/svg"
   xmlns:sodipodi="http://sodipodi.sourceforge.net/DTD/sodipodi-0.dtd"
   xmlns:inkscape="http://www.inkscape.org/namespaces/inkscape"
   width="270"
   height="60"
   viewBox="0 0 270 60"
   fill="none"
   version="1.1"
   id="svg6514"
   sodipodi:docname="social-whatsapp-xbtn-hover.svg"
   inkscape:version="0.92.3 (2405546, 2018-03-11)">
  <metadata
     id="metadata6520">
    <rdf:RDF>
      <cc:Work
         rdf:about="">
        <dc:format>image/svg+xml</dc:format>
        <dc:type
           rdf:resource="http://purl.org/dc/dcmitype/StillImage" />
        <dc:title></dc:title>
      </cc:Work>
    </rdf:RDF>
  </metadata>
  <defs
     id="defs6518" />
  <sodipodi:namedview
     pagecolor="#ffffff"
     bordercolor="#666666"
     borderopacity="1"
     objecttolerance="10"
     gridtolerance="10"
     guidetolerance="10"
     inkscape:pageopacity="0"
     inkscape:pageshadow="2"
     inkscape:window-width="1920"
     inkscape:window-height="1011"
     id="namedview6516"
     showgrid="false"
     inkscape:zoom="3.4962963"
     inkscape:cx="128.15731"
     inkscape:cy="39.866738"
     inkscape:window-x="-9"
     inkscape:window-y="-9"
     inkscape:window-maximized="1"
     inkscape:current-layer="svg6514" />
  <rect
     x="0.5"
     y="0.5"
     width="269"
     height="59"
     rx="4.5"
     id="rect6504"
     stroke="#75B73B"
     fill-opacity="0.1"
     fill="#75B73B" />
  <path
     d="m 138.274,22.2 v 5.894 c 0,1.3253 -0.331,2.3287 -0.994,3.01 -0.653,0.672 -1.591,1.008 -2.814,1.008 -0.719,0 -1.353,-0.126 -1.904,-0.378 -0.541,-0.2613 -0.957,-0.616 -1.246,-1.064 -0.299,0.448 -0.714,0.8027 -1.246,1.064 -0.532,0.252 -1.162,0.378 -1.89,0.378 -1.223,0 -2.161,-0.336 -2.814,-1.008 -0.653,-0.6813 -0.98,-1.6847 -0.98,-3.01 V 22.2 h 1.4 v 5.852 c 0,1.876 0.798,2.814 2.394,2.814 0.775,0 1.377,-0.2287 1.806,-0.686 0.429,-0.4573 0.644,-1.1667 0.644,-2.128 V 22.2 h 1.4 v 5.852 c 0,0.9613 0.21,1.6707 0.63,2.128 0.429,0.4573 1.031,0.686 1.806,0.686 1.605,0 2.408,-0.938 2.408,-2.814 V 22.2 Z m 6.628,2.31 c 0.943,0 1.689,0.2753 2.24,0.826 0.56,0.5413 0.84,1.3393 0.84,2.394 V 32 h -1.344 v -4.116 c 0,-0.7187 -0.173,-1.26 -0.518,-1.624 -0.345,-0.364 -0.84,-0.546 -1.484,-0.546 -0.728,0 -1.302,0.2147 -1.722,0.644 -0.42,0.42 -0.63,1.0267 -0.63,1.82 V 32 H 140.94 V 21.612 h 1.344 v 4.018 c 0.28,-0.3547 0.644,-0.63 1.092,-0.826 0.457,-0.196 0.966,-0.294 1.526,-0.294 z m 12.608,0.07 V 32 h -1.288 v -1.176 c -0.298,0.4107 -0.676,0.7233 -1.134,0.938 -0.457,0.2147 -0.961,0.322 -1.512,0.322 -0.718,0 -1.362,-0.1587 -1.932,-0.476 -0.569,-0.3173 -1.017,-0.7607 -1.344,-1.33 -0.317,-0.5787 -0.476,-1.2413 -0.476,-1.988 0,-0.7467 0.159,-1.4047 0.476,-1.974 0.327,-0.5693 0.775,-1.0127 1.344,-1.33 0.57,-0.3173 1.214,-0.476 1.932,-0.476 0.532,0 1.022,0.1027 1.47,0.308 0.448,0.196 0.822,0.49 1.12,0.882 v -1.12 z m -3.822,6.328 c 0.467,0 0.892,-0.1073 1.274,-0.322 0.383,-0.224 0.682,-0.532 0.896,-0.924 0.215,-0.4013 0.322,-0.8587 0.322,-1.372 0,-0.5133 -0.107,-0.966 -0.322,-1.358 -0.214,-0.4013 -0.513,-0.7093 -0.896,-0.924 -0.382,-0.2147 -0.807,-0.322 -1.274,-0.322 -0.476,0 -0.905,0.1073 -1.288,0.322 -0.373,0.2147 -0.672,0.5227 -0.896,0.924 -0.214,0.392 -0.322,0.8447 -0.322,1.358 0,0.5133 0.108,0.9707 0.322,1.372 0.224,0.392 0.523,0.7 0.896,0.924 0.383,0.2147 0.812,0.322 1.288,0.322 z m 10.271,0.658 c -0.196,0.168 -0.438,0.2987 -0.728,0.392 -0.289,0.084 -0.588,0.126 -0.896,0.126 -0.746,0 -1.325,-0.2007 -1.736,-0.602 -0.41,-0.4013 -0.616,-0.9753 -0.616,-1.722 v -6.804 h 1.344 v 1.624 h 2.128 v 1.106 h -2.128 v 4.018 c 0,0.4013 0.098,0.7093 0.294,0.924 0.206,0.2147 0.495,0.322 0.868,0.322 0.411,0 0.761,-0.1167 1.05,-0.35 z m 3.746,0.518 c -0.607,0 -1.19,-0.0793 -1.75,-0.238 -0.56,-0.168 -0.999,-0.378 -1.316,-0.63 l 0.56,-1.064 c 0.326,0.2333 0.723,0.42 1.19,0.56 0.466,0.14 0.938,0.21 1.414,0.21 1.176,0 1.764,-0.336 1.764,-1.008 0,-0.224 -0.08,-0.4013 -0.238,-0.532 -0.159,-0.1307 -0.36,-0.224 -0.602,-0.28 -0.234,-0.0653 -0.57,-0.1353 -1.008,-0.21 -0.598,-0.0933 -1.088,-0.2007 -1.47,-0.322 -0.374,-0.1213 -0.696,-0.3267 -0.966,-0.616 -0.271,-0.2893 -0.406,-0.6953 -0.406,-1.218 0,-0.672 0.28,-1.2087 0.84,-1.61 0.56,-0.4107 1.311,-0.616 2.254,-0.616 0.494,0 0.989,0.0607 1.484,0.182 0.494,0.1213 0.9,0.2847 1.218,0.49 l -0.574,1.064 c -0.607,-0.392 -1.321,-0.588 -2.142,-0.588 -0.57,0 -1.004,0.0933 -1.302,0.28 -0.299,0.1867 -0.448,0.434 -0.448,0.742 0,0.2427 0.084,0.434 0.252,0.574 0.168,0.14 0.373,0.2427 0.616,0.308 0.252,0.0653 0.602,0.14 1.05,0.224 0.597,0.1027 1.078,0.2147 1.442,0.336 0.373,0.112 0.69,0.308 0.952,0.588 0.261,0.28 0.392,0.672 0.392,1.176 0,0.672 -0.29,1.2087 -0.868,1.61 -0.57,0.392 -1.349,0.588 -2.338,0.588 z m 9.197,-9.996 c 1.307,0 2.338,0.3827 3.094,1.148 0.756,0.756 1.134,1.8433 1.134,3.262 V 32 h -1.4 v -2.702 h -5.656 V 32 h -1.372 v -5.502 c 0,-1.4187 0.378,-2.506 1.134,-3.262 0.756,-0.7653 1.778,-1.148 3.066,-1.148 z m 2.828,5.992 v -1.708 c 0,-0.9987 -0.252,-1.7547 -0.756,-2.268 -0.494,-0.5133 -1.185,-0.77 -2.072,-0.77 -0.886,0 -1.582,0.2567 -2.086,0.77 -0.494,0.5133 -0.742,1.2693 -0.742,2.268 v 1.708 z m 7.992,-3.57 c 0.718,0 1.362,0.1587 1.932,0.476 0.569,0.3173 1.012,0.7607 1.33,1.33 0.326,0.5693 0.49,1.2273 0.49,1.974 0,0.7467 -0.164,1.4093 -0.49,1.988 -0.318,0.5693 -0.761,1.0127 -1.33,1.33 -0.57,0.3173 -1.214,0.476 -1.932,0.476 -0.532,0 -1.022,-0.1027 -1.47,-0.308 -0.439,-0.2053 -0.812,-0.504 -1.12,-0.896 v 3.836 h -1.344 V 24.58 h 1.288 v 1.176 c 0.298,-0.4107 0.676,-0.7187 1.134,-0.924 0.457,-0.2147 0.961,-0.322 1.512,-0.322 z m -0.112,6.398 c 0.476,0 0.9,-0.1073 1.274,-0.322 0.382,-0.224 0.681,-0.532 0.896,-0.924 0.224,-0.4013 0.336,-0.8587 0.336,-1.372 0,-0.5133 -0.112,-0.966 -0.336,-1.358 -0.215,-0.4013 -0.514,-0.7093 -0.896,-0.924 -0.374,-0.2147 -0.798,-0.322 -1.274,-0.322 -0.467,0 -0.892,0.112 -1.274,0.336 -0.374,0.2147 -0.672,0.518 -0.896,0.91 -0.215,0.392 -0.322,0.8447 -0.322,1.358 0,0.5133 0.107,0.9707 0.322,1.372 0.214,0.392 0.513,0.7 0.896,0.924 0.382,0.2147 0.807,0.322 1.274,0.322 z m 9.655,-6.398 c 0.718,0 1.362,0.1587 1.932,0.476 0.569,0.3173 1.012,0.7607 1.33,1.33 0.326,0.5693 0.49,1.2273 0.49,1.974 0,0.7467 -0.164,1.4093 -0.49,1.988 -0.318,0.5693 -0.761,1.0127 -1.33,1.33 -0.57,0.3173 -1.214,0.476 -1.932,0.476 -0.532,0 -1.022,-0.1027 -1.47,-0.308 -0.439,-0.2053 -0.812,-0.504 -1.12,-0.896 v 3.836 h -1.344 V 24.58 h 1.288 v 1.176 c 0.298,-0.4107 0.676,-0.7187 1.134,-0.924 0.457,-0.2147 0.961,-0.322 1.512,-0.322 z m -0.112,6.398 c 0.476,0 0.9,-0.1073 1.274,-0.322 0.382,-0.224 0.681,-0.532 0.896,-0.924 0.224,-0.4013 0.336,-0.8587 0.336,-1.372 0,-0.5133 -0.112,-0.966 -0.336,-1.358 -0.215,-0.4013 -0.514,-0.7093 -0.896,-0.924 -0.374,-0.2147 -0.798,-0.322 -1.274,-0.322 -0.467,0 -0.892,0.112 -1.274,0.336 -0.374,0.2147 -0.672,0.518 -0.896,0.91 -0.215,0.392 -0.322,0.8447 -0.322,1.358 0,0.5133 0.107,0.9707 0.322,1.372 0.214,0.392 0.513,0.7 0.896,0.924 0.382,0.2147 0.807,0.322 1.274,0.322 z"
     id="path6506"
     inkscape:connector-curvature="0"
     style="fill:#75b73b" />
  <path
     d="M 88,46 C 99.0457,46 108,37.0457 108,26 108,14.9543 99.0457,6 88,6 76.9543,6 68,14.9543 68,26 c 0,11.0457 8.9543,20 20,20 z"
     id="path6508"
     inkscape:connector-curvature="0"
     style="fill:#75b73b" />
  <path
     d="m 87.44,14.4723 c -6.096,0.29 -10.9065,5.3669 -10.8882,11.4696 0.0056,1.8588 0.4544,3.6133 1.2461,5.1637 l -1.2154,5.8996 c -0.0657,0.3192 0.2221,0.5986 0.5392,0.5235 l 5.7808,-1.3696 c 1.4852,0.74 3.1535,1.1671 4.9189,1.1941 6.2307,0.0952 11.4259,-4.852 11.6203,-11.0804 C 99.6497,19.5964 94.1395,14.1532 87.44,14.4723 Z m 6.8979,17.7726 c -1.6929,1.6929 -3.944,2.6253 -6.3383,2.6253 -1.4019,0 -2.7442,-0.3146 -3.9895,-0.9348 l -0.8049,-0.4011 -3.5445,0.8396 0.746,-3.6216 -0.3965,-0.7768 c -0.6465,-1.2661 -0.9743,-2.635 -0.9743,-4.069 0,-2.3944 0.9324,-4.6453 2.6253,-6.3383 1.6778,-1.678 3.9655,-2.6253 6.3386,-2.6253 2.394,0 4.6451,0.9324 6.338,2.6253 1.6929,1.6929 2.6253,3.944 2.6253,6.338 2e-4,2.3732 -0.9473,4.6608 -2.6252,6.3387 z"
     id="path6510"
     inkscape:connector-curvature="0"
     style="fill:#ffffff" />
  <path
     d="m 93.5551,28.3892 -2.2175,-0.6367 c -0.2914,-0.0835 -0.6054,-7e-4 -0.8179,0.2157 l -0.5423,0.5523 c -0.2286,0.2331 -0.5755,0.3079 -0.8781,0.1855 -1.049,-0.4246 -3.2557,-2.3866 -3.8189,-3.3677 -0.1628,-0.2831 -0.1358,-0.6369 0.0639,-0.8954 l 0.4733,-0.6125 c 0.1854,-0.2398 0.2245,-0.5622 0.1019,-0.8396 l -0.9329,-2.11 c -0.2234,-0.5053 -0.8692,-0.6525 -1.2912,-0.2956 -0.6188,0.5235 -1.3531,1.3187 -1.4422,2.2 -0.1574,1.5537 0.509,3.512 3.0283,5.8637 2.9107,2.717 5.2417,3.0757 6.7596,2.7081 0.8608,-0.2084 1.5488,-1.0442 1.9827,-1.7286 0.2962,-0.467 0.0621,-1.0866 -0.4687,-1.2392 z"
     id="path6512"
     inkscape:connector-curvature="0"
     style="fill:#ffffff" />
</svg>
