<svg width="30" height="30" viewBox="0 0 30 30" fill="none" xmlns="http://www.w3.org/2000/svg">
<path d="M15 30C23.2843 30 30 23.2843 30 15C30 6.71573 23.2843 0 15 0C6.71573 0 0 6.71573 0 15C0 23.2843 6.71573 30 15 30Z" fill="#FF4D4F"/>
<path d="M14.5803 6.35474C10.0082 6.57224 6.40033 10.3799 6.4141 14.9569C6.41832 16.351 6.75488 17.6669 7.34867 18.8297L6.43713 23.2544C6.38785 23.4938 6.60371 23.7034 6.84148 23.647L11.1771 22.6198C12.2911 23.1748 13.5422 23.4952 14.8663 23.5154C19.5393 23.5868 23.4357 19.8764 23.5815 15.2051C23.7375 10.1978 19.6049 6.11539 14.5803 6.35474ZM19.7537 19.6842C18.484 20.9538 16.7957 21.6532 15 21.6532C13.9486 21.6532 12.9418 21.4172 12.0078 20.952L11.4042 20.6512L8.74578 21.2809L9.30529 18.5647L9.00793 17.9821C8.52301 17.0326 8.27715 16.0059 8.27715 14.9303C8.27715 13.1346 8.97646 11.4464 10.2461 10.1766C11.5045 8.91816 13.2203 8.20765 15.0001 8.20765C16.7956 8.20765 18.4839 8.90697 19.7536 10.1766C21.0233 11.4463 21.7226 13.1346 21.7226 14.9302C21.7227 16.71 21.0121 18.4258 19.7537 19.6842Z" fill="white"/>
<path d="M19.1665 16.7924L17.5034 16.3149C17.2849 16.2523 17.0494 16.3143 16.8901 16.4766L16.4833 16.8909C16.3118 17.0657 16.0517 17.1218 15.8247 17.03C15.038 16.7116 13.383 15.24 12.9606 14.5042C12.8385 14.2919 12.8587 14.0266 13.0084 13.8326L13.3634 13.3733C13.5025 13.1934 13.5318 12.9516 13.4399 12.7436L12.7402 11.1611C12.5726 10.7821 12.0883 10.6717 11.7718 10.9394C11.3077 11.332 10.757 11.9284 10.6901 12.5894C10.5721 13.7546 11.0719 15.2234 12.9613 16.9871C15.1444 19.0249 16.8926 19.2939 18.031 19.0182C18.6767 18.862 19.1927 18.2351 19.5181 17.7218C19.7402 17.3716 19.5647 16.9068 19.1665 16.7924Z" fill="white"/>
</svg>
