<svg width="30" height="30" viewBox="0 0 30 30" fill="none" xmlns="http://www.w3.org/2000/svg">
<path d="M15 30C23.2843 30 30 23.2843 30 15C30 6.71573 23.2843 0 15 0C6.71573 0 0 6.71573 0 15C0 23.2843 6.71573 30 15 30Z" fill="#FF4D4F"/>
<path d="M22.9351 10.5423L22.9302 10.5225C22.5294 8.90222 20.7225 7.16362 19.0631 6.80192L19.0445 6.79806C16.3605 6.28606 13.6391 6.28606 10.9558 6.79806L10.9365 6.80192C9.2777 7.16362 7.47072 8.90233 7.06941 10.5225L7.06496 10.5423C6.56949 12.805 6.56949 15.0998 7.06496 17.3625L7.06941 17.3823C7.45367 18.9334 9.126 20.5922 10.7234 21.0483V22.857C10.7234 23.5117 11.5212 23.8332 11.9748 23.3608L13.8073 21.4559C14.2048 21.4781 14.6025 21.4906 15.0001 21.4906C16.3511 21.4906 17.7027 21.3628 19.0444 21.1068L19.0631 21.103C20.7225 20.7413 22.5294 19.0026 22.9302 17.3824L22.9351 17.3626C23.4305 15.0998 23.4305 12.8051 22.9351 10.5423ZM21.4849 17.0344C21.2173 18.0915 19.8454 19.4057 18.7553 19.6485C17.3282 19.9199 15.8898 20.0359 14.4529 19.9961C14.4243 19.9952 14.3968 20.0064 14.3769 20.0269C14.173 20.2362 13.0389 21.4004 13.0389 21.4004L11.6158 22.8611C11.5118 22.9696 11.3289 22.8957 11.3289 22.746V19.7497C11.3289 19.7002 11.2936 19.6582 11.245 19.6486C11.2447 19.6485 11.2445 19.6485 11.2442 19.6484C10.1541 19.4056 8.78264 18.0915 8.51457 17.0344C8.06861 14.9891 8.06861 12.9157 8.51457 10.8704C8.78264 9.81335 10.1541 8.49921 11.2442 8.2564C13.7365 7.78237 16.2635 7.78237 18.7554 8.2564C19.846 8.49921 21.2173 9.81335 21.4849 10.8704C21.9314 12.9158 21.9314 14.9892 21.4849 17.0344Z" fill="white"/>
<path d="M17.3719 18.4176C17.2043 18.3667 17.0446 18.3325 16.8962 18.2711C15.3592 17.6334 13.9448 16.8107 12.8244 15.5497C12.1873 14.8327 11.6886 14.0231 11.267 13.1663C11.0671 12.76 10.8987 12.3379 10.7269 11.9183C10.5704 11.5358 10.801 11.1407 11.0438 10.8524C11.2717 10.5819 11.5649 10.3749 11.8825 10.2223C12.1304 10.1032 12.3748 10.1719 12.5559 10.3819C12.9472 10.8362 13.3067 11.3136 13.5977 11.8401C13.7767 12.1639 13.7276 12.5598 13.4031 12.7802C13.3243 12.8337 13.2524 12.8967 13.179 12.9571C13.1146 13.0102 13.054 13.0637 13.0098 13.1355C12.9291 13.2668 12.9253 13.4218 12.9772 13.5646C13.3772 14.6638 14.0514 15.5187 15.158 15.9792C15.335 16.0529 15.5128 16.1386 15.7168 16.1149C16.0584 16.075 16.1691 15.7002 16.4085 15.5044C16.6424 15.3131 16.9415 15.3106 17.1935 15.4701C17.4456 15.6297 17.69 15.8009 17.9329 15.9741C18.1714 16.144 18.4087 16.3101 18.6287 16.5039C18.8402 16.6901 18.913 16.9345 18.7939 17.1872C18.5759 17.6501 18.2586 18.0352 17.8011 18.281C17.6719 18.3503 17.5175 18.3727 17.3719 18.4176C17.2043 18.3667 17.5175 18.3727 17.3719 18.4176Z" fill="white"/>
<path d="M15.0029 9.69318C17.0132 9.74954 18.6644 11.0837 19.0183 13.0712C19.0786 13.4098 19.1 13.756 19.1269 14.0998C19.1382 14.2443 19.0563 14.3817 18.9003 14.3836C18.7392 14.3855 18.6667 14.2507 18.6561 14.1062C18.6354 13.8202 18.6211 13.5328 18.5817 13.2492C18.3736 11.7516 17.1794 10.5126 15.6888 10.2468C15.4645 10.2068 15.235 10.1963 15.0077 10.1724C14.8641 10.1574 14.676 10.1487 14.6442 9.97009C14.6175 9.82038 14.7439 9.70121 14.8864 9.69353C14.925 9.69124 14.964 9.69306 15.0029 9.69318C17.0133 9.74954 14.964 9.69306 15.0029 9.69318Z" fill="white"/>
<path d="M18.06 13.6533C18.0567 13.6784 18.055 13.7374 18.0402 13.793C17.9869 13.9948 17.6808 14.02 17.6104 13.8164C17.5895 13.756 17.5864 13.6872 17.5863 13.6222C17.5856 13.1964 17.4931 12.7711 17.2783 12.4006C17.0576 12.0198 16.7203 11.6998 16.3249 11.506C16.0857 11.3889 15.8271 11.3161 15.565 11.2728C15.4504 11.2538 15.3346 11.2424 15.2195 11.2263C15.08 11.2069 15.0055 11.1181 15.0121 10.9806C15.0183 10.8518 15.1124 10.7591 15.2528 10.7671C15.7141 10.7932 16.1598 10.8931 16.57 11.1102C17.404 11.5519 17.8805 12.2491 18.0196 13.1801C18.0259 13.2223 18.036 13.2641 18.0392 13.3064C18.0471 13.4108 18.052 13.5154 18.06 13.6533C18.0567 13.6783 18.052 13.5154 18.06 13.6533Z" fill="white"/>
<path d="M16.8089 13.6049C16.6407 13.608 16.5507 13.5148 16.5333 13.3607C16.5213 13.2533 16.5117 13.1443 16.486 13.0396C16.4355 12.8335 16.326 12.6426 16.1527 12.5164C16.0709 12.4568 15.9781 12.4134 15.881 12.3852C15.7577 12.3496 15.6295 12.3594 15.5065 12.3293C15.3729 12.2965 15.2989 12.1883 15.3199 12.0629C15.3391 11.9488 15.45 11.8597 15.5748 11.8688C16.3542 11.9251 16.9112 12.328 16.9908 13.2456C16.9964 13.3103 17.003 13.3787 16.9886 13.4407C16.9639 13.5466 16.8854 13.5998 16.8089 13.6049C16.6407 13.6079 16.8854 13.5998 16.8089 13.6049Z" fill="white"/>
<path d="M17.3711 18.4178C17.5168 18.3729 17.2035 18.3669 17.3711 18.4178V18.4178Z" fill="white"/>
<path d="M15.0039 9.69336C15.0056 9.69336 15.0072 9.69354 15.0089 9.69354C15.1205 9.69752 16.935 9.7475 15.0039 9.69336Z" fill="white"/>
<path d="M18.0591 13.6538C18.0511 13.5158 18.0558 13.6788 18.0591 13.6538V13.6538Z" fill="white"/>
<path d="M16.8086 13.6053C16.8113 13.6052 16.8138 13.6038 16.8163 13.6035C16.8092 13.6035 16.7983 13.6037 16.7871 13.6041C16.7944 13.6043 16.801 13.6054 16.8086 13.6053Z" fill="white"/>
<path d="M16.8084 13.6047C16.8009 13.6049 16.7942 13.6038 16.7869 13.6035C16.7505 13.6045 16.713 13.6065 16.8084 13.6047Z" fill="white"/>
<path d="M16.8163 13.6035C16.8136 13.6038 16.8111 13.6052 16.8086 13.6053C16.8283 13.604 16.8266 13.6035 16.8163 13.6035Z" fill="white"/>
</svg>
