<svg width="30" height="30" viewBox="0 0 30 30" fill="none" xmlns="http://www.w3.org/2000/svg">
  <path d="M15 30C23.2843 30 30 23.2843 30 15C30 6.71573 23.2843 0 15 0C6.71573 0 0 6.71573 0 15C0 23.2843 6.71573 30 15 30Z" fill="#FF7875"/>
  <path d="M14.5803 6.35474C10.0082 6.57224 6.40033 10.3799 6.4141 14.9569C6.41832 16.351 6.75488 17.6669 7.34867 18.8297L6.43713 23.2544C6.38785 23.4938 6.60371 23.7034 6.84148 23.647L11.1771 22.6198C12.2911 23.1748 13.5422 23.4952 14.8663 23.5154C19.5393 23.5868 23.4357 19.8764 23.5815 15.2051C23.7375 10.1978 19.6049 6.11539 14.5803 6.35474ZM19.7537 19.6842C18.484 20.9538 16.7957 21.6532 15 21.6532C13.9486 21.6532 12.9418 21.4172 12.0078 20.952L11.4042 20.6512L8.74578 21.2809L9.30529 18.5647L9.00793 17.9821C8.52301 17.0326 8.27715 16.0059 8.27715 14.9303C8.27715 13.1346 8.97646 11.4464 10.2461 10.1766C11.5045 8.91816 13.2203 8.20765 15.0001 8.20765C16.7956 8.20765 18.4839 8.90697 19.7536 10.1766C21.0233 11.4463 21.7226 13.1346 21.7226 14.9302C21.7227 16.71 21.0121 18.4258 19.7537 19.6842Z" fill="white"/>
  <path d="M19.1675 16.7924L17.5044 16.3149C17.2859 16.2523 17.0503 16.3143 16.891 16.4766L16.4843 16.8909C16.3128 17.0657 16.0527 17.1218 15.8257 17.03C15.0389 16.7116 13.384 15.24 12.9616 14.5042C12.8394 14.2919 12.8597 14.0266 13.0094 13.8326L13.3644 13.3733C13.5035 13.1934 13.5328 12.9516 13.4409 12.7436L12.7412 11.1611C12.5736 10.7821 12.0893 10.6717 11.7728 10.9394C11.3087 11.332 10.758 11.9284 10.6911 12.5894C10.573 13.7546 11.0728 15.2234 12.9623 16.9871C15.1453 19.0249 16.8936 19.2939 18.032 19.0182C18.6777 18.862 19.1936 18.2351 19.5191 17.7218C19.7412 17.3716 19.5657 16.9068 19.1675 16.7924Z" fill="white"/>
</svg>
