<svg width="270" height="60" viewBox="0 0 270 60" fill="none" xmlns="http://www.w3.org/2000/svg">
<rect x="0.5" y="0.5" width="269" height="59" rx="4.5" fill="#75B73B" fill-opacity="0.1" stroke="#75B73B"/>
<path d="M138.274 26.2V32.094C138.274 33.4193 137.943 34.4227 137.28 35.104C136.627 35.776 135.689 36.112 134.466 36.112C133.747 36.112 133.113 35.986 132.562 35.734C132.021 35.4727 131.605 35.118 131.316 34.67C131.017 35.118 130.602 35.4727 130.07 35.734C129.538 35.986 128.908 36.112 128.18 36.112C126.957 36.112 126.019 35.776 125.366 35.104C124.713 34.4227 124.386 33.4193 124.386 32.094V26.2H125.786V32.052C125.786 33.928 126.584 34.866 128.18 34.866C128.955 34.866 129.557 34.6373 129.986 34.18C130.415 33.7227 130.63 33.0133 130.63 32.052V26.2H132.03V32.052C132.03 33.0133 132.24 33.7227 132.66 34.18C133.089 34.6373 133.691 34.866 134.466 34.866C136.071 34.866 136.874 33.928 136.874 32.052V26.2H138.274ZM144.902 28.51C145.845 28.51 146.591 28.7853 147.142 29.336C147.702 29.8773 147.982 30.6753 147.982 31.73V36H146.638V31.884C146.638 31.1653 146.465 30.624 146.12 30.26C145.775 29.896 145.28 29.714 144.636 29.714C143.908 29.714 143.334 29.9287 142.914 30.358C142.494 30.778 142.284 31.3847 142.284 32.178V36H140.94V25.612H142.284V29.63C142.564 29.2753 142.928 29 143.376 28.804C143.833 28.608 144.342 28.51 144.902 28.51ZM157.51 28.58V36H156.222V34.824C155.924 35.2347 155.546 35.5473 155.088 35.762C154.631 35.9767 154.127 36.084 153.576 36.084C152.858 36.084 152.214 35.9253 151.644 35.608C151.075 35.2907 150.627 34.8473 150.3 34.278C149.983 33.6993 149.824 33.0367 149.824 32.29C149.824 31.5433 149.983 30.8853 150.3 30.316C150.627 29.7467 151.075 29.3033 151.644 28.986C152.214 28.6687 152.858 28.51 153.576 28.51C154.108 28.51 154.598 28.6127 155.046 28.818C155.494 29.014 155.868 29.308 156.166 29.7V28.58H157.51ZM153.688 34.908C154.155 34.908 154.58 34.8007 154.962 34.586C155.345 34.362 155.644 34.054 155.858 33.662C156.073 33.2607 156.18 32.8033 156.18 32.29C156.18 31.7767 156.073 31.324 155.858 30.932C155.644 30.5307 155.345 30.2227 154.962 30.008C154.58 29.7933 154.155 29.686 153.688 29.686C153.212 29.686 152.783 29.7933 152.4 30.008C152.027 30.2227 151.728 30.5307 151.504 30.932C151.29 31.324 151.182 31.7767 151.182 32.29C151.182 32.8033 151.29 33.2607 151.504 33.662C151.728 34.054 152.027 34.362 152.4 34.586C152.783 34.8007 153.212 34.908 153.688 34.908ZM163.959 35.566C163.763 35.734 163.521 35.8647 163.231 35.958C162.942 36.042 162.643 36.084 162.335 36.084C161.589 36.084 161.01 35.8833 160.599 35.482C160.189 35.0807 159.983 34.5067 159.983 33.76V26.956H161.327V28.58H163.455V29.686H161.327V33.704C161.327 34.1053 161.425 34.4133 161.621 34.628C161.827 34.8427 162.116 34.95 162.489 34.95C162.9 34.95 163.25 34.8333 163.539 34.6L163.959 35.566ZM167.705 36.084C167.098 36.084 166.515 36.0047 165.955 35.846C165.395 35.678 164.956 35.468 164.639 35.216L165.199 34.152C165.525 34.3853 165.922 34.572 166.389 34.712C166.855 34.852 167.327 34.922 167.803 34.922C168.979 34.922 169.567 34.586 169.567 33.914C169.567 33.69 169.487 33.5127 169.329 33.382C169.17 33.2513 168.969 33.158 168.727 33.102C168.493 33.0367 168.157 32.9667 167.719 32.892C167.121 32.7987 166.631 32.6913 166.249 32.57C165.875 32.4487 165.553 32.2433 165.283 31.954C165.012 31.6647 164.877 31.2587 164.877 30.736C164.877 30.064 165.157 29.5273 165.717 29.126C166.277 28.7153 167.028 28.51 167.971 28.51C168.465 28.51 168.96 28.5707 169.455 28.692C169.949 28.8133 170.355 28.9767 170.673 29.182L170.099 30.246C169.492 29.854 168.778 29.658 167.957 29.658C167.387 29.658 166.953 29.7513 166.655 29.938C166.356 30.1247 166.207 30.372 166.207 30.68C166.207 30.9227 166.291 31.114 166.459 31.254C166.627 31.394 166.832 31.4967 167.075 31.562C167.327 31.6273 167.677 31.702 168.125 31.786C168.722 31.8887 169.203 32.0007 169.567 32.122C169.94 32.234 170.257 32.43 170.519 32.71C170.78 32.99 170.911 33.382 170.911 33.886C170.911 34.558 170.621 35.0947 170.043 35.496C169.473 35.888 168.694 36.084 167.705 36.084ZM176.902 26.088C178.209 26.088 179.24 26.4707 179.996 27.236C180.752 27.992 181.13 29.0793 181.13 30.498V36H179.73V33.298H174.074V36H172.702V30.498C172.702 29.0793 173.08 27.992 173.836 27.236C174.592 26.4707 175.614 26.088 176.902 26.088ZM179.73 32.08V30.372C179.73 29.3733 179.478 28.6173 178.974 28.104C178.48 27.5907 177.789 27.334 176.902 27.334C176.016 27.334 175.32 27.5907 174.816 28.104C174.322 28.6173 174.074 29.3733 174.074 30.372V32.08H179.73ZM187.722 28.51C188.44 28.51 189.084 28.6687 189.654 28.986C190.223 29.3033 190.666 29.7467 190.984 30.316C191.31 30.8853 191.474 31.5433 191.474 32.29C191.474 33.0367 191.31 33.6993 190.984 34.278C190.666 34.8473 190.223 35.2907 189.654 35.608C189.084 35.9253 188.44 36.084 187.722 36.084C187.19 36.084 186.7 35.9813 186.252 35.776C185.813 35.5707 185.44 35.272 185.132 34.88V38.716H183.788V28.58H185.076V29.756C185.374 29.3453 185.752 29.0373 186.21 28.832C186.667 28.6173 187.171 28.51 187.722 28.51ZM187.61 34.908C188.086 34.908 188.51 34.8007 188.884 34.586C189.266 34.362 189.565 34.054 189.78 33.662C190.004 33.2607 190.116 32.8033 190.116 32.29C190.116 31.7767 190.004 31.324 189.78 30.932C189.565 30.5307 189.266 30.2227 188.884 30.008C188.51 29.7933 188.086 29.686 187.61 29.686C187.143 29.686 186.718 29.798 186.336 30.022C185.962 30.2367 185.664 30.54 185.44 30.932C185.225 31.324 185.118 31.7767 185.118 32.29C185.118 32.8033 185.225 33.2607 185.44 33.662C185.654 34.054 185.953 34.362 186.336 34.586C186.718 34.8007 187.143 34.908 187.61 34.908ZM197.265 28.51C197.983 28.51 198.627 28.6687 199.197 28.986C199.766 29.3033 200.209 29.7467 200.527 30.316C200.853 30.8853 201.017 31.5433 201.017 32.29C201.017 33.0367 200.853 33.6993 200.527 34.278C200.209 34.8473 199.766 35.2907 199.197 35.608C198.627 35.9253 197.983 36.084 197.265 36.084C196.733 36.084 196.243 35.9813 195.795 35.776C195.356 35.5707 194.983 35.272 194.675 34.88V38.716H193.331V28.58H194.619V29.756C194.917 29.3453 195.295 29.0373 195.753 28.832C196.21 28.6173 196.714 28.51 197.265 28.51ZM197.153 34.908C197.629 34.908 198.053 34.8007 198.427 34.586C198.809 34.362 199.108 34.054 199.323 33.662C199.547 33.2607 199.659 32.8033 199.659 32.29C199.659 31.7767 199.547 31.324 199.323 30.932C199.108 30.5307 198.809 30.2227 198.427 30.008C198.053 29.7933 197.629 29.686 197.153 29.686C196.686 29.686 196.261 29.798 195.879 30.022C195.505 30.2367 195.207 30.54 194.983 30.932C194.768 31.324 194.661 31.7767 194.661 32.29C194.661 32.8033 194.768 33.2607 194.983 33.662C195.197 34.054 195.496 34.362 195.879 34.586C196.261 34.8007 196.686 34.908 197.153 34.908Z" fill="#75B73B"/>
<path d="M88 50C99.0457 50 108 41.0457 108 30C108 18.9543 99.0457 10 88 10C76.9543 10 68 18.9543 68 30C68 41.0457 76.9543 50 88 50Z" fill="#75B73B"/>
<path d="M87.44 18.4723C81.344 18.7623 76.5335 23.8392 76.5518 29.9419C76.5574 31.8007 77.0062 33.5552 77.7979 35.1056L76.5825 41.0052C76.5168 41.3244 76.8046 41.6038 77.1217 41.5287L82.9025 40.1591C84.3877 40.8991 86.056 41.3262 87.8214 41.3532C94.0521 41.4484 99.2473 36.5012 99.4417 30.2728C99.6497 23.5964 94.1395 18.1532 87.44 18.4723ZM94.3379 36.2449C92.645 37.9378 90.3939 38.8702 87.9996 38.8702C86.5977 38.8702 85.2554 38.5556 84.0101 37.9354L83.2052 37.5343L79.6607 38.3739L80.4067 34.7523L80.0102 33.9755C79.3637 32.7094 79.0359 31.3405 79.0359 29.9065C79.0359 27.5121 79.9683 25.2612 81.6612 23.5682C83.339 21.8902 85.6267 20.9429 87.9998 20.9429C90.3938 20.9429 92.6449 21.8753 94.3378 23.5682C96.0307 25.2611 96.9631 27.5122 96.9631 29.9062C96.9633 32.2794 96.0158 34.567 94.3379 36.2449Z" fill="white"/>
<path d="M93.5551 32.3892L91.3376 31.7525C91.0462 31.669 90.7322 31.7518 90.5197 31.9682L89.9774 32.5205C89.7488 32.7536 89.4019 32.8284 89.0993 32.706C88.0503 32.2814 85.8436 30.3194 85.2804 29.3383C85.1176 29.0552 85.1446 28.7014 85.3443 28.4429L85.8176 27.8304C86.003 27.5906 86.0421 27.2682 85.9195 26.9908L84.9866 24.8808C84.7632 24.3755 84.1174 24.2283 83.6954 24.5852C83.0766 25.1087 82.3423 25.9039 82.2532 26.7852C82.0958 28.3389 82.7622 30.2972 85.2815 32.6489C88.1922 35.3659 90.5232 35.7246 92.0411 35.357C92.9019 35.1486 93.5899 34.3128 94.0238 33.6284C94.32 33.1614 94.0859 32.5418 93.5551 32.3892Z" fill="white"/>
</svg>
