<svg width="30" height="30" viewBox="0 0 30 30" fill="none" xmlns="http://www.w3.org/2000/svg">
<g clip-path="url(#clip0)">
<path d="M15 30C23.2843 30 30 23.2843 30 15C30 6.71573 23.2843 0 15 0C6.71573 0 0 6.71573 0 15C0 23.2843 6.71573 30 15 30Z" fill="#FF4D4F"/>
<path d="M22.4835 7.82323C23.0815 7.58991 23.6997 8.11315 23.5684 8.7414L20.8866 21.5606C20.7613 22.1616 20.0552 22.4323 19.5603 22.0687L15.5118 19.097L13.4482 21.2041C13.0856 21.5738 12.4603 21.4233 12.3047 20.9303L10.8159 16.204L6.82494 15.0252C6.30071 14.8707 6.27041 14.1414 6.77848 13.9424L22.4835 7.82323ZM20.5148 10.6677C20.6896 10.5131 20.4865 10.2404 20.2886 10.3636L11.6744 15.706C11.5229 15.8 11.4532 15.9848 11.5067 16.1555L12.6814 21.3141C12.7047 21.3929 12.8178 21.3818 12.8279 21.3L13.0905 17.3687C13.1006 17.2717 13.1471 17.1828 13.2199 17.1182L20.5148 10.6677Z" fill="white"/>
<path d="M20.288 10.3641C20.4859 10.2409 20.689 10.5136 20.5142 10.6681L13.2193 17.1186C13.1466 17.1833 13.1002 17.2722 13.09 17.3691L12.8274 21.3004C12.8173 21.3822 12.7042 21.3933 12.6809 21.3145L11.5062 16.1559C11.4526 15.9853 11.5224 15.8004 11.6739 15.7065L20.288 10.3641Z" fill="#9EC2E5"/>
<path d="M12.7239 21.3676C12.534 21.2999 12.3734 21.1484 12.3047 20.9302L10.8159 16.2039L6.82494 15.0251C6.30071 14.8705 6.27041 14.1413 6.77848 13.9423L22.4835 7.82317C22.8693 7.67265 23.2643 7.83729 23.4592 8.14239C23.4229 8.08685 23.3794 8.03534 23.331 7.98987L12.6764 16.6878V17.0686L12.6178 17.0262L12.6764 19.4242V21.3474C12.6916 21.3545 12.7077 21.3606 12.7239 21.3656V21.3676H12.7239Z" fill="white"/>
<path d="M13.3934 21.2539C13.3753 21.2691 13.3571 21.2832 13.3379 21.2963V21.2953C13.3571 21.2822 13.3753 21.2691 13.3934 21.2539Z" fill="#DADDE0"/>
<path d="M13.3369 21.2949V21.2959C13.3369 21.2959 13.3369 21.2949 13.3359 21.2959C13.3359 21.2959 13.3359 21.2959 13.3369 21.2949Z" fill="#DADDE0"/>
<path d="M13.2188 21.3595C13.2602 21.3424 13.2996 21.3212 13.3379 21.2959C13.2996 21.3211 13.2591 21.3423 13.2188 21.3595Z" fill="#DADDE0"/>
<path d="M12.8887 21.4051C12.9776 21.4142 13.0674 21.4071 13.1553 21.3809C13.0917 21.4011 13.026 21.4102 12.9604 21.4102C12.9402 21.4102 12.92 21.4092 12.9008 21.4071C12.8968 21.4072 12.8927 21.4072 12.8887 21.4051Z" fill="#DADDE0"/>
<path d="M12.96 21.4103C12.9398 21.4103 12.9196 21.4093 12.9004 21.4072C12.9196 21.4093 12.9398 21.4103 12.96 21.4103Z" fill="white"/>
<path d="M12.8883 21.4055C12.8923 21.4075 12.8964 21.4075 12.9004 21.4075C12.8792 21.4065 12.86 21.4035 12.8398 21.3994C12.856 21.4025 12.8721 21.4045 12.8883 21.4055Z" fill="white"/>
<path d="M12.8909 21.4056C12.8748 21.4046 12.8586 21.4025 12.8425 21.3996C12.8354 21.3986 12.8284 21.3976 12.8223 21.3955C12.8445 21.3996 12.8677 21.4036 12.8909 21.4056Z" fill="#DADDE0"/>
<path d="M12.7461 21.374C12.7683 21.3811 12.7906 21.3871 12.8128 21.3932C12.8037 21.3912 12.7946 21.3892 12.7855 21.3872C12.7815 21.3862 12.7774 21.3852 12.7744 21.3832C12.7653 21.3811 12.7552 21.3781 12.7461 21.374Z" fill="#DADDE0"/>
<path d="M12.7852 21.3877C12.7942 21.3897 12.8033 21.3917 12.8124 21.3937C12.8033 21.3927 12.7942 21.3907 12.7852 21.3877Z" fill="white"/>
<path d="M12.7457 21.3742C12.7548 21.3782 12.7649 21.3813 12.774 21.3833C12.7588 21.3802 12.7437 21.3752 12.7285 21.3691C12.7346 21.3711 12.7396 21.3732 12.7457 21.3742Z" fill="white"/>
<path d="M12.7439 21.3742C12.7378 21.3732 12.7327 21.3712 12.7267 21.3692C12.7257 21.3702 12.7237 21.3692 12.7227 21.3682V21.3662C12.7297 21.3702 12.7368 21.3722 12.7439 21.3742Z" fill="#DADDE0"/>
<path d="M12.6758 19.4248L12.7232 21.3662C12.7071 21.3612 12.6909 21.3551 12.6758 21.348V19.4248Z" fill="#D1D1D1"/>
<path d="M12.6758 17.0688V19.4244L12.6172 17.0264L12.6758 17.0688Z" fill="#DADDE0"/>
<path d="M20.5143 10.6681L13.2193 17.1186C13.1466 17.1833 13.1002 17.2721 13.09 17.3691L12.8279 21.3008C12.8178 21.3826 12.7047 21.3937 12.6804 21.3149L11.5062 16.156C11.4526 15.9853 11.5224 15.8004 11.6739 15.7065L20.288 10.3641C20.486 10.2408 20.6891 10.5136 20.5143 10.6681Z" fill="#F0908A"/>
</g>
<defs>
<clipPath id="clip0">
<rect width="30" height="30" fill="white"/>
</clipPath>
</defs>
</svg>
