<?xml version="1.0" encoding="UTF-8" standalone="no"?>
<svg
   xmlns:dc="http://purl.org/dc/elements/1.1/"
   xmlns:cc="http://creativecommons.org/ns#"
   xmlns:rdf="http://www.w3.org/1999/02/22-rdf-syntax-ns#"
   xmlns:svg="http://www.w3.org/2000/svg"
   xmlns="http://www.w3.org/2000/svg"
   xmlns:sodipodi="http://sodipodi.sourceforge.net/DTD/sodipodi-0.dtd"
   xmlns:inkscape="http://www.inkscape.org/namespaces/inkscape"
   width="18"
   height="18"
   viewBox="0 0 18 18"
   fill="none"
   version="1.1"
   id="svg6478"
   sodipodi:docname="social-instagram-btn.svg"
   inkscape:version="0.92.3 (2405546, 2018-03-11)">
  <metadata
     id="metadata6484">
    <rdf:RDF>
      <cc:Work
         rdf:about="">
        <dc:format>image/svg+xml</dc:format>
        <dc:type
           rdf:resource="http://purl.org/dc/dcmitype/StillImage" />
      </cc:Work>
    </rdf:RDF>
  </metadata>
  <defs
     id="defs6482" />
  <sodipodi:namedview
     pagecolor="#ffffff"
     bordercolor="#666666"
     borderopacity="1"
     objecttolerance="10"
     gridtolerance="10"
     guidetolerance="10"
     inkscape:pageopacity="0"
     inkscape:pageshadow="2"
     inkscape:window-width="1920"
     inkscape:window-height="1011"
     id="namedview6480"
     showgrid="false"
     inkscape:zoom="22.722222"
     inkscape:cx="2.1928422"
     inkscape:cy="7.3871458"
     inkscape:window-x="-9"
     inkscape:window-y="-9"
     inkscape:window-maximized="1"
     inkscape:current-layer="svg6478" />
  <path
     d="M 12.4703,0.41412903 H 5.5295702 c -2.8206999,0 -5.11546995,2.29476207 -5.11546995,5.11547207 v 6.9406699 c 0,2.8206 2.29477005,5.1156 5.11552995,5.1156 H 12.4703 c 2.8206,0 5.1156,-2.2949 5.1156,-5.1156 V 5.5296011 C 17.5858,2.7088911 15.291,0.41412903 12.4703,0.41412903 Z M 15.8584,12.470371 c 0,1.8711 -1.5169,3.388 -3.3881,3.388 H 5.5296302 c -1.87114,0 -3.38801,-1.5169 -3.38801,-3.388 V 5.5296511 c 0,-1.87113 1.51687,-3.38806 3.38801,-3.38806 H 12.4703 c 1.8712,0 3.3881,1.51699 3.3881,3.38806 z"
     id="path6474"
     style="fill:#ffffff"
     inkscape:connector-curvature="0" />
  <path
     d="m 9.0001053,4.5587951 c -2.44887,0 -4.4412901,1.99242 -4.4412901,4.44129 0,2.4487199 1.99242,4.4411199 4.4412901,4.4411199 2.4488797,0 4.4410797,-1.9923 4.4410797,-4.4411199 0,-2.44887 -1.9922,-4.44129 -4.4410797,-4.44129 z m 0,7.1549099 c -1.4987701,0 -2.7138301,-1.2148 -2.7138301,-2.7136199 0,-1.49883 1.2150601,-2.71383 2.7138301,-2.71383 1.4987797,0 2.7136797,1.21494 2.7136797,2.71383 0,1.4987199 -1.2149,2.7136199 -2.7136797,2.7136199 z"
     id="path6476"
     style="fill:#ffffff"
     inkscape:connector-curvature="0" />
</svg>
