<?xml version="1.0" encoding="UTF-8" standalone="no"?>
<svg
   xmlns:dc="http://purl.org/dc/elements/1.1/"
   xmlns:cc="http://creativecommons.org/ns#"
   xmlns:rdf="http://www.w3.org/1999/02/22-rdf-syntax-ns#"
   xmlns:svg="http://www.w3.org/2000/svg"
   xmlns="http://www.w3.org/2000/svg"
   xmlns:sodipodi="http://sodipodi.sourceforge.net/DTD/sodipodi-0.dtd"
   xmlns:inkscape="http://www.inkscape.org/namespaces/inkscape"
   width="270"
   height="60"
   viewBox="0 0 270 60"
   fill="none"
   version="1.1"
   id="svg6798"
   sodipodi:docname="social-viber-xbtn-hover.svg"
   inkscape:version="0.92.3 (2405546, 2018-03-11)">
  <metadata
     id="metadata6804">
    <rdf:RDF>
      <cc:Work
         rdf:about="">
        <dc:format>image/svg+xml</dc:format>
        <dc:type
           rdf:resource="http://purl.org/dc/dcmitype/StillImage" />
        <dc:title></dc:title>
      </cc:Work>
    </rdf:RDF>
  </metadata>
  <defs
     id="defs6802" />
  <sodipodi:namedview
     pagecolor="#ffffff"
     bordercolor="#666666"
     borderopacity="1"
     objecttolerance="10"
     gridtolerance="10"
     guidetolerance="10"
     inkscape:pageopacity="0"
     inkscape:pageshadow="2"
     inkscape:window-width="640"
     inkscape:window-height="480"
     id="namedview6800"
     showgrid="false"
     inkscape:zoom="1.7481481"
     inkscape:cx="135"
     inkscape:cy="30"
     inkscape:window-x="0"
     inkscape:window-y="0"
     inkscape:window-maximized="0"
     inkscape:current-layer="svg6798" />
  <rect
     x="0.5"
     y="0.5"
     width="269"
     height="59"
     rx="4.5"
     fill="#6F3FAA"
     fill-opacity="0.1"
     stroke="#6F3FAA"
     id="rect6770" />
  <path
     d="m 132.982,22.2 -4.298,9.8 h -1.386 l -4.312,-9.8 h 1.512 l 3.528,8.05 3.556,-8.05 z m 1.067,2.38 h 1.344 V 32 h -1.344 z m 0.672,-1.428 c -0.261,0 -0.48,-0.084 -0.658,-0.252 -0.168,-0.168 -0.252,-0.3733 -0.252,-0.616 0,-0.2427 0.084,-0.448 0.252,-0.616 0.178,-0.1773 0.397,-0.266 0.658,-0.266 0.262,0 0.476,0.084 0.644,0.252 0.178,0.1587 0.266,0.3593 0.266,0.602 0,0.252 -0.088,0.4667 -0.266,0.644 -0.168,0.168 -0.382,0.252 -0.644,0.252 z m 7.173,1.358 c 0.718,0 1.362,0.1587 1.932,0.476 0.569,0.3173 1.012,0.7607 1.33,1.33 0.326,0.5693 0.49,1.2273 0.49,1.974 0,0.7467 -0.164,1.4093 -0.49,1.988 -0.318,0.5693 -0.761,1.0127 -1.33,1.33 -0.57,0.3173 -1.214,0.476 -1.932,0.476 -0.551,0 -1.055,-0.1073 -1.512,-0.322 -0.458,-0.2147 -0.836,-0.5273 -1.134,-0.938 V 32 H 137.96 V 21.612 h 1.344 V 25.7 c 0.298,-0.392 0.672,-0.686 1.12,-0.882 0.448,-0.2053 0.938,-0.308 1.47,-0.308 z m -0.112,6.398 c 0.476,0 0.9,-0.1073 1.274,-0.322 0.382,-0.224 0.681,-0.532 0.896,-0.924 0.224,-0.4013 0.336,-0.8587 0.336,-1.372 0,-0.5133 -0.112,-0.966 -0.336,-1.358 -0.215,-0.4013 -0.514,-0.7093 -0.896,-0.924 -0.374,-0.2147 -0.798,-0.322 -1.274,-0.322 -0.467,0 -0.892,0.1073 -1.274,0.322 -0.383,0.2147 -0.682,0.5227 -0.896,0.924 -0.215,0.392 -0.322,0.8447 -0.322,1.358 0,0.5133 0.107,0.9707 0.322,1.372 0.214,0.392 0.513,0.7 0.896,0.924 0.382,0.2147 0.807,0.322 1.274,0.322 z m 9.067,0 c 0.886,0 1.6,-0.2987 2.142,-0.896 l 0.728,0.868 c -0.327,0.392 -0.742,0.6907 -1.246,0.896 -0.495,0.2053 -1.05,0.308 -1.666,0.308 -0.784,0 -1.48,-0.1587 -2.086,-0.476 -0.607,-0.3267 -1.078,-0.7793 -1.414,-1.358 -0.327,-0.5787 -0.49,-1.232 -0.49,-1.96 0,-0.7187 0.158,-1.3673 0.476,-1.946 0.326,-0.5787 0.77,-1.0267 1.33,-1.344 0.569,-0.3267 1.208,-0.49 1.918,-0.49 0.672,0 1.283,0.154 1.834,0.462 0.55,0.2987 0.989,0.7233 1.316,1.274 0.326,0.5507 0.494,1.1853 0.504,1.904 l -5.894,1.148 c 0.186,0.5133 0.499,0.91 0.938,1.19 0.448,0.28 0.984,0.42 1.61,0.42 z m -0.308,-5.264 c -0.467,0 -0.887,0.1073 -1.26,0.322 -0.364,0.2147 -0.649,0.518 -0.854,0.91 -0.206,0.3827 -0.308,0.8307 -0.308,1.344 v 0.14 l 4.746,-0.896 c -0.122,-0.5413 -0.392,-0.98 -0.812,-1.316 -0.42,-0.336 -0.924,-0.504 -1.512,-0.504 z m 6.822,0.182 c 0.233,-0.4293 0.578,-0.756 1.036,-0.98 0.457,-0.224 1.012,-0.336 1.666,-0.336 v 1.302 c -0.075,-0.0093 -0.178,-0.014 -0.308,-0.014 -0.728,0 -1.302,0.2193 -1.722,0.658 -0.411,0.4293 -0.616,1.0453 -0.616,1.848 V 32 h -1.344 v -7.42 h 1.288 z"
     id="path6772"
     inkscape:connector-curvature="0"
     style="fill:#6f3faa" />
  <path
     d="M 88,46 C 99.0457,46 108,37.0457 108,26 108,14.9543 99.0457,6 88,6 76.9543,6 68,14.9543 68,26 c 0,11.0457 8.9543,20 20,20 z"
     id="path6774"
     inkscape:connector-curvature="0"
     style="fill:#6f3faa" />
  <path
     d="m 98.5805,20.0561 -0.0066,-0.0264 c -0.5343,-2.1604 -2.9435,-4.4785 -5.156,-4.9608 l -0.025,-0.0051 c -3.5786,-0.6827 -7.2071,-0.6827 -10.7849,0 l -0.0257,0.0051 c -2.2117,0.4823 -4.621,2.8006 -5.1561,4.9608 l -0.0059,0.0264 c -0.6607,3.0169 -0.6607,6.0766 0,9.0936 l 0.0059,0.0264 c 0.5124,2.0681 2.7421,4.2798 4.872,4.888 v 2.4116 c 0,0.8729 1.0637,1.3016 1.6686,0.6716 l 2.4433,-2.5397 c 0.53,0.0296 1.0603,0.0461 1.5903,0.0461 1.8014,0 3.6035,-0.1703 5.3925,-0.5116 l 0.0249,-0.0051 c 2.2125,-0.4823 4.6217,-2.8006 5.1561,-4.9608 l 0.0065,-0.0264 c 0.6607,-3.0171 0.6607,-6.0766 1e-4,-9.0937 z m -1.9337,8.6562 c -0.3568,1.4094 -2.186,3.1616 -3.6394,3.4854 -1.9028,0.3618 -3.8206,0.5164 -5.7366,0.4634 -0.0381,-0.0011 -0.0747,0.0137 -0.1012,0.0411 -0.272,0.2791 -1.784,1.8314 -1.784,1.8314 l -1.8975,1.9475 c -0.1388,0.1447 -0.3825,0.0462 -0.3825,-0.1534 v -3.995 c 0,-0.0661 -0.0471,-0.1221 -0.112,-0.1349 -4e-4,-1e-4 -7e-4,-1e-4 -0.0011,-2e-4 -1.4534,-0.3238 -3.282,-2.076 -3.6394,-3.4854 -0.5946,-2.727 -0.5946,-5.4916 0,-8.2186 0.3574,-1.4095 2.186,-3.1616 3.6394,-3.4854 3.3232,-0.632 6.6925,-0.632 10.015,0 1.4541,0.3238 3.2826,2.0759 3.6394,3.4854 0.5952,2.7271 0.5952,5.4916 -1e-4,8.2187 z"
     id="path6776"
     inkscape:connector-curvature="0"
     style="fill:#ffffff" />
  <path
     d="M 91.1615,30.5565 C 90.9381,30.4886 90.7252,30.443 90.5273,30.3611 88.478,29.5108 86.5921,28.414 85.0982,26.7326 c -0.8495,-0.956 -1.5144,-2.0355 -2.0764,-3.1778 -0.2666,-0.5418 -0.4912,-1.1047 -0.7202,-1.664 -0.2087,-0.51 0.0987,-1.0369 0.4225,-1.4213 0.3038,-0.3607 0.6948,-0.6366 1.1183,-0.8401 0.3305,-0.1588 0.6564,-0.0672 0.8978,0.2129 0.5217,0.6056 1.0011,1.2421 1.3891,1.9442 0.2386,0.4318 0.1732,0.9596 -0.2594,1.2534 -0.1052,0.0714 -0.201,0.1553 -0.2988,0.2359 -0.086,0.0708 -0.1668,0.1422 -0.2257,0.2379 -0.1075,0.175 -0.1127,0.3817 -0.0435,0.5721 0.5334,1.4657 1.4324,2.6055 2.9077,3.2195 0.2361,0.0982 0.4732,0.2125 0.7452,0.1809 0.4555,-0.0532 0.603,-0.5529 0.9222,-0.8139 0.3119,-0.2551 0.7107,-0.2585 1.0467,-0.0458 0.3362,0.2128 0.662,0.4411 0.9859,0.6719 0.3179,0.2266 0.6344,0.4481 0.9276,0.7064 0.2821,0.2484 0.3792,0.5742 0.2203,0.9111 -0.2906,0.6173 -0.7136,1.1307 -1.3237,1.4585 -0.1723,0.0923 -0.3781,0.1222 -0.5723,0.1821 -0.2234,-0.0679 0.1942,-0.0599 0,0 z"
     id="path6778"
     inkscape:connector-curvature="0"
     style="fill:#ffffff" />
  <path
     d="m 88.0055,18.9229 c 2.6804,0.0752 4.8821,1.854 5.3539,4.504 0.0803,0.4516 0.1089,0.9132 0.1447,1.3715 0.0151,0.1927 -0.0941,0.3759 -0.3021,0.3784 -0.2148,0.0026 -0.3115,-0.1772 -0.3255,-0.3698 -0.0276,-0.3814 -0.0468,-0.7646 -0.0993,-1.1427 -0.2775,-1.9968 -1.8696,-3.6488 -3.8572,-4.0032 -0.2991,-0.0534 -0.605,-0.0674 -0.9081,-0.0992 -0.1915,-0.0201 -0.4422,-0.0316 -0.4847,-0.2697 -0.0355,-0.1997 0.1329,-0.3586 0.323,-0.3688 0.0515,-0.003 0.1034,-6e-4 0.1553,-5e-4 2.6806,0.0752 -0.0519,-10e-5 0,0 z"
     id="path6780"
     inkscape:connector-curvature="0"
     style="fill:#ffffff" />
  <path
     d="m 92.079,24.2044 c -0.0044,0.0335 -0.0067,0.1122 -0.0264,0.1862 -0.0711,0.2691 -0.4792,0.3028 -0.573,0.0313 -0.0279,-0.0806 -0.0321,-0.1723 -0.0322,-0.259 -9e-4,-0.5676 -0.1243,-1.1348 -0.4106,-1.6288 -0.2943,-0.5078 -0.744,-0.9344 -1.2713,-1.1928 -0.3189,-0.156 -0.6637,-0.2532 -1.0132,-0.3109 -0.1527,-0.0253 -0.3071,-0.0405 -0.4606,-0.0619 -0.186,-0.0259 -0.2854,-0.1444 -0.2765,-0.3277 0.0082,-0.1717 0.1337,-0.2954 0.3209,-0.2847 0.6151,0.0349 1.2093,0.168 1.7563,0.4575 1.112,0.589 1.7473,1.5185 1.9328,2.7599 0.0084,0.0563 0.0218,0.1119 0.0261,0.1683 0.0105,0.1392 0.0171,0.2787 0.0277,0.4626 -0.0044,0.0334 -0.0106,-0.1839 0,0 z"
     id="path6782"
     inkscape:connector-curvature="0"
     style="fill:#ffffff" />
  <path
     d="m 90.4118,24.1399 c -0.2242,0.0041 -0.3442,-0.1201 -0.3674,-0.3256 -0.016,-0.1433 -0.0288,-0.2886 -0.063,-0.4281 -0.0674,-0.2748 -0.2134,-0.5293 -0.4445,-0.6977 -0.109,-0.0794 -0.2327,-0.1373 -0.3622,-0.1748 -0.1644,-0.0476 -0.3354,-0.0345 -0.4994,-0.0746 -0.1782,-0.0437 -0.2767,-0.1881 -0.2487,-0.3552 0.0255,-0.1522 0.1734,-0.2709 0.3398,-0.2588 1.0392,0.075 1.7819,0.6122 1.8879,1.8357 0.0076,0.0863 0.0164,0.1775 -0.0028,0.2602 -0.0329,0.1412 -0.1376,0.212 -0.2397,0.2189 -0.2243,0.004 0.1021,-0.0069 0,0 z"
     id="path6784"
     inkscape:connector-curvature="0"
     style="fill:#ffffff" />
  <path
     d="m 91.1615,30.5567 c 0.1942,-0.0598 -0.2235,-0.0679 0,0 z"
     id="path6786"
     inkscape:connector-curvature="0"
     style="fill:#ffffff" />
  <path
     d="m 88.0059,18.9238 c 0.0022,0 0.0044,3e-4 0.0067,3e-4 0.1487,0.0053 2.5681,0.0719 -0.0067,-3e-4 z"
     id="path6788"
     inkscape:connector-curvature="0"
     style="fill:#ffffff" />
  <path
     d="m 92.0791,24.2047 c -0.0106,-0.1839 -0.0044,0.0334 0,0 z"
     id="path6790"
     inkscape:connector-curvature="0"
     style="fill:#ffffff" />
  <path
     d="m 90.4115,24.1401 c 0.0035,-2e-4 0.0069,-0.002 0.0102,-0.0024 -0.0094,0 -0.024,2e-4 -0.0389,8e-4 0.0097,2e-4 0.0185,0.0017 0.0287,0.0016 z"
     id="path6792"
     inkscape:connector-curvature="0"
     style="fill:#ffffff" />
  <path
     d="m 90.4116,24.1403 c -0.0101,2e-4 -0.019,-0.0013 -0.0287,-0.0016 -0.0485,0.0013 -0.0986,0.0039 0.0287,0.0016 z"
     id="path6794"
     inkscape:connector-curvature="0"
     style="fill:#ffffff" />
  <path
     d="m 90.4214,24.1377 c -0.0036,4e-4 -0.0069,0.0022 -0.0103,0.0024 0.0263,-0.0018 0.024,-0.0024 0.0103,-0.0024 z"
     id="path6796"
     inkscape:connector-curvature="0"
     style="fill:#ffffff" />
</svg>
