<svg width="270" height="60" viewBox="0 0 270 60" fill="none" xmlns="http://www.w3.org/2000/svg">
<rect x="0.5" y="0.5" width="269" height="59" rx="4.5" fill="#6F3FAA" fill-opacity="0.1" stroke="#6F3FAA"/>
<path d="M132.982 26.2L128.684 36H127.298L122.986 26.2H124.498L128.026 34.25L131.582 26.2H132.982ZM134.049 28.58H135.393V36H134.049V28.58ZM134.721 27.152C134.46 27.152 134.241 27.068 134.063 26.9C133.895 26.732 133.811 26.5267 133.811 26.284C133.811 26.0413 133.895 25.836 134.063 25.668C134.241 25.4907 134.46 25.402 134.721 25.402C134.983 25.402 135.197 25.486 135.365 25.654C135.543 25.8127 135.631 26.0133 135.631 26.256C135.631 26.508 135.543 26.7227 135.365 26.9C135.197 27.068 134.983 27.152 134.721 27.152ZM141.894 28.51C142.612 28.51 143.256 28.6687 143.826 28.986C144.395 29.3033 144.838 29.7467 145.156 30.316C145.482 30.8853 145.646 31.5433 145.646 32.29C145.646 33.0367 145.482 33.6993 145.156 34.278C144.838 34.8473 144.395 35.2907 143.826 35.608C143.256 35.9253 142.612 36.084 141.894 36.084C141.343 36.084 140.839 35.9767 140.382 35.762C139.924 35.5473 139.546 35.2347 139.248 34.824V36H137.96V25.612H139.304V29.7C139.602 29.308 139.976 29.014 140.424 28.818C140.872 28.6127 141.362 28.51 141.894 28.51ZM141.782 34.908C142.258 34.908 142.682 34.8007 143.056 34.586C143.438 34.362 143.737 34.054 143.952 33.662C144.176 33.2607 144.288 32.8033 144.288 32.29C144.288 31.7767 144.176 31.324 143.952 30.932C143.737 30.5307 143.438 30.2227 143.056 30.008C142.682 29.7933 142.258 29.686 141.782 29.686C141.315 29.686 140.89 29.7933 140.508 30.008C140.125 30.2227 139.826 30.5307 139.612 30.932C139.397 31.324 139.29 31.7767 139.29 32.29C139.29 32.8033 139.397 33.2607 139.612 33.662C139.826 34.054 140.125 34.362 140.508 34.586C140.89 34.8007 141.315 34.908 141.782 34.908ZM150.849 34.908C151.735 34.908 152.449 34.6093 152.991 34.012L153.719 34.88C153.392 35.272 152.977 35.5707 152.473 35.776C151.978 35.9813 151.423 36.084 150.807 36.084C150.023 36.084 149.327 35.9253 148.721 35.608C148.114 35.2813 147.643 34.8287 147.307 34.25C146.98 33.6713 146.817 33.018 146.817 32.29C146.817 31.5713 146.975 30.9227 147.293 30.344C147.619 29.7653 148.063 29.3173 148.623 29C149.192 28.6733 149.831 28.51 150.541 28.51C151.213 28.51 151.824 28.664 152.375 28.972C152.925 29.2707 153.364 29.6953 153.691 30.246C154.017 30.7967 154.185 31.4313 154.195 32.15L148.301 33.298C148.487 33.8113 148.8 34.208 149.239 34.488C149.687 34.768 150.223 34.908 150.849 34.908ZM150.541 29.644C150.074 29.644 149.654 29.7513 149.281 29.966C148.917 30.1807 148.632 30.484 148.427 30.876C148.221 31.2587 148.119 31.7067 148.119 32.22V32.36L152.865 31.464C152.743 30.9227 152.473 30.484 152.053 30.148C151.633 29.812 151.129 29.644 150.541 29.644ZM157.363 29.826C157.596 29.3967 157.941 29.07 158.399 28.846C158.856 28.622 159.411 28.51 160.065 28.51V29.812C159.99 29.8027 159.887 29.798 159.757 29.798C159.029 29.798 158.455 30.0173 158.035 30.456C157.624 30.8853 157.419 31.5013 157.419 32.304V36H156.075V28.58H157.363V29.826Z" fill="#6F3FAA"/>
<path d="M88 50C99.0457 50 108 41.0457 108 30C108 18.9543 99.0457 10 88 10C76.9543 10 68 18.9543 68 30C68 41.0457 76.9543 50 88 50Z" fill="#6F3FAA"/>
<path d="M98.5805 24.0561L98.5739 24.0297C98.0396 21.8693 95.6304 19.5512 93.4179 19.0689L93.3929 19.0638C89.8143 18.3811 86.1858 18.3811 82.608 19.0638L82.5823 19.0689C80.3706 19.5512 77.9613 21.8695 77.4262 24.0297L77.4203 24.0561C76.7596 27.073 76.7596 30.1327 77.4203 33.1497L77.4262 33.1761C77.9386 35.2442 80.1683 37.4559 82.2982 38.0641V40.4757C82.2982 41.3486 83.3619 41.7773 83.9668 41.1473L86.4101 38.6076C86.9401 38.6372 87.4704 38.6537 88.0004 38.6537C89.8018 38.6537 91.6039 38.4834 93.3929 38.1421L93.4178 38.137C95.6303 37.6547 98.0395 35.3364 98.5739 33.1762L98.5804 33.1498C99.2411 30.1327 99.2411 27.0732 98.5805 24.0561ZM96.6468 32.7123C96.29 34.1217 94.4608 35.8739 93.0074 36.1977C91.1046 36.5595 89.1868 36.7141 87.2708 36.6611C87.2327 36.66 87.1961 36.6748 87.1696 36.7022C86.8976 36.9813 85.3856 38.5336 85.3856 38.5336L83.4881 40.4811C83.3493 40.6258 83.1056 40.5273 83.1056 40.3277V36.3327C83.1056 36.2666 83.0585 36.2106 82.9936 36.1978C82.9932 36.1977 82.9929 36.1977 82.9925 36.1976C81.5391 35.8738 79.7105 34.1216 79.3531 32.7122C78.7585 29.9852 78.7585 27.2206 79.3531 24.4936C79.7105 23.0841 81.5391 21.332 82.9925 21.0082C86.3157 20.3762 89.685 20.3762 93.0075 21.0082C94.4616 21.332 96.2901 23.0841 96.6469 24.4936C97.2421 27.2207 97.2421 29.9852 96.6468 32.7123Z" fill="white"/>
<path d="M91.1615 34.5565C90.9381 34.4886 90.7252 34.443 90.5273 34.3611C88.478 33.5108 86.5921 32.414 85.0982 30.7326C84.2487 29.7766 83.5838 28.6971 83.0218 27.5548C82.7552 27.013 82.5306 26.4501 82.3016 25.8908C82.0929 25.3808 82.4003 24.8539 82.7241 24.4695C83.0279 24.1088 83.4189 23.8329 83.8424 23.6294C84.1729 23.4706 84.4988 23.5622 84.7402 23.8423C85.2619 24.4479 85.7413 25.0844 86.1293 25.7865C86.3679 26.2183 86.3025 26.7461 85.8699 27.0399C85.7647 27.1113 85.6689 27.1952 85.5711 27.2758C85.4851 27.3466 85.4043 27.418 85.3454 27.5137C85.2379 27.6887 85.2327 27.8954 85.3019 28.0858C85.8353 29.5515 86.7343 30.6913 88.2096 31.3053C88.4457 31.4035 88.6828 31.5178 88.9548 31.4862C89.4103 31.433 89.5578 30.9333 89.877 30.6723C90.1889 30.4172 90.5877 30.4138 90.9237 30.6265C91.2599 30.8393 91.5857 31.0676 91.9096 31.2984C92.2275 31.525 92.544 31.7465 92.8372 32.0048C93.1193 32.2532 93.2164 32.579 93.0575 32.9159C92.7669 33.5332 92.3439 34.0466 91.7338 34.3744C91.5615 34.4667 91.3557 34.4966 91.1615 34.5565C90.9381 34.4886 91.3557 34.4966 91.1615 34.5565Z" fill="white"/>
<path d="M88.0055 22.9229C90.6859 22.9981 92.8876 24.7769 93.3594 27.4269C93.4397 27.8785 93.4683 28.3401 93.5041 28.7984C93.5192 28.9911 93.41 29.1743 93.202 29.1768C92.9872 29.1794 92.8905 28.9996 92.8765 28.807C92.8489 28.4256 92.8297 28.0424 92.7772 27.6643C92.4997 25.6675 90.9076 24.0155 88.92 23.6611C88.6209 23.6077 88.315 23.5937 88.0119 23.5619C87.8204 23.5418 87.5697 23.5303 87.5272 23.2922C87.4917 23.0925 87.6601 22.9336 87.8502 22.9234C87.9017 22.9204 87.9536 22.9228 88.0055 22.9229C90.6861 22.9981 87.9536 22.9228 88.0055 22.9229Z" fill="white"/>
<path d="M92.079 28.2044C92.0746 28.2379 92.0723 28.3166 92.0526 28.3906C91.9815 28.6597 91.5734 28.6934 91.4796 28.4219C91.4517 28.3413 91.4475 28.2496 91.4474 28.1629C91.4465 27.5953 91.3231 27.0281 91.0368 26.5341C90.7425 26.0263 90.2928 25.5997 89.7655 25.3413C89.4466 25.1853 89.1018 25.0881 88.7523 25.0304C88.5996 25.0051 88.4452 24.9899 88.2917 24.9685C88.1057 24.9426 88.0063 24.8241 88.0152 24.6408C88.0234 24.4691 88.1489 24.3454 88.3361 24.3561C88.9512 24.391 89.5454 24.5241 90.0924 24.8136C91.2044 25.4026 91.8397 26.3321 92.0252 27.5735C92.0336 27.6298 92.047 27.6854 92.0513 27.7418C92.0618 27.881 92.0684 28.0205 92.079 28.2044C92.0746 28.2378 92.0684 28.0205 92.079 28.2044Z" fill="white"/>
<path d="M90.4118 28.1399C90.1876 28.144 90.0676 28.0198 90.0444 27.8143C90.0284 27.671 90.0156 27.5257 89.9814 27.3862C89.914 27.1114 89.768 26.8569 89.5369 26.6885C89.4279 26.6091 89.3042 26.5512 89.1747 26.5137C89.0103 26.4661 88.8393 26.4792 88.6753 26.4391C88.4971 26.3954 88.3986 26.251 88.4266 26.0839C88.4521 25.9317 88.6 25.813 88.7664 25.8251C89.8056 25.9001 90.5483 26.4373 90.6543 27.6608C90.6619 27.7471 90.6707 27.8383 90.6515 27.921C90.6186 28.0622 90.5139 28.133 90.4118 28.1399C90.1875 28.1439 90.5139 28.133 90.4118 28.1399Z" fill="white"/>
<path d="M91.1615 34.5567C91.3557 34.4969 90.938 34.4888 91.1615 34.5567V34.5567Z" fill="white"/>
<path d="M88.0059 22.9238C88.0081 22.9238 88.0103 22.9241 88.0126 22.9241C88.1613 22.9294 90.5807 22.996 88.0059 22.9238Z" fill="white"/>
<path d="M92.0791 28.2047C92.0685 28.0208 92.0747 28.2381 92.0791 28.2047V28.2047Z" fill="white"/>
<path d="M90.4115 28.1401C90.415 28.1399 90.4184 28.1381 90.4217 28.1377C90.4123 28.1377 90.3977 28.1379 90.3828 28.1385C90.3925 28.1387 90.4013 28.1402 90.4115 28.1401Z" fill="white"/>
<path d="M90.4116 28.1403C90.4015 28.1405 90.3926 28.139 90.3829 28.1387C90.3344 28.14 90.2843 28.1426 90.4116 28.1403Z" fill="white"/>
<path d="M90.4214 28.1377C90.4178 28.1381 90.4145 28.1399 90.4111 28.1401C90.4374 28.1383 90.4351 28.1377 90.4214 28.1377Z" fill="white"/>
</svg>
