<?xml version="1.0" encoding="UTF-8" standalone="no"?>
<svg
   xmlns:dc="http://purl.org/dc/elements/1.1/"
   xmlns:cc="http://creativecommons.org/ns#"
   xmlns:rdf="http://www.w3.org/1999/02/22-rdf-syntax-ns#"
   xmlns:svg="http://www.w3.org/2000/svg"
   xmlns="http://www.w3.org/2000/svg"
   xmlns:sodipodi="http://sodipodi.sourceforge.net/DTD/sodipodi-0.dtd"
   xmlns:inkscape="http://www.inkscape.org/namespaces/inkscape"
   width="270"
   height="60"
   viewBox="0 0 270 60"
   fill="none"
   version="1.1"
   id="svg6894"
   sodipodi:docname="social-telegram-xbtn-hover.svg"
   inkscape:version="0.92.3 (2405546, 2018-03-11)">
  <metadata
     id="metadata6900">
    <rdf:RDF>
      <cc:Work
         rdf:about="">
        <dc:format>image/svg+xml</dc:format>
        <dc:type
           rdf:resource="http://purl.org/dc/dcmitype/StillImage" />
        <dc:title></dc:title>
      </cc:Work>
    </rdf:RDF>
  </metadata>
  <defs
     id="defs6898" />
  <sodipodi:namedview
     pagecolor="#ffffff"
     bordercolor="#666666"
     borderopacity="1"
     objecttolerance="10"
     gridtolerance="10"
     guidetolerance="10"
     inkscape:pageopacity="0"
     inkscape:pageshadow="2"
     inkscape:window-width="640"
     inkscape:window-height="480"
     id="namedview6896"
     showgrid="false"
     inkscape:zoom="1.7481481"
     inkscape:cx="135"
     inkscape:cy="30"
     inkscape:window-x="0"
     inkscape:window-y="0"
     inkscape:window-maximized="0"
     inkscape:current-layer="svg6894" />
  <rect
     x="0.5"
     y="0.5"
     width="269"
     height="59"
     rx="4.5"
     fill="#7AA5DA"
     fill-opacity="0.1"
     stroke="#7AA5DA"
     id="rect6854" />
  <path
     d="m 130.938,24.314 c -0.952,-0.5413 -1.969,-0.8633 -3.052,-0.966 V 32 H 126.5 v -8.652 c -1.092,0.1027 -2.114,0.4247 -3.066,0.966 l -0.49,-1.106 c 1.251,-0.7467 2.66,-1.12 4.228,-1.12 1.587,0 3.005,0.3733 4.256,1.12 z m 4.284,6.594 c 0.886,0 1.6,-0.2987 2.142,-0.896 l 0.728,0.868 c -0.327,0.392 -0.742,0.6907 -1.246,0.896 -0.495,0.2053 -1.05,0.308 -1.666,0.308 -0.784,0 -1.48,-0.1587 -2.086,-0.476 -0.607,-0.3267 -1.078,-0.7793 -1.414,-1.358 -0.327,-0.5787 -0.49,-1.232 -0.49,-1.96 0,-0.7187 0.158,-1.3673 0.476,-1.946 0.326,-0.5787 0.77,-1.0267 1.33,-1.344 0.569,-0.3267 1.208,-0.49 1.918,-0.49 0.672,0 1.283,0.154 1.834,0.462 0.55,0.2987 0.989,0.7233 1.316,1.274 0.326,0.5507 0.494,1.1853 0.504,1.904 l -5.894,1.148 c 0.186,0.5133 0.499,0.91 0.938,1.19 0.448,0.28 0.984,0.42 1.61,0.42 z m -0.308,-5.264 c -0.467,0 -0.887,0.1073 -1.26,0.322 -0.364,0.2147 -0.649,0.518 -0.854,0.91 -0.206,0.3827 -0.308,0.8307 -0.308,1.344 v 0.14 l 4.746,-0.896 c -0.122,-0.5413 -0.392,-0.98 -0.812,-1.316 -0.42,-0.336 -0.924,-0.504 -1.512,-0.504 z m 7.788,6.44 c -0.719,0 -1.274,-0.196 -1.666,-0.588 -0.392,-0.4013 -0.588,-0.9613 -0.588,-1.68 v -8.204 h 1.344 v 8.092 c 0,0.4013 0.093,0.7093 0.28,0.924 0.196,0.2147 0.485,0.322 0.868,0.322 0.233,0 0.452,-0.0467 0.658,-0.14 l 0.07,1.106 c -0.308,0.112 -0.63,0.168 -0.966,0.168 z m 5.453,-1.176 c 0.887,0 1.601,-0.2987 2.142,-0.896 l 0.728,0.868 c -0.327,0.392 -0.742,0.6907 -1.246,0.896 -0.495,0.2053 -1.05,0.308 -1.666,0.308 -0.784,0 -1.479,-0.1587 -2.086,-0.476 -0.607,-0.3267 -1.078,-0.7793 -1.414,-1.358 -0.327,-0.5787 -0.49,-1.232 -0.49,-1.96 0,-0.7187 0.159,-1.3673 0.476,-1.946 0.327,-0.5787 0.77,-1.0267 1.33,-1.344 0.569,-0.3267 1.209,-0.49 1.918,-0.49 0.672,0 1.283,0.154 1.834,0.462 0.551,0.2987 0.989,0.7233 1.316,1.274 0.327,0.5507 0.495,1.1853 0.504,1.904 l -5.894,1.148 c 0.187,0.5133 0.499,0.91 0.938,1.19 0.448,0.28 0.985,0.42 1.61,0.42 z m -0.308,-5.264 c -0.467,0 -0.887,0.1073 -1.26,0.322 -0.364,0.2147 -0.649,0.518 -0.854,0.91 -0.205,0.3827 -0.308,0.8307 -0.308,1.344 v 0.14 l 4.746,-0.896 c -0.121,-0.5413 -0.392,-0.98 -0.812,-1.316 -0.42,-0.336 -0.924,-0.504 -1.512,-0.504 z m 12.632,-1.064 v 6.412 c 0,1.2973 -0.322,2.254 -0.966,2.87 -0.644,0.6253 -1.605,0.938 -2.884,0.938 -0.7,0 -1.367,-0.098 -2.002,-0.294 -0.634,-0.1867 -1.148,-0.4573 -1.54,-0.812 l 0.644,-1.036 c 0.346,0.2987 0.77,0.532 1.274,0.7 0.514,0.1773 1.041,0.266 1.582,0.266 0.868,0 1.508,-0.2053 1.918,-0.616 0.42,-0.4107 0.63,-1.036 0.63,-1.876 v -0.588 c -0.317,0.3827 -0.709,0.672 -1.176,0.868 -0.457,0.1867 -0.956,0.28 -1.498,0.28 -0.709,0 -1.353,-0.1493 -1.932,-0.448 -0.569,-0.308 -1.017,-0.7327 -1.344,-1.274 -0.326,-0.5507 -0.49,-1.176 -0.49,-1.876 0,-0.7 0.164,-1.3207 0.49,-1.862 0.327,-0.5507 0.775,-0.9753 1.344,-1.274 0.579,-0.2987 1.223,-0.448 1.932,-0.448 0.56,0 1.078,0.1027 1.554,0.308 0.486,0.2053 0.882,0.5087 1.19,0.91 V 24.58 Z m -3.864,5.936 c 0.486,0 0.92,-0.1027 1.302,-0.308 0.392,-0.2053 0.696,-0.49 0.91,-0.854 0.224,-0.3733 0.336,-0.7933 0.336,-1.26 0,-0.7187 -0.238,-1.2973 -0.714,-1.736 -0.476,-0.448 -1.087,-0.672 -1.834,-0.672 -0.756,0 -1.372,0.224 -1.848,0.672 -0.476,0.4387 -0.714,1.0173 -0.714,1.736 0,0.4667 0.108,0.8867 0.322,1.26 0.224,0.364 0.528,0.6487 0.91,0.854 0.392,0.2053 0.836,0.308 1.33,0.308 z m 7.72,-4.69 c 0.234,-0.4293 0.579,-0.756 1.036,-0.98 0.458,-0.224 1.013,-0.336 1.666,-0.336 v 1.302 c -0.074,-0.0093 -0.177,-0.014 -0.308,-0.014 -0.728,0 -1.302,0.2193 -1.722,0.658 -0.41,0.4293 -0.616,1.0453 -0.616,1.848 V 32 h -1.344 v -7.42 h 1.288 z M 175.626,24.58 V 32 h -1.288 v -1.176 c -0.299,0.4107 -0.677,0.7233 -1.134,0.938 -0.458,0.2147 -0.962,0.322 -1.512,0.322 -0.719,0 -1.363,-0.1587 -1.932,-0.476 -0.57,-0.3173 -1.018,-0.7607 -1.344,-1.33 -0.318,-0.5787 -0.476,-1.2413 -0.476,-1.988 0,-0.7467 0.158,-1.4047 0.476,-1.974 0.326,-0.5693 0.774,-1.0127 1.344,-1.33 0.569,-0.3173 1.213,-0.476 1.932,-0.476 0.532,0 1.022,0.1027 1.47,0.308 0.448,0.196 0.821,0.49 1.12,0.882 v -1.12 z m -3.822,6.328 c 0.466,0 0.891,-0.1073 1.274,-0.322 0.382,-0.224 0.681,-0.532 0.896,-0.924 0.214,-0.4013 0.322,-0.8587 0.322,-1.372 0,-0.5133 -0.108,-0.966 -0.322,-1.358 -0.215,-0.4013 -0.514,-0.7093 -0.896,-0.924 -0.383,-0.2147 -0.808,-0.322 -1.274,-0.322 -0.476,0 -0.906,0.1073 -1.288,0.322 -0.374,0.2147 -0.672,0.5227 -0.896,0.924 -0.215,0.392 -0.322,0.8447 -0.322,1.358 0,0.5133 0.107,0.9707 0.322,1.372 0.224,0.392 0.522,0.7 0.896,0.924 0.382,0.2147 0.812,0.322 1.288,0.322 z m 15.647,-6.398 c 0.933,0 1.67,0.2707 2.212,0.812 0.55,0.5413 0.826,1.344 0.826,2.408 V 32 h -1.344 v -4.116 c 0,-0.7187 -0.168,-1.26 -0.504,-1.624 -0.327,-0.364 -0.798,-0.546 -1.414,-0.546 -0.682,0 -1.223,0.2147 -1.624,0.644 -0.402,0.42 -0.602,1.0267 -0.602,1.82 V 32 h -1.344 v -4.116 c 0,-0.7187 -0.168,-1.26 -0.504,-1.624 -0.327,-0.364 -0.798,-0.546 -1.414,-0.546 -0.682,0 -1.223,0.2147 -1.624,0.644 -0.402,0.42 -0.602,1.0267 -0.602,1.82 V 32 h -1.344 v -7.42 h 1.288 v 1.106 c 0.27,-0.3827 0.625,-0.672 1.064,-0.868 0.438,-0.2053 0.938,-0.308 1.498,-0.308 0.578,0 1.092,0.1167 1.54,0.35 0.448,0.2333 0.793,0.574 1.036,1.022 0.28,-0.4293 0.667,-0.7653 1.162,-1.008 0.504,-0.2427 1.068,-0.364 1.694,-0.364 z"
     id="path6856"
     inkscape:connector-curvature="0"
     style="fill:#7aa5da" />
  <path
     d="M 88,46 C 99.0457,46 108,37.0457 108,26 108,14.9543 99.0457,6 88,6 76.9543,6 68,14.9543 68,26 c 0,11.0457 8.9543,20 20,20 z"
     id="path6858"
     inkscape:connector-curvature="0"
     style="fill:#7aa5da" />
  <path
     d="m 97.9777,16.431 c 0.7974,-0.3111 1.6216,0.3865 1.4465,1.2242 l -3.5758,17.0923 c -0.167,0.8013 -1.1084,1.1622 -1.7683,0.6774 l -5.398,-3.9623 -2.7515,2.8095 c -0.4835,0.4929 -1.3172,0.2922 -1.5246,-0.365 l -1.9851,-6.3017 -5.3213,-1.5718 c -0.699,-0.2061 -0.7394,-1.1784 -0.062,-1.4437 z m -2.6249,3.7926 c 0.233,-0.2061 -0.0377,-0.5697 -0.3017,-0.4054 l -11.4856,7.1232 c -0.202,0.1252 -0.2949,0.3717 -0.2236,0.5993 l 1.5664,6.8781 c 0.031,0.1051 0.1818,0.0902 0.1953,-0.0188 l 0.3501,-5.2418 c 0.0135,-0.1293 0.0754,-0.2478 0.1725,-0.3339 z"
     id="path6860"
     inkscape:connector-curvature="0"
     style="fill:#ffffff" />
  <path
     d="m 95.0513,19.8188 c 0.264,-0.1643 0.5347,0.1993 0.3017,0.4054 l -9.7266,8.6007 c -0.0969,0.0861 -0.1589,0.2046 -0.1724,0.3339 l -0.3501,5.2418 c -0.0135,0.109 -0.1643,0.1239 -0.1953,0.0188 l -1.5664,-6.8781 c -0.0714,-0.2276 0.0216,-0.4741 0.2236,-0.5993 z"
     id="path6862"
     inkscape:connector-curvature="0"
     style="fill:#9ec2e5" />
  <path
     d="M 84.9649,34.4901 C 84.7117,34.3999 84.4976,34.1979 84.406,33.9069 l -1.9852,-6.3017 -5.3212,-1.5717 c -0.699,-0.2061 -0.7394,-1.1785 -0.062,-1.4438 l 20.94,-8.1588 c 0.5145,-0.2007 1.0411,0.0188 1.3011,0.4256 -0.0486,-0.074 -0.1064,-0.1427 -0.1711,-0.2033 l -14.206,11.5972 v 0.5078 l -0.0782,-0.0566 0.0782,3.1974 v 2.5643 c 0.0202,0.0094 0.0417,0.0175 0.0632,0.0242 v 0.0026 z"
     id="path6864"
     inkscape:connector-curvature="0"
     style="fill:#ffffff" />
  <path
     d="m 85.8602,34.3379 c -0.0242,0.0202 -0.0485,0.0391 -0.0741,0.0566 v -0.0014 c 0.0257,-0.0175 0.0499,-0.035 0.0741,-0.0552 z"
     id="path6866"
     inkscape:connector-curvature="0"
     style="fill:#dadde0" />
  <path
     d="m 85.7855,34.3936 v 0.0013 c 0,0 0,-0.0013 -0.0013,0 0,0 0,0 0.0013,-0.0013 z"
     id="path6868"
     inkscape:connector-curvature="0"
     style="fill:#dadde0" />
  <path
     d="m 85.625,34.4794 c 0.0552,-0.0229 0.1077,-0.0512 0.1589,-0.0849 -0.0512,0.0336 -0.1051,0.0619 -0.1589,0.0849 z"
     id="path6870"
     inkscape:connector-curvature="0"
     style="fill:#dadde0" />
  <path
     d="m 85.1865,34.5402 c 0.1185,0.0121 0.2384,0.0026 0.3556,-0.0324 -0.0849,0.027 -0.1725,0.0391 -0.26,0.0391 -0.0269,0 -0.0539,-0.0014 -0.0794,-0.0041 -0.0054,1e-4 -0.0108,1e-4 -0.0162,-0.0026 z"
     id="path6872"
     inkscape:connector-curvature="0"
     style="fill:#dadde0" />
  <path
     d="m 85.2826,34.547 c -0.027,0 -0.0539,-0.0013 -0.0795,-0.004 0.0256,0.0027 0.0525,0.004 0.0795,0.004 z"
     id="path6874"
     inkscape:connector-curvature="0"
     style="fill:#ffffff" />
  <path
     d="m 85.1867,34.5404 c 0.0054,0.0026 0.0108,0.0026 0.0162,0.0026 -0.0283,-0.0013 -0.054,-0.0054 -0.0808,-0.0108 0.0215,0.0042 0.043,0.0068 0.0646,0.0082 z"
     id="path6876"
     inkscape:connector-curvature="0"
     style="fill:#ffffff" />
  <path
     d="m 85.1853,34.5398 c -0.0216,-0.0013 -0.0431,-0.0041 -0.0646,-0.008 -0.0094,-0.0014 -0.0188,-0.0027 -0.0269,-0.0054 0.0296,0.0054 0.0605,0.0107 0.0915,0.0134 z"
     id="path6878"
     inkscape:connector-curvature="0"
     style="fill:#dadde0" />
  <path
     d="m 84.9932,34.498 c 0.0296,0.0095 0.0593,0.0175 0.0889,0.0257 C 85.07,34.521 85.0579,34.5183 85.0457,34.5156 85.0404,34.5143 85.035,34.513 85.0309,34.5102 85.0187,34.5075 85.0053,34.5034 84.9932,34.498 Z"
     id="path6880"
     inkscape:connector-curvature="0"
     style="fill:#dadde0" />
  <path
     d="m 85.0459,34.5156 c 0.0121,0.0027 0.0242,0.0054 0.0363,0.0081 -0.0121,-0.0014 -0.0242,-0.004 -0.0363,-0.0081 z"
     id="path6882"
     inkscape:connector-curvature="0"
     style="fill:#ffffff" />
  <path
     d="m 84.9936,34.4979 c 0.0121,0.0054 0.0256,0.0095 0.0377,0.0121 -0.0202,-0.004 -0.0404,-0.0107 -0.0606,-0.0188 0.008,0.0027 0.0148,0.0054 0.0229,0.0067 z"
     id="path6884"
     inkscape:connector-curvature="0"
     style="fill:#ffffff" />
  <path
     d="m 84.9941,34.499 c -0.008,-0.0013 -0.0148,-0.0041 -0.0229,-0.0067 -0.0013,0.0013 -0.0041,0 -0.0054,-0.0014 v -0.0026 c 0.0094,0.0053 0.0188,0.008 0.0283,0.0107 z"
     id="path6886"
     inkscape:connector-curvature="0"
     style="fill:#dadde0" />
  <path
     d="m 84.9023,31.8994 0.0633,2.5885 c -0.0215,-0.0067 -0.0431,-0.0148 -0.0633,-0.0242 z"
     id="path6888"
     inkscape:connector-curvature="0"
     style="fill:#d1d1d1" />
  <path
     d="m 84.9023,28.7587 v 3.1408 l -0.0781,-3.1974 z"
     id="path6890"
     inkscape:connector-curvature="0"
     style="fill:#dadde0" />
  <path
     d="m 95.353,20.2231 -9.7266,8.6007 c -0.0969,0.0862 -0.1589,0.2047 -0.1724,0.334 L 85.1045,34.4 c -0.0134,0.1091 -0.1643,0.1239 -0.1967,0.0189 l -1.5656,-6.8786 c -0.0714,-0.2275 0.0216,-0.474 0.2236,-0.5993 l 11.4856,-7.1232 c 0.2639,-0.1643 0.5347,0.1993 0.3016,0.4053 z"
     id="path6892"
     inkscape:connector-curvature="0"
     style="fill:#adbcc9" />
</svg>
