<svg width="270" height="60" viewBox="0 0 270 60" fill="none" xmlns="http://www.w3.org/2000/svg">
<rect x="0.5" y="0.5" width="269" height="59" rx="4.5" fill="#7AA5DA" fill-opacity="0.1" stroke="#7AA5DA"/>
<path d="M130.938 28.314C129.986 27.7727 128.969 27.4507 127.886 27.348V36H126.5V27.348C125.408 27.4507 124.386 27.7727 123.434 28.314L122.944 27.208C124.195 26.4613 125.604 26.088 127.172 26.088C128.759 26.088 130.177 26.4613 131.428 27.208L130.938 28.314ZM135.222 34.908C136.108 34.908 136.822 34.6093 137.364 34.012L138.092 34.88C137.765 35.272 137.35 35.5707 136.846 35.776C136.351 35.9813 135.796 36.084 135.18 36.084C134.396 36.084 133.7 35.9253 133.094 35.608C132.487 35.2813 132.016 34.8287 131.68 34.25C131.353 33.6713 131.19 33.018 131.19 32.29C131.19 31.5713 131.348 30.9227 131.666 30.344C131.992 29.7653 132.436 29.3173 132.996 29C133.565 28.6733 134.204 28.51 134.914 28.51C135.586 28.51 136.197 28.664 136.748 28.972C137.298 29.2707 137.737 29.6953 138.064 30.246C138.39 30.7967 138.558 31.4313 138.568 32.15L132.674 33.298C132.86 33.8113 133.173 34.208 133.612 34.488C134.06 34.768 134.596 34.908 135.222 34.908ZM134.914 29.644C134.447 29.644 134.027 29.7513 133.654 29.966C133.29 30.1807 133.005 30.484 132.8 30.876C132.594 31.2587 132.492 31.7067 132.492 32.22V32.36L137.238 31.464C137.116 30.9227 136.846 30.484 136.426 30.148C136.006 29.812 135.502 29.644 134.914 29.644ZM142.702 36.084C141.983 36.084 141.428 35.888 141.036 35.496C140.644 35.0947 140.448 34.5347 140.448 33.816V25.612H141.792V33.704C141.792 34.1053 141.885 34.4133 142.072 34.628C142.268 34.8427 142.557 34.95 142.94 34.95C143.173 34.95 143.392 34.9033 143.598 34.81L143.668 35.916C143.36 36.028 143.038 36.084 142.702 36.084ZM148.155 34.908C149.042 34.908 149.756 34.6093 150.297 34.012L151.025 34.88C150.698 35.272 150.283 35.5707 149.779 35.776C149.284 35.9813 148.729 36.084 148.113 36.084C147.329 36.084 146.634 35.9253 146.027 35.608C145.42 35.2813 144.949 34.8287 144.613 34.25C144.286 33.6713 144.123 33.018 144.123 32.29C144.123 31.5713 144.282 30.9227 144.599 30.344C144.926 29.7653 145.369 29.3173 145.929 29C146.498 28.6733 147.138 28.51 147.847 28.51C148.519 28.51 149.13 28.664 149.681 28.972C150.232 29.2707 150.67 29.6953 150.997 30.246C151.324 30.7967 151.492 31.4313 151.501 32.15L145.607 33.298C145.794 33.8113 146.106 34.208 146.545 34.488C146.993 34.768 147.53 34.908 148.155 34.908ZM147.847 29.644C147.38 29.644 146.96 29.7513 146.587 29.966C146.223 30.1807 145.938 30.484 145.733 30.876C145.528 31.2587 145.425 31.7067 145.425 32.22V32.36L150.171 31.464C150.05 30.9227 149.779 30.484 149.359 30.148C148.939 29.812 148.435 29.644 147.847 29.644ZM160.479 28.58V34.992C160.479 36.2893 160.157 37.246 159.513 37.862C158.869 38.4873 157.908 38.8 156.629 38.8C155.929 38.8 155.262 38.702 154.627 38.506C153.993 38.3193 153.479 38.0487 153.087 37.694L153.731 36.658C154.077 36.9567 154.501 37.19 155.005 37.358C155.519 37.5353 156.046 37.624 156.587 37.624C157.455 37.624 158.095 37.4187 158.505 37.008C158.925 36.5973 159.135 35.972 159.135 35.132V34.544C158.818 34.9267 158.426 35.216 157.959 35.412C157.502 35.5987 157.003 35.692 156.461 35.692C155.752 35.692 155.108 35.5427 154.529 35.244C153.96 34.936 153.512 34.5113 153.185 33.97C152.859 33.4193 152.695 32.794 152.695 32.094C152.695 31.394 152.859 30.7733 153.185 30.232C153.512 29.6813 153.96 29.2567 154.529 28.958C155.108 28.6593 155.752 28.51 156.461 28.51C157.021 28.51 157.539 28.6127 158.015 28.818C158.501 29.0233 158.897 29.3267 159.205 29.728V28.58H160.479ZM156.615 34.516C157.101 34.516 157.535 34.4133 157.917 34.208C158.309 34.0027 158.613 33.718 158.827 33.354C159.051 32.9807 159.163 32.5607 159.163 32.094C159.163 31.3753 158.925 30.7967 158.449 30.358C157.973 29.91 157.362 29.686 156.615 29.686C155.859 29.686 155.243 29.91 154.767 30.358C154.291 30.7967 154.053 31.3753 154.053 32.094C154.053 32.5607 154.161 32.9807 154.375 33.354C154.599 33.718 154.903 34.0027 155.285 34.208C155.677 34.4133 156.121 34.516 156.615 34.516ZM164.335 29.826C164.569 29.3967 164.914 29.07 165.371 28.846C165.829 28.622 166.384 28.51 167.037 28.51V29.812C166.963 29.8027 166.86 29.798 166.729 29.798C166.001 29.798 165.427 30.0173 165.007 30.456C164.597 30.8853 164.391 31.5013 164.391 32.304V36H163.047V28.58H164.335V29.826ZM175.626 28.58V36H174.338V34.824C174.039 35.2347 173.661 35.5473 173.204 35.762C172.746 35.9767 172.242 36.084 171.692 36.084C170.973 36.084 170.329 35.9253 169.76 35.608C169.19 35.2907 168.742 34.8473 168.416 34.278C168.098 33.6993 167.94 33.0367 167.94 32.29C167.94 31.5433 168.098 30.8853 168.416 30.316C168.742 29.7467 169.19 29.3033 169.76 28.986C170.329 28.6687 170.973 28.51 171.692 28.51C172.224 28.51 172.714 28.6127 173.162 28.818C173.61 29.014 173.983 29.308 174.282 29.7V28.58H175.626ZM171.804 34.908C172.27 34.908 172.695 34.8007 173.078 34.586C173.46 34.362 173.759 34.054 173.974 33.662C174.188 33.2607 174.296 32.8033 174.296 32.29C174.296 31.7767 174.188 31.324 173.974 30.932C173.759 30.5307 173.46 30.2227 173.078 30.008C172.695 29.7933 172.27 29.686 171.804 29.686C171.328 29.686 170.898 29.7933 170.516 30.008C170.142 30.2227 169.844 30.5307 169.62 30.932C169.405 31.324 169.298 31.7767 169.298 32.29C169.298 32.8033 169.405 33.2607 169.62 33.662C169.844 34.054 170.142 34.362 170.516 34.586C170.898 34.8007 171.328 34.908 171.804 34.908ZM187.451 28.51C188.384 28.51 189.121 28.7807 189.663 29.322C190.213 29.8633 190.489 30.666 190.489 31.73V36H189.145V31.884C189.145 31.1653 188.977 30.624 188.641 30.26C188.314 29.896 187.843 29.714 187.227 29.714C186.545 29.714 186.004 29.9287 185.603 30.358C185.201 30.778 185.001 31.3847 185.001 32.178V36H183.657V31.884C183.657 31.1653 183.489 30.624 183.153 30.26C182.826 29.896 182.355 29.714 181.739 29.714C181.057 29.714 180.516 29.9287 180.115 30.358C179.713 30.778 179.513 31.3847 179.513 32.178V36H178.169V28.58H179.457V29.686C179.727 29.3033 180.082 29.014 180.521 28.818C180.959 28.6127 181.459 28.51 182.019 28.51C182.597 28.51 183.111 28.6267 183.559 28.86C184.007 29.0933 184.352 29.434 184.595 29.882C184.875 29.4527 185.262 29.1167 185.757 28.874C186.261 28.6313 186.825 28.51 187.451 28.51Z" fill="#7AA5DA"/>
<path d="M88 50C99.0457 50 108 41.0457 108 30C108 18.9543 99.0457 10 88 10C76.9543 10 68 18.9543 68 30C68 41.0457 76.9543 50 88 50Z" fill="#7AA5DA"/>
<path d="M97.9777 20.431C98.7751 20.1199 99.5993 20.8175 99.4242 21.6552L95.8484 38.7475C95.6814 39.5488 94.74 39.9097 94.0801 39.4249L88.6821 35.4626L85.9306 38.2721C85.4471 38.765 84.6134 38.5643 84.406 37.9071L82.4209 31.6054L77.0996 30.0336C76.4006 29.8275 76.3602 28.8552 77.0376 28.5899L97.9777 20.431ZM95.3528 24.2236C95.5858 24.0175 95.3151 23.6539 95.0511 23.8182L83.5655 30.9414C83.3635 31.0666 83.2706 31.3131 83.3419 31.5407L84.9083 38.4188C84.9393 38.5239 85.0901 38.509 85.1036 38.4L85.4537 33.1582C85.4672 33.0289 85.5291 32.9104 85.6262 32.8243L95.3528 24.2236Z" fill="white"/>
<path d="M95.0513 23.8188C95.3153 23.6545 95.586 24.0181 95.353 24.2242L85.6264 32.8249C85.5295 32.911 85.4675 33.0295 85.454 33.1588L85.1039 38.4006C85.0904 38.5096 84.9396 38.5245 84.9086 38.4194L83.3422 31.5413C83.2708 31.3137 83.3638 31.0672 83.5658 30.942L95.0513 23.8188Z" fill="#9EC2E5"/>
<path d="M84.9649 38.4901C84.7117 38.3999 84.4976 38.1979 84.406 37.9069L82.4208 31.6052L77.0996 30.0335C76.4006 29.8274 76.3602 28.855 77.0376 28.5897L97.9776 20.4309C98.4921 20.2302 99.0187 20.4497 99.2787 20.8565C99.2301 20.7825 99.1723 20.7138 99.1076 20.6532L84.9016 32.2504V32.7582L84.8234 32.7016L84.9016 35.899V38.4633C84.9218 38.4727 84.9433 38.4808 84.9648 38.4875V38.4901H84.9649Z" fill="white"/>
<path d="M85.8602 38.3379C85.836 38.3581 85.8117 38.377 85.7861 38.3945V38.3931C85.8118 38.3756 85.836 38.3581 85.8602 38.3379Z" fill="#DADDE0"/>
<path d="M85.7855 38.3936V38.3949C85.7855 38.3949 85.7855 38.3936 85.7842 38.3949C85.7842 38.3949 85.7842 38.3949 85.7855 38.3936Z" fill="#DADDE0"/>
<path d="M85.625 38.4794C85.6802 38.4565 85.7327 38.4282 85.7839 38.3945C85.7327 38.4281 85.6788 38.4564 85.625 38.4794Z" fill="#DADDE0"/>
<path d="M85.1865 38.5402C85.305 38.5523 85.4249 38.5428 85.5421 38.5078C85.4572 38.5348 85.3696 38.5469 85.2821 38.5469C85.2552 38.5469 85.2282 38.5455 85.2027 38.5428C85.1973 38.5429 85.1919 38.5429 85.1865 38.5402Z" fill="#DADDE0"/>
<path d="M85.2826 38.547C85.2556 38.547 85.2287 38.5457 85.2031 38.543C85.2287 38.5457 85.2556 38.547 85.2826 38.547Z" fill="white"/>
<path d="M85.1867 38.5404C85.1921 38.543 85.1975 38.543 85.2029 38.543C85.1746 38.5417 85.1489 38.5376 85.1221 38.5322C85.1436 38.5364 85.1651 38.539 85.1867 38.5404Z" fill="white"/>
<path d="M85.1853 38.5398C85.1637 38.5385 85.1422 38.5357 85.1207 38.5318C85.1113 38.5304 85.1019 38.5291 85.0938 38.5264C85.1234 38.5318 85.1543 38.5371 85.1853 38.5398Z" fill="#DADDE0"/>
<path d="M84.9932 38.498C85.0228 38.5075 85.0525 38.5155 85.0821 38.5237C85.07 38.521 85.0579 38.5183 85.0457 38.5156C85.0404 38.5143 85.035 38.513 85.0309 38.5102C85.0187 38.5075 85.0053 38.5034 84.9932 38.498Z" fill="#DADDE0"/>
<path d="M85.0459 38.5156C85.058 38.5183 85.0701 38.521 85.0822 38.5237C85.0701 38.5223 85.058 38.5197 85.0459 38.5156Z" fill="white"/>
<path d="M84.9936 38.4979C85.0057 38.5033 85.0192 38.5074 85.0313 38.51C85.0111 38.506 84.9909 38.4993 84.9707 38.4912C84.9787 38.4939 84.9855 38.4966 84.9936 38.4979Z" fill="white"/>
<path d="M84.9941 38.499C84.9861 38.4977 84.9793 38.4949 84.9712 38.4923C84.9699 38.4936 84.9671 38.4923 84.9658 38.4909V38.4883C84.9752 38.4936 84.9846 38.4963 84.9941 38.499Z" fill="#DADDE0"/>
<path d="M84.9023 35.8994L84.9656 38.4879C84.9441 38.4812 84.9225 38.4731 84.9023 38.4637V35.8994Z" fill="#D1D1D1"/>
<path d="M84.9023 32.7587V35.8995L84.8242 32.7021L84.9023 32.7587Z" fill="#DADDE0"/>
<path d="M95.353 24.2231L85.6264 32.8238C85.5295 32.91 85.4675 33.0285 85.454 33.1578L85.1045 38.4C85.0911 38.5091 84.9402 38.5239 84.9078 38.4189L83.3422 31.5403C83.2708 31.3128 83.3638 31.0663 83.5658 30.941L95.0514 23.8178C95.3153 23.6535 95.5861 24.0171 95.353 24.2231Z" fill="#ADBCC9"/>
</svg>
