<svg width="30" height="30" viewBox="0 0 30 30" fill="none" xmlns="http://www.w3.org/2000/svg">
  <path d="M15 30C23.2843 30 30 23.2843 30 15C30 6.71573 23.2843 0 15 0C6.71573 0 0 6.71573 0 15C0 23.2843 6.71573 30 15 30Z" fill="#FF7875"/>
  <path d="M18.4703 6.41406H11.5295C8.70883 6.41406 6.41406 8.70883 6.41406 11.5295V18.4703C6.41406 21.2908 8.70883 23.5858 11.5296 23.5858H18.4703C21.2909 23.5858 23.5858 21.291 23.5858 18.4703V11.5295C23.5858 8.70883 21.291 6.41406 18.4703 6.41406ZM21.8583 18.4703C21.8583 20.3414 20.3414 21.8583 18.4703 21.8583H11.5296C9.65846 21.8583 8.14158 20.3414 8.14158 18.4703V11.5296C8.14158 9.65846 9.65846 8.14152 11.5296 8.14152H18.4703C20.3414 8.14152 21.8583 9.65851 21.8583 11.5296V18.4703Z" fill="white"/>
  <path d="M14.9999 10.5586C12.551 10.5586 10.5586 12.551 10.5586 14.9999C10.5586 17.4486 12.551 19.441 14.9999 19.441C17.4488 19.441 19.441 17.4488 19.441 14.9999C19.441 12.551 17.4488 10.5586 14.9999 10.5586ZM14.9999 17.7135C13.5011 17.7135 12.2861 16.4987 12.2861 14.9999C12.2861 13.5011 13.5011 12.2861 14.9999 12.2861C16.4987 12.2861 17.7135 13.501 17.7135 14.9999C17.7135 16.4987 16.4987 17.7135 14.9999 17.7135Z" fill="white"/>
</svg>
