<svg width="397" height="39" viewBox="0 0 397 39" fill="none" xmlns="http://www.w3.org/2000/svg">
<path d="M15.9406 30.456C13.23 30.456 10.7726 29.8733 8.56864 28.708C6.38997 27.5173 4.66731 25.8833 3.40064 23.806C2.15931 21.7033 1.53864 19.3347 1.53864 16.7C1.53864 14.0653 2.15931 11.7093 3.40064 9.632C4.66731 7.52933 6.38997 5.89533 8.56864 4.73C10.7726 3.53933 13.2426 2.944 15.9786 2.944C18.284 2.944 20.3613 3.34933 22.2106 4.16C24.0853 4.97067 25.656 6.136 26.9226 7.656L22.9706 11.304C21.172 9.22667 18.9426 8.188 16.2826 8.188C14.636 8.188 13.1666 8.55533 11.8746 9.29C10.5826 9.99933 9.56931 11 8.83464 12.292C8.12531 13.584 7.77064 15.0533 7.77064 16.7C7.77064 18.3467 8.12531 19.816 8.83464 21.108C9.56931 22.4 10.5826 23.4133 11.8746 24.148C13.1666 24.8573 14.636 25.212 16.2826 25.212C18.9426 25.212 21.172 24.1607 22.9706 22.058L26.9226 25.706C25.656 27.2513 24.0853 28.4293 22.2106 29.24C20.336 30.0507 18.246 30.456 15.9406 30.456ZM39.3498 30.304C37.1965 30.304 35.2585 29.8607 33.5358 28.974C31.8385 28.062 30.5085 26.808 29.5458 25.212C28.5832 23.616 28.1018 21.8047 28.1018 19.778C28.1018 17.7513 28.5832 15.94 29.5458 14.344C30.5085 12.748 31.8385 11.5067 33.5358 10.62C35.2585 9.708 37.1965 9.252 39.3498 9.252C41.5032 9.252 43.4285 9.708 45.1258 10.62C46.8232 11.5067 48.1532 12.748 49.1158 14.344C50.0785 15.94 50.5598 17.7513 50.5598 19.778C50.5598 21.8047 50.0785 23.616 49.1158 25.212C48.1532 26.808 46.8232 28.062 45.1258 28.974C43.4285 29.8607 41.5032 30.304 39.3498 30.304ZM39.3498 25.44C40.8698 25.44 42.1112 24.9333 43.0738 23.92C44.0618 22.8813 44.5558 21.5007 44.5558 19.778C44.5558 18.0553 44.0618 16.6873 43.0738 15.674C42.1112 14.6353 40.8698 14.116 39.3498 14.116C37.8298 14.116 36.5758 14.6353 35.5878 15.674C34.5998 16.6873 34.1058 18.0553 34.1058 19.778C34.1058 21.5007 34.5998 22.8813 35.5878 23.92C36.5758 24.9333 37.8298 25.44 39.3498 25.44ZM75.4991 9.556V26.58C75.4991 30.3293 74.5238 33.116 72.5731 34.94C70.6224 36.764 67.7724 37.676 64.0231 37.676C62.0471 37.676 60.1724 37.4353 58.3991 36.954C56.6258 36.4727 55.1564 35.776 53.9911 34.864L56.3471 30.608C57.2084 31.3173 58.2978 31.8747 59.6151 32.28C60.9324 32.7107 62.2498 32.926 63.5671 32.926C65.6191 32.926 67.1264 32.4573 68.0891 31.52C69.0771 30.608 69.5711 29.2147 69.5711 27.34V26.466C68.0258 28.1633 65.8724 29.012 63.1111 29.012C61.2364 29.012 59.5138 28.6067 57.9431 27.796C56.3978 26.96 55.1691 25.7947 54.2571 24.3C53.3451 22.8053 52.8891 21.0827 52.8891 19.132C52.8891 17.1813 53.3451 15.4587 54.2571 13.964C55.1691 12.4693 56.3978 11.3167 57.9431 10.506C59.5138 9.67 61.2364 9.252 63.1111 9.252C66.0751 9.252 68.3298 10.2273 69.8751 12.178V9.556H75.4991ZM64.2891 24.148C65.8598 24.148 67.1391 23.692 68.1271 22.78C69.1404 21.8427 69.6471 20.6267 69.6471 19.132C69.6471 17.6373 69.1404 16.434 68.1271 15.522C67.1391 14.5847 65.8598 14.116 64.2891 14.116C62.7184 14.116 61.4264 14.5847 60.4131 15.522C59.3998 16.434 58.8931 17.6373 58.8931 19.132C58.8931 20.6267 59.3998 21.8427 60.4131 22.78C61.4264 23.692 62.7184 24.148 64.2891 24.148ZM91.3914 25.554C92.4554 25.554 93.3928 25.402 94.2034 25.098C95.0394 24.7687 95.8121 24.262 96.5214 23.578L99.6754 26.998C97.7501 29.202 94.9381 30.304 91.2394 30.304C88.9341 30.304 86.8948 29.8607 85.1214 28.974C83.3481 28.062 81.9801 26.808 81.0174 25.212C80.0548 23.616 79.5734 21.8047 79.5734 19.778C79.5734 17.7767 80.0421 15.978 80.9794 14.382C81.9421 12.7607 83.2468 11.5067 84.8934 10.62C86.5654 9.708 88.4401 9.252 90.5174 9.252C92.4681 9.252 94.2414 9.67 95.8374 10.506C97.4334 11.3167 98.7001 12.5073 99.6374 14.078C100.6 15.6233 101.081 17.46 101.081 19.588L85.9574 22.514C86.3881 23.5273 87.0594 24.2873 87.9714 24.794C88.9088 25.3007 90.0488 25.554 91.3914 25.554ZM90.5174 13.736C89.0228 13.736 87.8068 14.2173 86.8694 15.18C85.9321 16.1427 85.4381 17.4727 85.3874 19.17L95.3434 17.232C95.0648 16.168 94.4948 15.3193 93.6334 14.686C92.7721 14.0527 91.7334 13.736 90.5174 13.736ZM115.668 9.252C117.847 9.252 119.747 9.68267 121.368 10.544C122.989 11.4053 124.243 12.634 125.13 14.23C126.017 15.826 126.46 17.688 126.46 19.816C126.46 21.8933 126.042 23.73 125.206 25.326C124.37 26.8967 123.192 28.1253 121.672 29.012C120.152 29.8733 118.404 30.304 116.428 30.304C113.819 30.304 111.779 29.4807 110.31 27.834V37.372H104.382V19.854C104.382 17.7513 104.851 15.902 105.788 14.306C106.725 12.71 108.043 11.4687 109.74 10.582C111.437 9.69533 113.413 9.252 115.668 9.252ZM115.402 25.44C116.947 25.44 118.201 24.9207 119.164 23.882C120.127 22.8433 120.608 21.488 120.608 19.816C120.608 18.1187 120.127 16.7507 119.164 15.712C118.201 14.648 116.947 14.116 115.402 14.116C113.857 14.116 112.603 14.6353 111.64 15.674C110.703 16.7127 110.234 18.0807 110.234 19.778C110.234 21.4753 110.703 22.8433 111.64 23.882C112.577 24.9207 113.831 25.44 115.402 25.44ZM150.26 22.248H147.41V30H141.558V22.248H138.708L134.376 30H127.384L133.806 19.436L127.84 9.556H134.11L138.632 17.498H141.558V9.556H147.41V17.498H150.298L154.858 9.556H161.128L155.162 19.436L161.622 30H154.592L150.26 22.248ZM184.707 9.556V30H179.045V27.644C177.575 29.4173 175.447 30.304 172.661 30.304C170.735 30.304 168.987 29.8733 167.417 29.012C165.871 28.1507 164.655 26.922 163.769 25.326C162.882 23.73 162.439 21.8807 162.439 19.778C162.439 17.6753 162.882 15.826 163.769 14.23C164.655 12.634 165.871 11.4053 167.417 10.544C168.987 9.68267 170.735 9.252 172.661 9.252C175.27 9.252 177.309 10.0753 178.779 11.722V9.556H184.707ZM173.687 25.44C175.181 25.44 176.423 24.9333 177.411 23.92C178.399 22.8813 178.893 21.5007 178.893 19.778C178.893 18.0553 178.399 16.6873 177.411 15.674C176.423 14.6353 175.181 14.116 173.687 14.116C172.167 14.116 170.913 14.6353 169.925 15.674C168.937 16.6873 168.443 18.0553 168.443 19.778C168.443 21.5007 168.937 22.8813 169.925 23.92C170.913 24.9333 172.167 25.44 173.687 25.44ZM190.309 9.556H196.199V17.536H205.091V9.556H211.019V30H205.091V22.362H196.199V30H190.309V9.556ZM236.872 9.556V30H231.21V27.606C230.45 28.4927 229.512 29.164 228.398 29.62C227.308 30.076 226.143 30.304 224.902 30.304C222.216 30.304 220.076 29.5313 218.48 27.986C216.909 26.4407 216.124 24.148 216.124 21.108V9.556H222.052V20.234C222.052 23.5273 223.432 25.174 226.194 25.174C227.638 25.174 228.79 24.718 229.652 23.806C230.513 22.8687 230.944 21.488 230.944 19.664V9.556H236.872ZM252.706 25.554C253.77 25.554 254.707 25.402 255.518 25.098C256.354 24.7687 257.127 24.262 257.836 23.578L260.99 26.998C259.065 29.202 256.253 30.304 252.554 30.304C250.249 30.304 248.209 29.8607 246.436 28.974C244.663 28.062 243.295 26.808 242.332 25.212C241.369 23.616 240.888 21.8047 240.888 19.778C240.888 17.7767 241.357 15.978 242.294 14.382C243.257 12.7607 244.561 11.5067 246.208 10.62C247.88 9.708 249.755 9.252 251.832 9.252C253.783 9.252 255.556 9.67 257.152 10.506C258.748 11.3167 260.015 12.5073 260.952 14.078C261.915 15.6233 262.396 17.46 262.396 19.588L247.272 22.514C247.703 23.5273 248.374 24.2873 249.286 24.794C250.223 25.3007 251.363 25.554 252.706 25.554ZM251.832 13.736C250.337 13.736 249.121 14.2173 248.184 15.18C247.247 16.1427 246.753 17.4727 246.702 19.17L256.658 17.232C256.379 16.168 255.809 15.3193 254.948 14.686C254.087 14.0527 253.048 13.736 251.832 13.736ZM293.634 14.42H283.146V30H277.256V9.556H293.634V14.42ZM316.556 9.556V30H310.894V27.644C309.425 29.4173 307.297 30.304 304.51 30.304C302.585 30.304 300.837 29.8733 299.266 29.012C297.721 28.1507 296.505 26.922 295.618 25.326C294.732 23.73 294.288 21.8807 294.288 19.778C294.288 17.6753 294.732 15.826 295.618 14.23C296.505 12.634 297.721 11.4053 299.266 10.544C300.837 9.68267 302.585 9.252 304.51 9.252C307.12 9.252 309.159 10.0753 310.628 11.722V9.556H316.556ZM305.536 25.44C307.031 25.44 308.272 24.9333 309.26 23.92C310.248 22.8813 310.742 21.5007 310.742 19.778C310.742 18.0553 310.248 16.6873 309.26 15.674C308.272 14.6353 307.031 14.116 305.536 14.116C304.016 14.116 302.762 14.6353 301.774 15.674C300.786 16.6873 300.292 18.0553 300.292 19.778C300.292 21.5007 300.786 22.8813 301.774 23.92C302.762 24.9333 304.016 25.44 305.536 25.44ZM342.337 9.556V30H336.675V27.606C335.915 28.4927 334.977 29.164 333.863 29.62C332.773 30.076 331.608 30.304 330.367 30.304C327.681 30.304 325.541 29.5313 323.945 27.986C322.374 26.4407 321.589 24.148 321.589 21.108V9.556H327.517V20.234C327.517 23.5273 328.897 25.174 331.659 25.174C333.103 25.174 334.255 24.718 335.117 23.806C335.978 22.8687 336.409 21.488 336.409 19.664V9.556H342.337ZM331.811 7.352C327.352 7.352 325.11 5.38867 325.085 1.462H328.961C328.986 2.34867 329.227 3.04533 329.683 3.552C330.164 4.03333 330.861 4.274 331.773 4.274C332.685 4.274 333.381 4.03333 333.863 3.552C334.369 3.04533 334.623 2.34867 334.623 1.462H338.575C338.549 5.38867 336.295 7.352 331.811 7.352ZM368.849 9.556V26.58C368.849 30.3293 367.873 33.116 365.923 34.94C363.972 36.764 361.122 37.676 357.373 37.676C355.397 37.676 353.522 37.4353 351.749 36.954C349.975 36.4727 348.506 35.776 347.341 34.864L349.697 30.608C350.558 31.3173 351.647 31.8747 352.965 32.28C354.282 32.7107 355.599 32.926 356.917 32.926C358.969 32.926 360.476 32.4573 361.439 31.52C362.427 30.608 362.921 29.2147 362.921 27.34V26.466C361.375 28.1633 359.222 29.012 356.461 29.012C354.586 29.012 352.863 28.6067 351.293 27.796C349.747 26.96 348.519 25.7947 347.607 24.3C346.695 22.8053 346.239 21.0827 346.239 19.132C346.239 17.1813 346.695 15.4587 347.607 13.964C348.519 12.4693 349.747 11.3167 351.293 10.506C352.863 9.67 354.586 9.252 356.461 9.252C359.425 9.252 361.679 10.2273 363.225 12.178V9.556H368.849ZM357.639 24.148C359.209 24.148 360.489 23.692 361.477 22.78C362.49 21.8427 362.997 20.6267 362.997 19.132C362.997 17.6373 362.49 16.434 361.477 15.522C360.489 14.5847 359.209 14.116 357.639 14.116C356.068 14.116 354.776 14.5847 353.763 15.522C352.749 16.434 352.243 17.6373 352.243 19.132C352.243 20.6267 352.749 21.8427 353.763 22.78C354.776 23.692 356.068 24.148 357.639 24.148ZM395.191 9.556V30H389.529V27.644C388.06 29.4173 385.932 30.304 383.145 30.304C381.22 30.304 379.472 29.8733 377.901 29.012C376.356 28.1507 375.14 26.922 374.253 25.326C373.366 23.73 372.923 21.8807 372.923 19.778C372.923 17.6753 373.366 15.826 374.253 14.23C375.14 12.634 376.356 11.4053 377.901 10.544C379.472 9.68267 381.22 9.252 383.145 9.252C385.754 9.252 387.794 10.0753 389.263 11.722V9.556H395.191ZM384.171 25.44C385.666 25.44 386.907 24.9333 387.895 23.92C388.883 22.8813 389.377 21.5007 389.377 19.778C389.377 18.0553 388.883 16.6873 387.895 15.674C386.907 14.6353 385.666 14.116 384.171 14.116C382.651 14.116 381.397 14.6353 380.409 15.674C379.421 16.6873 378.927 18.0553 378.927 19.778C378.927 21.5007 379.421 22.8813 380.409 23.92C381.397 24.9333 382.651 25.44 384.171 25.44Z" fill="black" fill-opacity="0.85"/>
<path d="M8.56864 28.708L8.08903 29.5856L8.10122 29.592L8.56864 28.708ZM3.40064 23.806L2.53951 24.3144L2.54313 24.3205L2.54684 24.3266L3.40064 23.806ZM3.40064 9.632L2.54405 9.11598L2.54223 9.11904L3.40064 9.632ZM8.56864 4.73L9.0403 5.61179L9.04395 5.60982L8.56864 4.73ZM22.2106 4.16L21.8092 5.07588L21.8137 5.07786L22.2106 4.16ZM26.9226 7.656L27.6009 8.3908L28.2994 7.74606L27.6909 7.01582L26.9226 7.656ZM22.9706 11.304L22.2146 11.9586L22.8904 12.739L23.6489 12.0388L22.9706 11.304ZM11.8746 9.29L12.3559 10.1666L12.3624 10.163L12.3689 10.1593L11.8746 9.29ZM8.83464 12.292L7.96535 11.7977L7.96166 11.8042L7.95806 11.8107L8.83464 12.292ZM8.83464 21.108L7.95806 21.5893L7.96166 21.5958L7.96535 21.6023L8.83464 21.108ZM11.8746 24.148L11.3803 25.0173L11.3868 25.021L11.3934 25.0246L11.8746 24.148ZM22.9706 22.058L23.6489 21.3232L22.8858 20.6188L22.2107 21.408L22.9706 22.058ZM26.9226 25.706L27.696 26.3399L28.2937 25.6107L27.6009 24.9712L26.9226 25.706ZM22.2106 29.24L21.8137 28.3221L22.2106 29.24ZM15.9406 29.456C13.3784 29.456 11.0837 28.9066 9.03606 27.824L8.10122 29.592C10.4616 30.84 13.0816 31.456 15.9406 31.456V29.456ZM9.04821 27.8305C7.02012 26.7221 5.42787 25.2098 4.25444 23.2854L2.54684 24.3266C3.90674 26.5568 5.75983 28.3125 8.08907 29.5855L9.04821 27.8305ZM4.26177 23.2976C3.11851 21.3611 2.53864 19.1705 2.53864 16.7H0.538641C0.538641 19.4989 1.20011 22.0456 2.53951 24.3144L4.26177 23.2976ZM2.53864 16.7C2.53864 14.2294 3.11852 12.0536 4.25906 10.145L2.54223 9.11904C1.20009 11.3651 0.538641 13.9013 0.538641 16.7H2.53864ZM4.25722 10.148C5.43025 8.20079 7.01946 6.69269 9.04029 5.61178L8.09699 3.84821C5.76049 5.09797 3.90437 6.85788 2.54406 9.11599L4.25722 10.148ZM9.04395 5.60982C11.0888 4.50515 13.3929 3.944 15.9786 3.944V1.944C13.0923 1.944 10.4565 2.57351 8.09334 3.85018L9.04395 5.60982ZM15.9786 3.944C18.1653 3.944 20.1031 4.32802 21.8092 5.07587L22.6121 3.24413C20.6195 2.37065 18.4027 1.944 15.9786 1.944V3.944ZM21.8137 5.07786C23.5494 5.82841 24.9914 6.90051 26.1544 8.29618L27.6909 7.01582C26.3206 5.37149 24.6212 4.11292 22.6076 3.24214L21.8137 5.07786ZM26.2444 6.9212L22.2924 10.5692L23.6489 12.0388L27.6009 8.3908L26.2444 6.9212ZM23.7266 10.6494C21.7452 8.361 19.2436 7.188 16.2826 7.188V9.188C18.6417 9.188 20.5987 10.0923 22.2146 11.9586L23.7266 10.6494ZM16.2826 7.188C14.4818 7.188 12.8388 7.59138 11.3803 8.42071L12.3689 10.1593C13.4945 9.51928 14.7901 9.188 16.2826 9.188V7.188ZM11.3934 8.41342C9.93773 9.2126 8.79069 10.3462 7.96535 11.7977L9.70393 12.7863C10.3479 11.6538 11.2276 10.7861 12.3559 10.1666L11.3934 8.41342ZM7.95806 11.8107C7.15861 13.2669 6.77064 14.9052 6.77064 16.7H8.77064C8.77064 15.2015 9.092 13.9011 9.71122 12.7733L7.95806 11.8107ZM6.77064 16.7C6.77064 18.4948 7.15861 20.1331 7.95806 21.5893L9.71122 20.6267C9.092 19.4989 8.77064 18.1985 8.77064 16.7H6.77064ZM7.96535 21.6023C8.78899 23.0508 9.93187 24.1937 11.3803 25.0173L12.3689 23.2787C11.2334 22.633 10.3496 21.7492 9.70393 20.6137L7.96535 21.6023ZM11.3934 25.0246C12.8495 25.824 14.4878 26.212 16.2826 26.212V24.212C14.7841 24.212 13.4838 23.8906 12.3559 23.2714L11.3934 25.0246ZM16.2826 26.212C19.2481 26.212 21.7506 25.0226 23.7305 22.708L22.2107 21.408C20.5933 23.2988 18.6372 24.212 16.2826 24.212V26.212ZM22.2924 22.7928L26.2444 26.4408L27.6009 24.9712L23.6489 21.3232L22.2924 22.7928ZM26.1493 25.0721C24.986 26.4913 23.5454 27.5733 21.8137 28.3221L22.6076 30.1579C24.6252 29.2854 26.326 28.0114 27.696 26.3399L26.1493 25.0721ZM21.8137 28.3221C20.0795 29.0721 18.127 29.456 15.9406 29.456V31.456C18.3649 31.456 20.5924 31.0293 22.6076 30.1579L21.8137 28.3221ZM33.5358 28.974L33.0625 29.8549L33.0703 29.8591L33.0782 29.8631L33.5358 28.974ZM29.5458 25.212L28.6895 25.7285L29.5458 25.212ZM29.5458 14.344L28.6895 13.8275L29.5458 14.344ZM33.5358 10.62L33.9989 11.5064L34.0037 11.5038L33.5358 10.62ZM45.1258 10.62L44.6525 11.501L44.6628 11.5063L45.1258 10.62ZM49.1158 14.344L49.9721 13.8275L49.1158 14.344ZM49.1158 25.212L49.9721 25.7285L49.1158 25.212ZM45.1258 28.974L45.5889 29.8604L45.5991 29.8549L45.1258 28.974ZM43.0738 23.92L42.3493 23.2308L42.3488 23.2313L43.0738 23.92ZM43.0738 15.674L42.3404 16.3538L42.349 16.363L42.3578 16.3721L43.0738 15.674ZM35.5878 15.674L36.3039 16.3722L36.3124 16.3632L35.5878 15.674ZM35.5878 23.92L34.8632 24.6093L34.8718 24.6181L35.5878 23.92ZM39.3498 29.304C37.3377 29.304 35.5594 28.8909 33.9935 28.0849L33.0782 29.8631C34.9576 30.8305 37.0553 31.304 39.3498 31.304V29.304ZM34.0091 28.0931C32.4643 27.263 31.2689 26.1325 30.4021 24.6955L28.6895 25.7285C29.7481 27.4835 31.2127 28.861 33.0625 29.8549L34.0091 28.0931ZM30.4021 24.6955C29.5416 23.2689 29.1018 21.6391 29.1018 19.778H27.1018C27.1018 21.9703 27.6247 23.9631 28.6895 25.7285L30.4021 24.6955ZM29.1018 19.778C29.1018 17.9169 29.5416 16.2871 30.4021 14.8605L28.6895 13.8275C27.6247 15.5929 27.1018 17.5857 27.1018 19.778H29.1018ZM30.4021 14.8605C31.2674 13.426 32.4593 12.3106 33.9988 11.5063L33.0728 9.73365C31.2176 10.7028 29.7496 12.07 28.6895 13.8275L30.4021 14.8605ZM34.0037 11.5038C35.5676 10.6758 37.3422 10.252 39.3498 10.252V8.252C37.0508 8.252 34.9494 8.74015 33.0679 9.73621L34.0037 11.5038ZM39.3498 10.252C41.3577 10.252 43.1171 10.6759 44.6525 11.5009L45.5991 9.73911C43.7398 8.74008 41.6486 8.252 39.3498 8.252V10.252ZM44.6628 11.5063C46.2023 12.3106 47.3943 13.426 48.2595 14.8605L49.9721 13.8275C48.9121 12.07 47.444 10.7028 45.5888 9.73365L44.6628 11.5063ZM48.2595 14.8605C49.12 16.2871 49.5598 17.9169 49.5598 19.778H51.5598C51.5598 17.5857 51.037 15.5929 49.9721 13.8275L48.2595 14.8605ZM49.5598 19.778C49.5598 21.6391 49.12 23.2689 48.2595 24.6955L49.9721 25.7285C51.037 23.9631 51.5598 21.9702 51.5598 19.778H49.5598ZM48.2595 24.6955C47.3928 26.1325 46.1974 27.263 44.6525 28.0931L45.5991 29.8549C47.4489 28.861 48.9136 27.4835 49.9721 25.7285L48.2595 24.6955ZM44.6628 28.0877C43.1254 28.8908 41.3622 29.304 39.3498 29.304V31.304C41.6441 31.304 43.7316 30.8305 45.5888 29.8603L44.6628 28.0877ZM39.3498 26.44C41.1173 26.44 42.6298 25.8393 43.7988 24.6087L42.3488 23.2313C41.5926 24.0273 40.6224 24.44 39.3498 24.44V26.44ZM43.7984 24.6092C44.9978 23.3483 45.5558 21.7023 45.5558 19.778H43.5558C43.5558 21.299 43.1259 22.4143 42.3493 23.2308L43.7984 24.6092ZM45.5558 19.778C45.5558 17.8546 44.998 16.215 43.7898 14.9759L42.3578 16.3721C43.1257 17.1596 43.5558 18.256 43.5558 19.778H45.5558ZM43.8073 14.9942C42.6404 13.7352 41.1254 13.116 39.3498 13.116V15.116C40.6143 15.116 41.582 15.5355 42.3404 16.3538L43.8073 14.9942ZM39.3498 13.116C37.5744 13.116 36.0524 13.7347 34.8633 14.9848L36.3124 16.3632C37.0992 15.536 38.0852 15.116 39.3498 15.116V13.116ZM34.8718 14.9759C33.6637 16.215 33.1058 17.8546 33.1058 19.778H35.1058C35.1058 18.256 35.536 17.1596 36.3038 16.3721L34.8718 14.9759ZM33.1058 19.778C33.1058 21.7023 33.6639 23.3483 34.8633 24.6092L36.3124 23.2308C35.5358 22.4143 35.1058 21.299 35.1058 19.778H33.1058ZM34.8718 24.6181C36.063 25.8398 37.5824 26.44 39.3498 26.44V24.44C38.0773 24.44 37.0887 24.0269 36.3038 23.2219L34.8718 24.6181ZM75.4991 9.556H76.4991V8.556H75.4991V9.556ZM72.5731 34.94L73.2561 35.6704L72.5731 34.94ZM58.3991 36.954L58.1372 37.9191L58.3991 36.954ZM53.9911 34.864L53.1162 34.3797L52.7032 35.1259L53.3748 35.6515L53.9911 34.864ZM56.3471 30.608L56.9828 29.8361L56.0546 29.0717L55.4722 30.1237L56.3471 30.608ZM59.6151 32.28L59.9258 31.3295L59.9175 31.3268L59.9092 31.3242L59.6151 32.28ZM68.0891 31.52L67.4108 30.7852L67.401 30.7942L67.3915 30.8035L68.0891 31.52ZM69.5711 26.466H70.5711V23.8822L68.8317 25.7928L69.5711 26.466ZM57.9431 27.796L57.4673 28.6755L57.4758 28.6802L57.4845 28.6846L57.9431 27.796ZM54.2571 24.3L55.1107 23.7791L54.2571 24.3ZM54.2571 13.964L55.1107 14.4849L54.2571 13.964ZM57.9431 10.506L58.4077 11.3916L58.413 11.3887L57.9431 10.506ZM69.8751 12.178L69.0913 12.799L70.8751 15.0507V12.178H69.8751ZM69.8751 9.556V8.556H68.8751V9.556H69.8751ZM68.1271 22.78L68.8054 23.5148L68.8062 23.5141L68.1271 22.78ZM68.1271 15.522L67.4389 16.2475L67.4484 16.2565L67.4581 16.2653L68.1271 15.522ZM60.4131 15.522L61.0821 16.2654L61.0922 16.2561L60.4131 15.522ZM60.4131 22.78L59.734 23.5142L59.7441 23.5233L60.4131 22.78ZM74.4991 9.556V26.58H76.4991V9.556H74.4991ZM74.4991 26.58C74.4991 30.1671 73.5678 32.6408 71.8901 34.2096L73.2561 35.6704C75.4797 33.5912 76.4991 30.4916 76.4991 26.58H74.4991ZM71.8901 34.2096C70.1882 35.801 67.6217 36.676 64.0231 36.676V38.676C67.9232 38.676 71.0567 37.727 73.2561 35.6704L71.8901 34.2096ZM64.0231 36.676C62.129 36.676 60.3428 36.4454 58.6611 35.9889L58.1372 37.9191C60.0021 38.4253 61.9653 38.676 64.0231 38.676V36.676ZM58.6611 35.9889C56.9864 35.5344 55.6456 34.889 54.6074 34.0765L53.3748 35.6515C54.6673 36.663 56.2652 37.411 58.1372 37.9191L58.6611 35.9889ZM54.866 35.3483L57.222 31.0923L55.4722 30.1237L53.1162 34.3797L54.866 35.3483ZM55.7114 31.3799C56.6942 32.1893 57.9074 32.8008 59.321 33.2358L59.9092 31.3242C58.6882 30.9485 57.7227 30.4454 56.9828 29.8361L55.7114 31.3799ZM59.3044 33.2305C60.7168 33.6922 62.1388 33.926 63.5671 33.926V31.926C62.3607 31.926 61.1481 31.7291 59.9258 31.3295L59.3044 33.2305ZM63.5671 33.926C65.7455 33.926 67.5593 33.4316 68.7867 32.2365L67.3915 30.8035C66.6936 31.4831 65.4928 31.926 63.5671 31.926V33.926ZM68.7674 32.2548C70.0311 31.0883 70.5711 29.3805 70.5711 27.34H68.5711C68.5711 29.0488 68.1232 30.1277 67.4108 30.7852L68.7674 32.2548ZM70.5711 27.34V26.466H68.5711V27.34H70.5711ZM68.8317 25.7928C67.5139 27.2401 65.653 28.012 63.1111 28.012V30.012C66.0919 30.012 68.5376 29.0865 70.3106 27.1392L68.8317 25.7928ZM63.1111 28.012C61.3861 28.012 59.822 27.6404 58.4018 26.9074L57.4845 28.6846C59.2055 29.5729 61.0868 30.012 63.1111 30.012V28.012ZM58.4189 26.9165C57.0285 26.1642 55.9304 25.1224 55.1107 23.7791L53.4035 24.8209C54.4078 26.4669 55.7671 27.7558 57.4673 28.6755L58.4189 26.9165ZM55.1107 23.7791C54.3051 22.4588 53.8891 20.9205 53.8891 19.132H51.8891C51.8891 21.2449 52.3851 23.1519 53.4035 24.8209L55.1107 23.7791ZM53.8891 19.132C53.8891 17.3435 54.3051 15.8052 55.1107 14.4849L53.4035 13.4431C52.3851 15.1121 51.8891 17.0191 51.8891 19.132H53.8891ZM55.1107 14.4849C55.9288 13.1442 57.0232 12.1178 58.4077 11.3915L57.4786 9.62045C55.7723 10.5155 54.4094 11.7945 53.4035 13.4431L55.1107 14.4849ZM58.413 11.3887C59.8312 10.6339 61.3912 10.252 63.1111 10.252V8.252C61.0817 8.252 59.1964 8.70611 57.4733 9.62325L58.413 11.3887ZM63.1111 10.252C65.8348 10.252 67.7727 11.1345 69.0913 12.799L70.659 11.557C68.8869 9.32017 66.3155 8.252 63.1111 8.252V10.252ZM70.8751 12.178V9.556H68.8751V12.178H70.8751ZM69.8751 10.556H75.4991V8.556H69.8751V10.556ZM64.2891 25.148C66.0661 25.148 67.602 24.6256 68.8054 23.5148L67.4488 22.0452C66.6762 22.7584 65.6535 23.148 64.2891 23.148V25.148ZM68.8062 23.5141C70.0423 22.3707 70.6471 20.8796 70.6471 19.132H68.6471C68.6471 20.3737 68.2386 21.3147 67.4481 22.0459L68.8062 23.5141ZM70.6471 19.132C70.6471 17.3844 70.0418 15.8999 68.7961 14.7787L67.4581 16.2653C68.2391 16.9681 68.6471 17.8903 68.6471 19.132H70.6471ZM68.8154 14.7965C67.6131 13.6559 66.0737 13.116 64.2891 13.116V15.116C65.6459 15.116 66.6652 15.5134 67.4389 16.2475L68.8154 14.7965ZM64.2891 13.116C62.504 13.116 60.9579 13.6559 59.7341 14.7879L61.0922 16.2561C61.895 15.5135 62.9329 15.116 64.2891 15.116V13.116ZM59.7441 14.7787C58.4984 15.8999 57.8931 17.3844 57.8931 19.132H59.8931C59.8931 17.8903 60.3011 16.9681 61.0821 16.2653L59.7441 14.7787ZM57.8931 19.132C57.8931 20.8796 58.4979 22.3707 59.7341 23.5141L61.0922 22.0459C60.3016 21.3147 59.8931 20.3737 59.8931 19.132H57.8931ZM59.7441 23.5233C60.9689 24.6255 62.5115 25.148 64.2891 25.148V23.148C62.9254 23.148 61.884 22.7585 61.0821 22.0367L59.7441 23.5233ZM94.2034 25.098L94.5545 26.0343L94.5623 26.0314L94.5699 26.0284L94.2034 25.098ZM96.5214 23.578L97.2565 22.9001L96.5633 22.1484L95.8273 22.8582L96.5214 23.578ZM99.6754 26.998L100.429 27.6559L101.019 26.9799L100.411 26.3201L99.6754 26.998ZM85.1214 28.974L84.664 29.8633L84.6742 29.8684L85.1214 28.974ZM81.0174 25.212L80.1611 25.7285L81.0174 25.212ZM80.9794 14.382L80.1196 13.8715L80.1171 13.8756L80.9794 14.382ZM84.8934 10.62L85.3675 11.5005L85.3723 11.4979L84.8934 10.62ZM95.8374 10.506L95.3734 11.3919L95.3846 11.3976L95.8374 10.506ZM99.6374 14.078L98.7787 14.5905L98.7836 14.5986L98.7886 14.6067L99.6374 14.078ZM101.081 19.588L101.271 20.5698L102.081 20.4131V19.588H101.081ZM85.9574 22.514L85.7675 21.5322L84.5534 21.7671L85.0371 22.9051L85.9574 22.514ZM87.9714 24.794L87.4857 25.6682L87.4959 25.6737L87.9714 24.794ZM86.8694 15.18L87.5859 15.8776L86.8694 15.18ZM85.3874 19.17L84.3879 19.1402L84.3505 20.3906L85.5785 20.1516L85.3874 19.17ZM95.3434 17.232L95.5345 18.2136L96.5809 18.0099L96.3108 16.9786L95.3434 17.232ZM93.6334 14.686L93.041 15.4916L93.6334 14.686ZM91.3914 26.554C92.5488 26.554 93.6092 26.3888 94.5545 26.0343L93.8523 24.1617C93.1763 24.4152 92.362 24.554 91.3914 24.554V26.554ZM94.5699 26.0284C95.5392 25.6466 96.421 25.064 97.2156 24.2978L95.8273 22.8582C95.2031 23.46 94.5396 23.8908 93.8369 24.1676L94.5699 26.0284ZM95.7863 24.2559L98.9403 27.6759L100.411 26.3201L97.2565 22.9001L95.7863 24.2559ZM98.9223 26.3401C97.2348 28.2718 94.7314 29.304 91.2394 29.304V31.304C95.1448 31.304 98.2653 30.1322 100.429 27.6559L98.9223 26.3401ZM91.2394 29.304C89.0641 29.304 87.1822 28.8863 85.5686 28.0796L84.6742 29.8684C86.6073 30.835 88.8041 31.304 91.2394 31.304V29.304ZM85.5788 28.0847C83.9584 27.2514 82.7338 26.1215 81.8737 24.6955L80.1611 25.7285C81.2264 27.4945 82.7378 28.8726 84.6641 29.8633L85.5788 28.0847ZM81.8737 24.6955C81.0132 23.2689 80.5734 21.6391 80.5734 19.778H78.5734C78.5734 21.9703 79.0963 23.9631 80.1611 25.7285L81.8737 24.6955ZM80.5734 19.778C80.5734 17.9398 81.0018 16.3185 81.8417 14.8884L80.1171 13.8756C79.0823 15.6375 78.5734 17.6136 78.5734 19.778H80.5734ZM81.8393 14.8925C82.7101 13.4259 83.882 12.3004 85.3675 11.5005L84.4193 9.73953C82.6115 10.713 81.1741 12.0955 80.1196 13.8715L81.8393 14.8925ZM85.3723 11.4979C86.8843 10.6731 88.5919 10.252 90.5174 10.252V8.252C88.2883 8.252 86.2465 8.74285 84.4146 9.7421L85.3723 11.4979ZM90.5174 10.252C92.3201 10.252 93.9322 10.6369 95.3734 11.3918L96.3014 9.62017C94.5506 8.70307 92.616 8.252 90.5174 8.252V10.252ZM95.3846 11.3976C96.8084 12.1208 97.9359 13.1782 98.7787 14.5905L100.496 13.5655C99.4643 11.8364 98.0585 10.5126 96.2903 9.61442L95.3846 11.3976ZM98.7886 14.6067C99.6368 15.9683 100.081 17.6149 100.081 19.588H102.081C102.081 17.3051 101.563 15.2784 100.486 13.5493L98.7886 14.6067ZM100.891 18.6062L85.7675 21.5322L86.1474 23.4958L101.271 20.5698L100.891 18.6062ZM85.0371 22.9051C85.5497 24.1112 86.3679 25.0471 87.4858 25.6682L88.4571 23.9198C87.7509 23.5276 87.2265 22.9435 86.8778 22.1229L85.0371 22.9051ZM87.4959 25.6737C88.6125 26.2773 89.925 26.554 91.3914 26.554V24.554C90.1725 24.554 89.205 24.3241 88.4469 23.9143L87.4959 25.6737ZM90.5174 12.736C88.7863 12.736 87.3006 13.3037 86.153 14.4824L87.5859 15.8776C88.3129 15.1309 89.2592 14.736 90.5174 14.736V12.736ZM86.153 14.4824C84.9984 15.6681 84.444 17.2612 84.3879 19.1402L86.387 19.1998C86.4322 17.6841 86.8657 16.6172 87.5859 15.8776L86.153 14.4824ZM85.5785 20.1516L95.5345 18.2136L95.1524 16.2504L85.1964 18.1884L85.5785 20.1516ZM96.3108 16.9786C95.9759 15.6999 95.2774 14.6536 94.2258 13.8803L93.041 15.4916C93.7121 15.9851 94.1536 16.6361 94.3761 17.4854L96.3108 16.9786ZM94.2258 13.8803C93.1697 13.1038 91.916 12.736 90.5174 12.736V14.736C91.5508 14.736 92.3745 15.0015 93.041 15.4916L94.2258 13.8803ZM121.368 10.544L121.837 9.66088L121.368 10.544ZM125.206 25.326L126.089 25.7959L126.092 25.79L125.206 25.326ZM121.672 29.012L122.165 29.8821L122.176 29.8758L121.672 29.012ZM110.31 27.834L111.056 27.1682L109.31 25.2113V27.834H110.31ZM110.31 37.372V38.372H111.31V37.372H110.31ZM104.382 37.372H103.382V38.372H104.382V37.372ZM105.788 14.306L106.65 14.8124L105.788 14.306ZM109.74 10.582L109.277 9.69565L109.74 10.582ZM119.164 23.882L118.431 23.2022L119.164 23.882ZM119.164 15.712L118.422 16.383L118.431 16.3918L119.164 15.712ZM111.64 15.674L110.907 14.9942L110.898 15.004L111.64 15.674ZM111.64 23.882L112.382 23.212L111.64 23.882ZM115.668 10.252C117.714 10.252 119.447 10.6557 120.899 11.4271L121.837 9.66088C120.047 8.70968 117.98 8.252 115.668 8.252V10.252ZM120.899 11.4271C122.351 12.1984 123.464 13.2895 124.256 14.7156L126.004 13.7444C125.023 11.9785 123.628 10.6123 121.837 9.66088L120.899 11.4271ZM124.256 14.7156C125.047 16.1402 125.46 17.8296 125.46 19.816H127.46C127.46 17.5464 126.986 15.5118 126.004 13.7444L124.256 14.7156ZM125.46 19.816C125.46 21.7566 125.071 23.4297 124.32 24.862L126.092 25.79C127.014 24.0303 127.46 22.0301 127.46 19.816H125.46ZM124.323 24.8561C123.574 26.2648 122.526 27.3562 121.168 28.1482L122.176 29.8758C123.858 28.8944 125.167 27.5285 126.089 25.7958L124.323 24.8561ZM121.179 28.142C119.828 28.9074 118.254 29.304 116.428 29.304V31.304C118.554 31.304 120.476 30.8392 122.165 29.882L121.179 28.142ZM116.428 29.304C114.047 29.304 112.301 28.5632 111.056 27.1682L109.564 28.4998C111.258 30.3982 113.591 31.304 116.428 31.304V29.304ZM109.31 27.834V37.372H111.31V27.834H109.31ZM110.31 36.372H104.382V38.372H110.31V36.372ZM105.382 37.372V19.854H103.382V37.372H105.382ZM105.382 19.854C105.382 17.9047 105.815 16.2349 106.65 14.8124L104.926 13.7996C103.887 15.5691 103.382 17.598 103.382 19.854H105.382ZM106.65 14.8124C107.489 13.3837 108.666 12.2714 110.203 11.4683L109.277 9.69565C107.42 10.6659 105.961 12.0363 104.926 13.7996L106.65 14.8124ZM110.203 11.4683C111.734 10.6685 113.546 10.252 115.668 10.252V8.252C113.281 8.252 111.141 8.72213 109.277 9.69565L110.203 11.4683ZM115.402 26.44C117.198 26.44 118.727 25.8245 119.898 24.5618L118.431 23.2022C117.676 24.0168 116.697 24.44 115.402 24.44V26.44ZM119.898 24.5618C121.062 23.3055 121.608 21.6917 121.608 19.816H119.608C119.608 21.2843 119.192 22.3811 118.431 23.2022L119.898 24.5618ZM121.608 19.816C121.608 17.9195 121.064 16.2913 119.898 15.0322L118.431 16.3918C119.189 17.21 119.608 18.3178 119.608 19.816H121.608ZM119.906 15.0411C118.738 13.7501 117.206 13.116 115.402 13.116V15.116C116.689 15.116 117.665 15.5459 118.423 16.3829L119.906 15.0411ZM115.402 13.116C113.607 13.116 112.077 13.7315 110.907 14.9942L112.374 16.3538C113.129 15.5392 114.107 15.116 115.402 15.116V13.116ZM110.898 15.004C109.761 16.2638 109.234 17.8886 109.234 19.778H111.234C111.234 18.2728 111.645 17.1615 112.382 16.344L110.898 15.004ZM109.234 19.778C109.234 21.6674 109.761 23.2922 110.898 24.552L112.382 23.212C111.645 22.3945 111.234 21.2832 111.234 19.778H109.234ZM110.898 24.552C112.049 25.8278 113.587 26.44 115.402 26.44V24.44C114.076 24.44 113.106 24.0136 112.382 23.212L110.898 24.552ZM150.26 22.248L151.133 21.7602L150.847 21.248H150.26V22.248ZM147.41 22.248V21.248H146.41V22.248H147.41ZM147.41 30V31H148.41V30H147.41ZM141.558 30H140.558V31H141.558V30ZM141.558 22.248H142.558V21.248H141.558V22.248ZM138.708 22.248V21.248H138.122L137.835 21.7602L138.708 22.248ZM134.376 30V31H134.963L135.249 30.4878L134.376 30ZM127.384 30L126.53 29.4805L125.606 31H127.384V30ZM133.806 19.436L134.661 19.9555L134.975 19.4377L134.662 18.9191L133.806 19.436ZM127.84 9.556V8.556H126.068L126.984 10.0729L127.84 9.556ZM134.11 9.556L134.979 9.0612L134.692 8.556H134.11V9.556ZM138.632 17.498L137.763 17.9928L138.051 18.498H138.632V17.498ZM141.558 17.498V18.498H142.558V17.498H141.558ZM141.558 9.556V8.556H140.558V9.556H141.558ZM147.41 9.556H148.41V8.556H147.41V9.556ZM147.41 17.498H146.41V18.498H147.41V17.498ZM150.298 17.498V18.498H150.877L151.165 17.9959L150.298 17.498ZM154.858 9.556V8.556H154.279L153.991 9.05807L154.858 9.556ZM161.128 9.556L161.984 10.0729L162.9 8.556H161.128V9.556ZM155.162 19.436L154.306 18.9191L153.992 19.4393L154.309 19.9577L155.162 19.436ZM161.622 30V31H163.406L162.475 29.4783L161.622 30ZM154.592 30L153.719 30.4878L154.006 31H154.592V30ZM150.26 21.248H147.41V23.248H150.26V21.248ZM146.41 22.248V30H148.41V22.248H146.41ZM147.41 29H141.558V31H147.41V29ZM142.558 30V22.248H140.558V30H142.558ZM141.558 21.248H138.708V23.248H141.558V21.248ZM137.835 21.7602L133.503 29.5122L135.249 30.4878L139.581 22.7358L137.835 21.7602ZM134.376 29H127.384V31H134.376V29ZM128.239 30.5195L134.661 19.9555L132.952 18.9165L126.53 29.4805L128.239 30.5195ZM134.662 18.9191L128.696 9.03908L126.984 10.0729L132.95 19.9529L134.662 18.9191ZM127.84 10.556H134.11V8.556H127.84V10.556ZM133.241 10.0508L137.763 17.9928L139.501 17.0032L134.979 9.0612L133.241 10.0508ZM138.632 18.498H141.558V16.498H138.632V18.498ZM142.558 17.498V9.556H140.558V17.498H142.558ZM141.558 10.556H147.41V8.556H141.558V10.556ZM146.41 9.556V17.498H148.41V9.556H146.41ZM147.41 18.498H150.298V16.498H147.41V18.498ZM151.165 17.9959L155.725 10.0539L153.991 9.05807L149.431 17.0001L151.165 17.9959ZM154.858 10.556H161.128V8.556H154.858V10.556ZM160.272 9.03908L154.306 18.9191L156.018 19.9529L161.984 10.0729L160.272 9.03908ZM154.309 19.9577L160.769 30.5217L162.475 29.4783L156.015 18.9143L154.309 19.9577ZM161.622 29H154.592V31H161.622V29ZM155.465 29.5122L151.133 21.7602L149.387 22.7358L153.719 30.4878L155.465 29.5122ZM184.707 9.556H185.707V8.556H184.707V9.556ZM184.707 30V31H185.707V30H184.707ZM179.045 30H178.045V31H179.045V30ZM179.045 27.644H180.045V24.8697L178.275 27.006L179.045 27.644ZM167.417 29.012L166.93 29.8855L166.936 29.8888L167.417 29.012ZM163.769 25.326L162.895 25.8116L163.769 25.326ZM163.769 14.23L162.895 13.7444L163.769 14.23ZM167.417 10.544L166.936 9.66717L166.93 9.67052L167.417 10.544ZM178.779 11.722L178.033 12.3878L179.779 14.3447V11.722H178.779ZM178.779 9.556V8.556H177.779V9.556H178.779ZM177.411 23.92L178.127 24.6182L178.135 24.6092L177.411 23.92ZM177.411 15.674L176.686 16.3633L176.695 16.3721L177.411 15.674ZM169.925 15.674L170.641 16.3722L170.649 16.3632L169.925 15.674ZM169.925 23.92L169.2 24.6093L169.209 24.6181L169.925 23.92ZM183.707 9.556V30H185.707V9.556H183.707ZM184.707 29H179.045V31H184.707V29ZM180.045 30V27.644H178.045V30H180.045ZM178.275 27.006C177.035 28.5018 175.218 29.304 172.661 29.304V31.304C175.676 31.304 178.115 30.3329 179.815 28.282L178.275 27.006ZM172.661 29.304C170.89 29.304 169.31 28.9097 167.897 28.1352L166.936 29.8888C168.665 30.837 170.58 31.304 172.661 31.304V29.304ZM167.904 28.1385C166.526 27.3709 165.442 26.279 164.643 24.8404L162.895 25.8116C163.869 27.565 165.216 28.9305 166.93 29.8855L167.904 28.1385ZM164.643 24.8404C163.85 23.4141 163.439 21.7368 163.439 19.778H161.439C161.439 22.0246 161.914 24.0459 162.895 25.8116L164.643 24.8404ZM163.439 19.778C163.439 17.8192 163.85 16.1419 164.643 14.7156L162.895 13.7444C161.914 15.5101 161.439 17.5314 161.439 19.778H163.439ZM164.643 14.7156C165.442 13.277 166.526 12.1851 167.904 11.4175L166.93 9.67052C165.216 10.6255 163.869 11.991 162.895 13.7444L164.643 14.7156ZM167.897 11.4208C169.31 10.6463 170.89 10.252 172.661 10.252V8.252C170.58 8.252 168.665 8.71903 166.936 9.66719L167.897 11.4208ZM172.661 10.252C175.042 10.252 176.788 10.9928 178.033 12.3878L179.525 11.0562C177.831 9.15785 175.498 8.252 172.661 8.252V10.252ZM179.779 11.722V9.556H177.779V11.722H179.779ZM178.779 10.556H184.707V8.556H178.779V10.556ZM173.687 26.44C175.434 26.44 176.939 25.8362 178.127 24.6181L176.695 23.2219C175.906 24.0304 174.929 24.44 173.687 24.44V26.44ZM178.135 24.6092C179.335 23.3483 179.893 21.7023 179.893 19.778H177.893C177.893 21.299 177.463 22.4143 176.686 23.2308L178.135 24.6092ZM179.893 19.778C179.893 17.8546 179.335 16.215 178.127 14.9759L176.695 16.3721C177.463 17.1596 177.893 18.256 177.893 19.778H179.893ZM178.135 14.9848C176.95 13.7384 175.442 13.116 173.687 13.116V15.116C174.921 15.116 175.896 15.5323 176.686 16.3632L178.135 14.9848ZM173.687 13.116C171.911 13.116 170.389 13.7347 169.2 14.9848L170.649 16.3632C171.436 15.536 172.422 15.116 173.687 15.116V13.116ZM169.209 14.9759C168.001 16.215 167.443 17.8546 167.443 19.778H169.443C169.443 18.256 169.873 17.1596 170.641 16.3721L169.209 14.9759ZM167.443 19.778C167.443 21.7023 168.001 23.3483 169.2 24.6092L170.649 23.2308C169.873 22.4143 169.443 21.299 169.443 19.778H167.443ZM169.209 24.6181C170.4 25.8398 171.919 26.44 173.687 26.44V24.44C172.414 24.44 171.426 24.0269 170.641 23.2219L169.209 24.6181ZM190.309 9.556V8.556H189.309V9.556H190.309ZM196.199 9.556H197.199V8.556H196.199V9.556ZM196.199 17.536H195.199V18.536H196.199V17.536ZM205.091 17.536V18.536H206.091V17.536H205.091ZM205.091 9.556V8.556H204.091V9.556H205.091ZM211.019 9.556H212.019V8.556H211.019V9.556ZM211.019 30V31H212.019V30H211.019ZM205.091 30H204.091V31H205.091V30ZM205.091 22.362H206.091V21.362H205.091V22.362ZM196.199 22.362V21.362H195.199V22.362H196.199ZM196.199 30V31H197.199V30H196.199ZM190.309 30H189.309V31H190.309V30ZM190.309 10.556H196.199V8.556H190.309V10.556ZM195.199 9.556V17.536H197.199V9.556H195.199ZM196.199 18.536H205.091V16.536H196.199V18.536ZM206.091 17.536V9.556H204.091V17.536H206.091ZM205.091 10.556H211.019V8.556H205.091V10.556ZM210.019 9.556V30H212.019V9.556H210.019ZM211.019 29H205.091V31H211.019V29ZM206.091 30V22.362H204.091V30H206.091ZM205.091 21.362H196.199V23.362H205.091V21.362ZM195.199 22.362V30H197.199V22.362H195.199ZM196.199 29H190.309V31H196.199V29ZM191.309 30V9.556H189.309V30H191.309ZM236.872 9.556H237.872V8.556H236.872V9.556ZM236.872 30V31H237.872V30H236.872ZM231.21 30H230.21V31H231.21V30ZM231.21 27.606H232.21V24.9027L230.451 26.9552L231.21 27.606ZM228.398 29.62L228.019 28.6944L228.012 28.6976L228.398 29.62ZM218.48 27.986L217.778 28.6989L217.784 28.7044L218.48 27.986ZM216.124 9.556V8.556H215.124V9.556H216.124ZM222.052 9.556H223.052V8.556H222.052V9.556ZM229.652 23.806L230.379 24.4927L230.388 24.4826L229.652 23.806ZM230.944 9.556V8.556H229.944V9.556H230.944ZM235.872 9.556V30H237.872V9.556H235.872ZM236.872 29H231.21V31H236.872V29ZM232.21 30V27.606H230.21V30H232.21ZM230.451 26.9552C229.797 27.7175 228.992 28.2966 228.019 28.6945L228.776 30.5455C230.033 30.0314 231.102 29.2678 231.969 28.2568L230.451 26.9552ZM228.012 28.6976C227.051 29.0998 226.017 29.304 224.902 29.304V31.304C226.269 31.304 227.566 31.0522 228.784 30.5424L228.012 28.6976ZM224.902 29.304C222.418 29.304 220.547 28.5959 219.175 27.2676L217.784 28.7044C219.604 30.4668 222.014 31.304 224.902 31.304V29.304ZM219.181 27.2732C217.865 25.9781 217.124 23.9841 217.124 21.108H215.124C215.124 24.3119 215.953 26.9033 217.778 28.6988L219.181 27.2732ZM217.124 21.108V9.556H215.124V21.108H217.124ZM216.124 10.556H222.052V8.556H216.124V10.556ZM221.052 9.556V20.234H223.052V9.556H221.052ZM221.052 20.234C221.052 21.9961 221.417 23.5039 222.321 24.5815C223.253 25.6929 224.608 26.174 226.194 26.174V24.174C225.018 24.174 224.302 23.8318 223.854 23.2965C223.376 22.7274 223.052 21.7653 223.052 20.234H221.052ZM226.194 26.174C227.867 26.174 229.299 25.6355 230.379 24.4926L228.925 23.1194C228.281 23.8005 227.408 24.174 226.194 24.174V26.174ZM230.388 24.4826C231.48 23.2944 231.944 21.6308 231.944 19.664H229.944C229.944 21.3452 229.546 22.443 228.915 23.1294L230.388 24.4826ZM231.944 19.664V9.556H229.944V19.664H231.944ZM230.944 10.556H236.872V8.556H230.944V10.556ZM255.518 25.098L255.869 26.0343L255.877 26.0314L255.884 26.0284L255.518 25.098ZM257.836 23.578L258.571 22.9001L257.878 22.1484L257.142 22.8582L257.836 23.578ZM260.99 26.998L261.743 27.6559L262.334 26.9799L261.725 26.3201L260.99 26.998ZM246.436 28.974L245.979 29.8633L245.989 29.8684L246.436 28.974ZM242.332 25.212L241.476 25.7285L242.332 25.212ZM242.294 14.382L241.434 13.8715L241.432 13.8756L242.294 14.382ZM246.208 10.62L246.682 11.5005L246.687 11.4979L246.208 10.62ZM257.152 10.506L256.688 11.3919L256.699 11.3976L257.152 10.506ZM260.952 14.078L260.093 14.5905L260.098 14.5986L260.103 14.6067L260.952 14.078ZM262.396 19.588L262.586 20.5698L263.396 20.4131V19.588H262.396ZM247.272 22.514L247.082 21.5322L245.868 21.7671L246.352 22.9051L247.272 22.514ZM249.286 24.794L248.8 25.6682L248.81 25.6737L249.286 24.794ZM248.184 15.18L248.9 15.8776L248.184 15.18ZM246.702 19.17L245.702 19.1402L245.665 20.3906L246.893 20.1516L246.702 19.17ZM256.658 17.232L256.849 18.2136L257.895 18.0099L257.625 16.9786L256.658 17.232ZM254.948 14.686L254.355 15.4916L254.948 14.686ZM252.706 26.554C253.863 26.554 254.924 26.3888 255.869 26.0343L255.167 24.1617C254.491 24.4152 253.676 24.554 252.706 24.554V26.554ZM255.884 26.0284C256.854 25.6466 257.736 25.064 258.53 24.2978L257.142 22.8582C256.518 23.46 255.854 23.8908 255.151 24.1676L255.884 26.0284ZM257.101 24.2559L260.255 27.6759L261.725 26.3201L258.571 22.9001L257.101 24.2559ZM260.237 26.3401C258.549 28.2718 256.046 29.304 252.554 29.304V31.304C256.459 31.304 259.58 30.1322 261.743 27.6559L260.237 26.3401ZM252.554 29.304C250.379 29.304 248.497 28.8863 246.883 28.0796L245.989 29.8684C247.922 30.835 250.119 31.304 252.554 31.304V29.304ZM246.893 28.0847C245.273 27.2514 244.048 26.1215 243.188 24.6955L241.476 25.7285C242.541 27.4945 244.052 28.8726 245.979 29.8633L246.893 28.0847ZM243.188 24.6955C242.328 23.2689 241.888 21.6391 241.888 19.778H239.888C239.888 21.9703 240.411 23.9631 241.476 25.7285L243.188 24.6955ZM241.888 19.778C241.888 17.9398 242.316 16.3185 243.156 14.8884L241.432 13.8756C240.397 15.6375 239.888 17.6136 239.888 19.778H241.888ZM243.154 14.8925C244.025 13.4259 245.196 12.3004 246.682 11.5005L245.734 9.73953C243.926 10.713 242.489 12.0955 241.434 13.8715L243.154 14.8925ZM246.687 11.4979C248.199 10.6731 249.906 10.252 251.832 10.252V8.252C249.603 8.252 247.561 8.74285 245.729 9.7421L246.687 11.4979ZM251.832 10.252C253.635 10.252 255.247 10.6369 256.688 11.3918L257.616 9.62017C255.865 8.70307 253.93 8.252 251.832 8.252V10.252ZM256.699 11.3976C258.123 12.1208 259.25 13.1782 260.093 14.5905L261.811 13.5655C260.779 11.8364 259.373 10.5126 257.605 9.61442L256.699 11.3976ZM260.103 14.6067C260.951 15.9683 261.396 17.6149 261.396 19.588H263.396C263.396 17.3051 262.878 15.2784 261.801 13.5493L260.103 14.6067ZM262.206 18.6062L247.082 21.5322L247.462 23.4958L262.586 20.5698L262.206 18.6062ZM246.352 22.9051C246.864 24.1112 247.682 25.0471 248.8 25.6682L249.772 23.9198C249.065 23.5276 248.541 22.9435 248.192 22.1229L246.352 22.9051ZM248.81 25.6737C249.927 26.2773 251.24 26.554 252.706 26.554V24.554C251.487 24.554 250.519 24.3241 249.761 23.9143L248.81 25.6737ZM251.832 12.736C250.101 12.736 248.615 13.3037 247.467 14.4824L248.9 15.8776C249.627 15.1309 250.574 14.736 251.832 14.736V12.736ZM247.467 14.4824C246.313 15.6681 245.758 17.2612 245.702 19.1402L247.701 19.1998C247.747 17.6841 248.18 16.6172 248.9 15.8776L247.467 14.4824ZM246.893 20.1516L256.849 18.2136L256.467 16.2504L246.511 18.1884L246.893 20.1516ZM257.625 16.9786C257.29 15.6999 256.592 14.6536 255.54 13.8803L254.355 15.4916C255.027 15.9851 255.468 16.6361 255.691 17.4854L257.625 16.9786ZM255.54 13.8803C254.484 13.1038 253.23 12.736 251.832 12.736V14.736C252.865 14.736 253.689 15.0015 254.355 15.4916L255.54 13.8803ZM293.634 14.42V15.42H294.634V14.42H293.634ZM283.146 14.42V13.42H282.146V14.42H283.146ZM283.146 30V31H284.146V30H283.146ZM277.256 30H276.256V31H277.256V30ZM277.256 9.556V8.556H276.256V9.556H277.256ZM293.634 9.556H294.634V8.556H293.634V9.556ZM293.634 13.42H283.146V15.42H293.634V13.42ZM282.146 14.42V30H284.146V14.42H282.146ZM283.146 29H277.256V31H283.146V29ZM278.256 30V9.556H276.256V30H278.256ZM277.256 10.556H293.634V8.556H277.256V10.556ZM292.634 9.556V14.42H294.634V9.556H292.634ZM316.556 9.556H317.556V8.556H316.556V9.556ZM316.556 30V31H317.556V30H316.556ZM310.894 30H309.894V31H310.894V30ZM310.894 27.644H311.894V24.8697L310.124 27.006L310.894 27.644ZM299.266 29.012L298.779 29.8855L298.785 29.8888L299.266 29.012ZM295.618 25.326L294.744 25.8116L295.618 25.326ZM295.618 14.23L294.744 13.7444L295.618 14.23ZM299.266 10.544L298.785 9.66717L298.779 9.67052L299.266 10.544ZM310.628 11.722L309.882 12.3878L311.628 14.3447V11.722H310.628ZM310.628 9.556V8.556H309.628V9.556H310.628ZM309.26 23.92L309.976 24.6182L309.985 24.6092L309.26 23.92ZM309.26 15.674L308.536 16.3633L308.544 16.3721L309.26 15.674ZM301.774 15.674L302.49 16.3722L302.499 16.3632L301.774 15.674ZM301.774 23.92L301.05 24.6093L301.058 24.6181L301.774 23.92ZM315.556 9.556V30H317.556V9.556H315.556ZM316.556 29H310.894V31H316.556V29ZM311.894 30V27.644H309.894V30H311.894ZM310.124 27.006C308.885 28.5018 307.068 29.304 304.51 29.304V31.304C307.526 31.304 309.965 30.3329 311.664 28.282L310.124 27.006ZM304.51 29.304C302.74 29.304 301.159 28.9097 299.747 28.1352L298.785 29.8888C300.514 30.837 302.43 31.304 304.51 31.304V29.304ZM299.753 28.1385C298.376 27.3709 297.292 26.279 296.492 24.8404L294.744 25.8116C295.718 27.565 297.066 28.9305 298.779 29.8855L299.753 28.1385ZM296.492 24.8404C295.7 23.4141 295.288 21.7368 295.288 19.778H293.288C293.288 22.0246 293.763 24.0459 294.744 25.8116L296.492 24.8404ZM295.288 19.778C295.288 17.8192 295.7 16.1419 296.492 14.7156L294.744 13.7444C293.763 15.5101 293.288 17.5314 293.288 19.778H295.288ZM296.492 14.7156C297.292 13.277 298.376 12.1851 299.753 11.4175L298.779 9.67052C297.066 10.6255 295.718 11.991 294.744 13.7444L296.492 14.7156ZM299.747 11.4208C301.159 10.6463 302.74 10.252 304.51 10.252V8.252C302.43 8.252 300.514 8.71903 298.785 9.66719L299.747 11.4208ZM304.51 10.252C306.892 10.252 308.637 10.9928 309.882 12.3878L311.374 11.0562C309.68 9.15785 307.348 8.252 304.51 8.252V10.252ZM311.628 11.722V9.556H309.628V11.722H311.628ZM310.628 10.556H316.556V8.556H310.628V10.556ZM305.536 26.44C307.284 26.44 308.789 25.8362 309.976 24.6181L308.544 23.2219C307.756 24.0304 306.778 24.44 305.536 24.44V26.44ZM309.985 24.6092C311.184 23.3483 311.742 21.7023 311.742 19.778H309.742C309.742 21.299 309.312 22.4143 308.536 23.2308L309.985 24.6092ZM311.742 19.778C311.742 17.8546 311.184 16.215 309.976 14.9759L308.544 16.3721C309.312 17.1596 309.742 18.256 309.742 19.778H311.742ZM309.985 14.9848C308.799 13.7384 307.292 13.116 305.536 13.116V15.116C306.77 15.116 307.745 15.5323 308.536 16.3632L309.985 14.9848ZM305.536 13.116C303.761 13.116 302.239 13.7347 301.05 14.9848L302.499 16.3632C303.286 15.536 304.272 15.116 305.536 15.116V13.116ZM301.058 14.9759C299.85 16.215 299.292 17.8546 299.292 19.778H301.292C301.292 18.256 301.722 17.1596 302.49 16.3721L301.058 14.9759ZM299.292 19.778C299.292 21.7023 299.85 23.3483 301.05 24.6092L302.499 23.2308C301.722 22.4143 301.292 21.299 301.292 19.778H299.292ZM301.058 24.6181C302.249 25.8398 303.769 26.44 305.536 26.44V24.44C304.264 24.44 303.275 24.0269 302.49 23.2219L301.058 24.6181ZM342.337 9.556H343.337V8.556H342.337V9.556ZM342.337 30V31H343.337V30H342.337ZM336.675 30H335.675V31H336.675V30ZM336.675 27.606H337.675V24.9027L335.915 26.9552L336.675 27.606ZM333.863 29.62L333.484 28.6944L333.476 28.6976L333.863 29.62ZM323.945 27.986L323.243 28.6989L323.249 28.7044L323.945 27.986ZM321.589 9.556V8.556H320.589V9.556H321.589ZM327.517 9.556H328.517V8.556H327.517V9.556ZM335.117 23.806L335.844 24.4927L335.853 24.4826L335.117 23.806ZM336.409 9.556V8.556H335.409V9.556H336.409ZM325.085 1.462V0.461998H324.078L324.085 1.46845L325.085 1.462ZM328.961 1.462L329.96 1.43344L329.932 0.461998H328.961V1.462ZM329.683 3.552L328.939 4.22096L328.957 4.24051L328.975 4.25911L329.683 3.552ZM333.863 3.552L333.155 2.84489L333.863 3.552ZM334.623 1.462V0.461998H333.623V1.462H334.623ZM338.575 1.462L339.575 1.46845L339.581 0.461998H338.575V1.462ZM341.337 9.556V30H343.337V9.556H341.337ZM342.337 29H336.675V31H342.337V29ZM337.675 30V27.606H335.675V30H337.675ZM335.915 26.9552C335.262 27.7175 334.457 28.2966 333.484 28.6945L334.241 30.5455C335.498 30.0314 336.567 29.2678 337.434 28.2568L335.915 26.9552ZM333.476 28.6976C332.516 29.0998 331.482 29.304 330.367 29.304V31.304C331.734 31.304 333.031 31.0522 334.249 30.5424L333.476 28.6976ZM330.367 29.304C327.883 29.304 326.012 28.5959 324.64 27.2676L323.249 28.7044C325.069 30.4668 327.479 31.304 330.367 31.304V29.304ZM324.646 27.2732C323.33 25.9781 322.589 23.9841 322.589 21.108H320.589C320.589 24.3119 321.418 26.9033 323.243 28.6988L324.646 27.2732ZM322.589 21.108V9.556H320.589V21.108H322.589ZM321.589 10.556H327.517V8.556H321.589V10.556ZM326.517 9.556V20.234H328.517V9.556H326.517ZM326.517 20.234C326.517 21.9961 326.882 23.5039 327.786 24.5815C328.718 25.6929 330.073 26.174 331.659 26.174V24.174C330.483 24.174 329.767 23.8318 329.318 23.2965C328.841 22.7274 328.517 21.7653 328.517 20.234H326.517ZM331.659 26.174C333.332 26.174 334.764 25.6355 335.844 24.4926L334.39 23.1194C333.746 23.8005 332.873 24.174 331.659 24.174V26.174ZM335.853 24.4826C336.945 23.2944 337.409 21.6308 337.409 19.664H335.409C335.409 21.3452 335.011 22.443 334.38 23.1294L335.853 24.4826ZM337.409 19.664V9.556H335.409V19.664H337.409ZM336.409 10.556H342.337V8.556H336.409V10.556ZM331.811 6.352C329.707 6.352 328.311 5.88619 327.444 5.12719C326.601 4.3891 326.096 3.22899 326.085 1.45555L324.085 1.46845C324.099 3.62168 324.727 5.40656 326.126 6.63181C327.502 7.83614 329.456 8.352 331.811 8.352V6.352ZM325.085 2.462H328.961V0.461998H325.085V2.462ZM327.961 1.49056C327.991 2.54164 328.282 3.49057 328.939 4.22096L330.426 2.88303C330.171 2.6001 329.981 2.15569 329.96 1.43344L327.961 1.49056ZM328.975 4.25911C329.701 4.9848 330.688 5.274 331.773 5.274V3.274C331.033 3.274 330.627 3.08186 330.39 2.84489L328.975 4.25911ZM331.773 5.274C332.857 5.274 333.844 4.9848 334.57 4.25911L333.155 2.84489C332.919 3.08186 332.512 3.274 331.773 3.274V5.274ZM334.57 4.25911C335.306 3.52247 335.623 2.54714 335.623 1.462H333.623C333.623 2.15019 333.432 2.5682 333.155 2.84489L334.57 4.25911ZM334.623 2.462H338.575V0.461998H334.623V2.462ZM337.575 1.45555C337.563 3.22726 337.056 4.38678 336.208 5.12535C335.335 5.88567 333.928 6.352 331.811 6.352V8.352C334.177 8.352 336.14 7.83667 337.521 6.63365C338.928 5.40888 339.561 3.6234 339.575 1.46845L337.575 1.45555ZM368.849 9.556H369.849V8.556H368.849V9.556ZM365.923 34.94L366.606 35.6704L365.923 34.94ZM351.749 36.954L351.487 37.9191L351.749 36.954ZM347.341 34.864L346.466 34.3797L346.053 35.1259L346.724 35.6515L347.341 34.864ZM349.697 30.608L350.332 29.8361L349.404 29.0717L348.822 30.1237L349.697 30.608ZM352.965 32.28L353.275 31.3295L353.267 31.3268L353.259 31.3242L352.965 32.28ZM361.439 31.52L360.76 30.7852L360.751 30.7942L360.741 30.8035L361.439 31.52ZM362.921 26.466H363.921V23.8822L362.181 25.7928L362.921 26.466ZM351.293 27.796L350.817 28.6755L350.825 28.6802L350.834 28.6846L351.293 27.796ZM347.607 24.3L348.46 23.7791L347.607 24.3ZM347.607 13.964L348.46 14.4849L347.607 13.964ZM351.293 10.506L351.757 11.3916L351.763 11.3887L351.293 10.506ZM363.225 12.178L362.441 12.799L364.225 15.0507V12.178H363.225ZM363.225 9.556V8.556H362.225V9.556H363.225ZM361.477 22.78L362.155 23.5148L362.156 23.5141L361.477 22.78ZM361.477 15.522L360.788 16.2475L360.798 16.2565L360.808 16.2653L361.477 15.522ZM353.763 15.522L354.432 16.2654L354.442 16.2561L353.763 15.522ZM353.763 22.78L353.084 23.5142L353.094 23.5233L353.763 22.78ZM367.849 9.556V26.58H369.849V9.556H367.849ZM367.849 26.58C367.849 30.1671 366.917 32.6408 365.24 34.2096L366.606 35.6704C368.829 33.5912 369.849 30.4916 369.849 26.58H367.849ZM365.24 34.2096C363.538 35.801 360.971 36.676 357.373 36.676V38.676C361.273 38.676 364.406 37.727 366.606 35.6704L365.24 34.2096ZM357.373 36.676C355.479 36.676 353.692 36.4454 352.011 35.9889L351.487 37.9191C353.352 38.4253 355.315 38.676 357.373 38.676V36.676ZM352.011 35.9889C350.336 35.5344 348.995 34.889 347.957 34.0765L346.724 35.6515C348.017 36.663 349.615 37.411 351.487 37.9191L352.011 35.9889ZM348.216 35.3483L350.572 31.0923L348.822 30.1237L346.466 34.3797L348.216 35.3483ZM349.061 31.3799C350.044 32.1893 351.257 32.8008 352.671 33.2358L353.259 31.3242C352.038 30.9485 351.072 30.4454 350.332 29.8361L349.061 31.3799ZM352.654 33.2305C354.066 33.6922 355.488 33.926 356.917 33.926V31.926C355.71 31.926 354.498 31.7291 353.275 31.3295L352.654 33.2305ZM356.917 33.926C359.095 33.926 360.909 33.4316 362.136 32.2365L360.741 30.8035C360.043 31.4831 358.842 31.926 356.917 31.926V33.926ZM362.117 32.2548C363.381 31.0883 363.921 29.3805 363.921 27.34H361.921C361.921 29.0488 361.473 30.1277 360.76 30.7852L362.117 32.2548ZM363.921 27.34V26.466H361.921V27.34H363.921ZM362.181 25.7928C360.864 27.2401 359.003 28.012 356.461 28.012V30.012C359.441 30.012 361.887 29.0865 363.66 27.1392L362.181 25.7928ZM356.461 28.012C354.736 28.012 353.172 27.6404 351.751 26.9074L350.834 28.6846C352.555 29.5729 354.436 30.012 356.461 30.012V28.012ZM351.769 26.9165C350.378 26.1642 349.28 25.1224 348.46 23.7791L346.753 24.8209C347.757 26.4669 349.117 27.7558 350.817 28.6755L351.769 26.9165ZM348.46 23.7791C347.655 22.4588 347.239 20.9205 347.239 19.132H345.239C345.239 21.2449 345.735 23.1519 346.753 24.8209L348.46 23.7791ZM347.239 19.132C347.239 17.3435 347.655 15.8052 348.46 14.4849L346.753 13.4431C345.735 15.1121 345.239 17.0191 345.239 19.132H347.239ZM348.46 14.4849C349.278 13.1442 350.373 12.1178 351.757 11.3915L350.828 9.62045C349.122 10.5155 347.759 11.7945 346.753 13.4431L348.46 14.4849ZM351.763 11.3887C353.181 10.6339 354.741 10.252 356.461 10.252V8.252C354.431 8.252 352.546 8.70611 350.823 9.62325L351.763 11.3887ZM356.461 10.252C359.184 10.252 361.122 11.1345 362.441 12.799L364.009 11.557C362.237 9.32017 359.665 8.252 356.461 8.252V10.252ZM364.225 12.178V9.556H362.225V12.178H364.225ZM363.225 10.556H368.849V8.556H363.225V10.556ZM357.639 25.148C359.416 25.148 360.952 24.6256 362.155 23.5148L360.798 22.0452C360.026 22.7584 359.003 23.148 357.639 23.148V25.148ZM362.156 23.5141C363.392 22.3707 363.997 20.8796 363.997 19.132H361.997C361.997 20.3737 361.588 21.3147 360.798 22.0459L362.156 23.5141ZM363.997 19.132C363.997 17.3844 363.391 15.8999 362.146 14.7787L360.808 16.2653C361.589 16.9681 361.997 17.8903 361.997 19.132H363.997ZM362.165 14.7965C360.963 13.6559 359.423 13.116 357.639 13.116V15.116C358.995 15.116 360.015 15.5134 360.788 16.2475L362.165 14.7965ZM357.639 13.116C355.854 13.116 354.307 13.6559 353.084 14.7879L354.442 16.2561C355.245 15.5135 356.283 15.116 357.639 15.116V13.116ZM353.094 14.7787C351.848 15.8999 351.243 17.3844 351.243 19.132H353.243C353.243 17.8903 353.651 16.9681 354.432 16.2653L353.094 14.7787ZM351.243 19.132C351.243 20.8796 351.848 22.3707 353.084 23.5141L354.442 22.0459C353.651 21.3147 353.243 20.3737 353.243 19.132H351.243ZM353.094 23.5233C354.318 24.6255 355.861 25.148 357.639 25.148V23.148C356.275 23.148 355.234 22.7585 354.432 22.0367L353.094 23.5233ZM395.191 9.556H396.191V8.556H395.191V9.556ZM395.191 30V31H396.191V30H395.191ZM389.529 30H388.529V31H389.529V30ZM389.529 27.644H390.529V24.8697L388.759 27.006L389.529 27.644ZM377.901 29.012L377.414 29.8855L377.42 29.8888L377.901 29.012ZM374.253 25.326L373.379 25.8116L374.253 25.326ZM374.253 14.23L373.379 13.7444L374.253 14.23ZM377.901 10.544L377.42 9.66717L377.414 9.67052L377.901 10.544ZM389.263 11.722L388.517 12.3878L390.263 14.3447V11.722H389.263ZM389.263 9.556V8.556H388.263V9.556H389.263ZM387.895 23.92L388.611 24.6182L388.62 24.6092L387.895 23.92ZM387.895 15.674L387.17 16.3633L387.179 16.3721L387.895 15.674ZM380.409 15.674L381.125 16.3722L381.134 16.3632L380.409 15.674ZM380.409 23.92L379.684 24.6093L379.693 24.6181L380.409 23.92ZM394.191 9.556V30H396.191V9.556H394.191ZM395.191 29H389.529V31H395.191V29ZM390.529 30V27.644H388.529V30H390.529ZM388.759 27.006C387.52 28.5018 385.703 29.304 383.145 29.304V31.304C386.161 31.304 388.6 30.3329 390.299 28.282L388.759 27.006ZM383.145 29.304C381.375 29.304 379.794 28.9097 378.382 28.1352L377.42 29.8888C379.149 30.837 381.065 31.304 383.145 31.304V29.304ZM378.388 28.1385C377.011 27.3709 375.926 26.279 375.127 24.8404L373.379 25.8116C374.353 27.565 375.701 28.9305 377.414 29.8855L378.388 28.1385ZM375.127 24.8404C374.335 23.4141 373.923 21.7368 373.923 19.778H371.923C371.923 22.0246 372.398 24.0459 373.379 25.8116L375.127 24.8404ZM373.923 19.778C373.923 17.8192 374.335 16.1419 375.127 14.7156L373.379 13.7444C372.398 15.5101 371.923 17.5314 371.923 19.778H373.923ZM375.127 14.7156C375.926 13.277 377.011 12.1851 378.388 11.4175L377.414 9.67052C375.701 10.6255 374.353 11.991 373.379 13.7444L375.127 14.7156ZM378.382 11.4208C379.794 10.6463 381.375 10.252 383.145 10.252V8.252C381.065 8.252 379.149 8.71903 377.42 9.66719L378.382 11.4208ZM383.145 10.252C385.526 10.252 387.272 10.9928 388.517 12.3878L390.009 11.0562C388.315 9.15785 385.982 8.252 383.145 8.252V10.252ZM390.263 11.722V9.556H388.263V11.722H390.263ZM389.263 10.556H395.191V8.556H389.263V10.556ZM384.171 26.44C385.918 26.44 387.423 25.8362 388.611 24.6181L387.179 23.2219C386.391 24.0304 385.413 24.44 384.171 24.44V26.44ZM388.62 24.6092C389.819 23.3483 390.377 21.7023 390.377 19.778H388.377C388.377 21.299 387.947 22.4143 387.17 23.2308L388.62 24.6092ZM390.377 19.778C390.377 17.8546 389.819 16.215 388.611 14.9759L387.179 16.3721C387.947 17.1596 388.377 18.256 388.377 19.778H390.377ZM388.62 14.9848C387.434 13.7384 385.926 13.116 384.171 13.116V15.116C385.405 15.116 386.38 15.5323 387.17 16.3632L388.62 14.9848ZM384.171 13.116C382.396 13.116 380.874 13.7347 379.684 14.9848L381.134 16.3632C381.92 15.536 382.906 15.116 384.171 15.116V13.116ZM379.693 14.9759C378.485 16.215 377.927 17.8546 377.927 19.778H379.927C379.927 18.256 380.357 17.1596 381.125 16.3721L379.693 14.9759ZM377.927 19.778C377.927 21.7023 378.485 23.3483 379.684 24.6092L381.134 23.2308C380.357 22.4143 379.927 21.299 379.927 19.778H377.927ZM379.693 24.6181C380.884 25.8398 382.404 26.44 384.171 26.44V24.44C382.898 24.44 381.91 24.0269 381.125 23.2219L379.693 24.6181Z" fill="#E6F7FF"/>
</svg>
