<svg width="361" height="61" viewBox="0 0 361 61" fill="none" xmlns="http://www.w3.org/2000/svg">
<path d="M316.55 48.3C313.85 48.3 311.433 47.5833 309.3 46.15C307.2 44.7167 305.55 42.6667 304.35 40C303.183 37.3 302.6 34.1333 302.6 30.5C302.6 26.8667 303.183 23.7167 304.35 21.05C305.55 18.35 307.2 16.2833 309.3 14.85C311.433 13.4167 313.85 12.7 316.55 12.7C319.25 12.7 321.65 13.4167 323.75 14.85C325.883 16.2833 327.55 18.35 328.75 21.05C329.95 23.7167 330.55 26.8667 330.55 30.5C330.55 34.1333 329.95 37.3 328.75 40C327.55 42.6667 325.883 44.7167 323.75 46.15C321.65 47.5833 319.25 48.3 316.55 48.3ZM316.55 45C318.583 45 320.367 44.4333 321.9 43.3C323.467 42.1667 324.683 40.5167 325.55 38.35C326.417 36.1833 326.85 33.5667 326.85 30.5C326.85 27.4333 326.417 24.8167 325.55 22.65C324.683 20.4833 323.467 18.8333 321.9 17.7C320.367 16.5667 318.583 16 316.55 16C314.517 16 312.717 16.5667 311.15 17.7C309.617 18.8333 308.417 20.4833 307.55 22.65C306.683 24.8167 306.25 27.4333 306.25 30.5C306.25 33.5667 306.683 36.1833 307.55 38.35C308.417 40.5167 309.617 42.1667 311.15 43.3C312.717 44.4333 314.517 45 316.55 45ZM347.117 28C350.784 28.2 353.567 29.2 355.467 31C357.401 32.7667 358.367 35.0833 358.367 37.95C358.367 39.95 357.884 41.7333 356.917 43.3C355.951 44.8333 354.517 46.05 352.617 46.95C350.717 47.85 348.401 48.3 345.667 48.3C343.134 48.3 340.734 47.9 338.467 47.1C336.234 46.2667 334.434 45.1667 333.067 43.8L334.817 40.95C335.984 42.15 337.534 43.1333 339.467 43.9C341.401 44.6333 343.467 45 345.667 45C348.534 45 350.751 44.3833 352.317 43.15C353.884 41.8833 354.667 40.15 354.667 37.95C354.667 35.7833 353.884 34.0833 352.317 32.85C350.751 31.6167 348.384 31 345.217 31H342.717V28.35L352.417 16.2H334.517V13H357.017V15.55L347.117 28Z" fill="#FF7875"/>
<path d="M309.3 46.15L308.736 46.976L308.742 46.98L309.3 46.15ZM304.35 40L303.432 40.3967L303.435 40.4035L303.438 40.4104L304.35 40ZM304.35 21.05L303.436 20.6439L303.434 20.6492L304.35 21.05ZM309.3 14.85L308.742 14.0199L308.736 14.024L309.3 14.85ZM323.75 14.85L323.186 15.676L323.192 15.68L323.75 14.85ZM328.75 21.05L327.836 21.4561L327.838 21.4604L328.75 21.05ZM328.75 40L329.662 40.4104L329.664 40.4061L328.75 40ZM323.75 46.15L323.192 45.3199L323.186 45.3241L323.75 46.15ZM321.9 43.3L321.314 42.4897L321.306 42.4958L321.9 43.3ZM325.55 38.35L326.478 38.7214L325.55 38.35ZM325.55 22.65L326.478 22.2786L325.55 22.65ZM321.9 17.7L321.306 18.5042L321.314 18.5102L321.9 17.7ZM311.15 17.7L310.564 16.8897L310.556 16.8958L311.15 17.7ZM307.55 22.65L308.478 23.0214L307.55 22.65ZM307.55 38.35L308.478 37.9786L307.55 38.35ZM311.15 43.3L310.556 44.1042L310.564 44.1102L311.15 43.3ZM316.55 47.3C314.038 47.3 311.818 46.6367 309.858 45.32L308.742 46.98C311.049 48.5299 313.662 49.3 316.55 49.3V47.3ZM309.864 45.3241C307.938 44.0094 306.398 42.1141 305.262 39.5896L303.438 40.4104C304.702 43.2193 306.462 45.424 308.736 46.9759L309.864 45.3241ZM305.268 39.6033C304.167 37.0544 303.6 34.0281 303.6 30.5H301.6C301.6 34.2386 302.2 37.5456 303.432 40.3967L305.268 39.6033ZM303.6 30.5C303.6 26.9714 304.167 23.9639 305.266 21.4508L303.434 20.6492C302.2 23.4695 301.6 26.7619 301.6 30.5H303.6ZM305.264 21.4561C306.401 18.8979 307.941 16.9886 309.864 15.6759L308.736 14.024C306.459 15.5781 304.699 17.8021 303.436 20.6439L305.264 21.4561ZM309.858 15.68C311.818 14.3633 314.038 13.7 316.55 13.7V11.7C313.662 11.7 311.049 12.4701 308.742 14.0199L309.858 15.68ZM316.55 13.7C319.062 13.7 321.263 14.3632 323.186 15.6759L324.314 14.024C322.037 12.4701 319.438 11.7 316.55 11.7V13.7ZM323.192 15.68C325.147 16.9934 326.701 18.9018 327.836 21.4561L329.664 20.6439C328.399 17.7982 326.62 15.5732 324.308 14.0199L323.192 15.68ZM327.838 21.4604C328.968 23.9707 329.55 26.9748 329.55 30.5H331.55C331.55 26.7585 330.932 23.4626 329.662 20.6396L327.838 21.4604ZM329.55 30.5C329.55 34.0247 328.968 37.0475 327.836 39.5939L329.664 40.4061C330.932 37.5525 331.55 34.2419 331.55 30.5H329.55ZM327.838 39.5896C326.704 42.1101 325.15 44.0045 323.192 45.32L324.308 46.98C326.616 45.4288 328.396 43.2232 329.662 40.4104L327.838 39.5896ZM323.186 45.3241C321.263 46.6368 319.062 47.3 316.55 47.3V49.3C319.438 49.3 322.037 48.5299 324.314 46.9759L323.186 45.3241ZM316.55 46C318.782 46 320.777 45.3734 322.494 44.1042L321.306 42.4958C319.956 43.4933 318.384 44 316.55 44V46ZM322.486 44.1102C324.235 42.8449 325.556 41.0272 326.478 38.7214L324.622 37.9786C323.81 40.0062 322.698 41.4884 321.314 42.4898L322.486 44.1102ZM326.478 38.7214C327.405 36.4059 327.85 33.656 327.85 30.5H325.85C325.85 33.4773 325.429 35.9608 324.622 37.9786L326.478 38.7214ZM327.85 30.5C327.85 27.344 327.405 24.5941 326.478 22.2786L324.622 23.0214C325.429 25.0392 325.85 27.5227 325.85 30.5H327.85ZM326.478 22.2786C325.556 19.9728 324.235 18.1551 322.486 16.8898L321.314 18.5102C322.698 19.5116 323.81 20.9938 324.622 23.0214L326.478 22.2786ZM322.494 16.8958C320.777 15.6266 318.782 15 316.55 15V17C318.384 17 319.956 17.5067 321.306 18.5042L322.494 16.8958ZM316.55 15C314.318 15 312.31 15.6265 310.564 16.8898L311.736 18.5102C313.123 17.5069 314.716 17 316.55 17V15ZM310.556 16.8958C308.843 18.162 307.542 19.9781 306.622 22.2786L308.478 23.0214C309.292 20.9886 310.391 19.5047 311.744 18.5042L310.556 16.8958ZM306.622 22.2786C305.695 24.5941 305.25 27.344 305.25 30.5H307.25C307.25 27.5227 307.671 25.0392 308.478 23.0214L306.622 22.2786ZM305.25 30.5C305.25 33.656 305.695 36.4059 306.622 38.7214L308.478 37.9786C307.671 35.9608 307.25 33.4773 307.25 30.5H305.25ZM306.622 38.7214C307.542 41.0219 308.843 42.838 310.556 44.1042L311.744 42.4958C310.391 41.4953 309.292 40.0114 308.478 37.9786L306.622 38.7214ZM310.564 44.1102C312.31 45.3735 314.318 46 316.55 46V44C314.716 44 313.123 43.4931 311.736 42.4898L310.564 44.1102ZM347.117 28L346.334 27.3776L345.129 28.8931L347.063 28.9985L347.117 28ZM355.467 31L354.779 31.726L354.786 31.7321L354.793 31.7382L355.467 31ZM356.917 43.3L357.763 43.8333L357.768 43.8251L356.917 43.3ZM352.617 46.95L352.189 46.0463L352.617 46.95ZM338.467 47.1L338.118 48.0369L338.126 48.04L338.134 48.043L338.467 47.1ZM333.067 43.8L332.215 43.2767L331.802 43.9492L332.36 44.5071L333.067 43.8ZM334.817 40.95L335.534 40.2529L334.638 39.331L333.965 40.4267L334.817 40.95ZM339.467 43.9L339.099 44.8296L339.106 44.8323L339.113 44.835L339.467 43.9ZM352.317 43.15L352.936 43.9358L352.946 43.9276L352.317 43.15ZM352.317 32.85L352.936 32.0643L352.317 32.85ZM342.717 31H341.717V32H342.717V31ZM342.717 28.35L341.936 27.7261L341.717 27.9998V28.35H342.717ZM352.417 16.2L353.199 16.8239L354.495 15.2H352.417V16.2ZM334.517 16.2H333.517V17.2H334.517V16.2ZM334.517 13V12H333.517V13H334.517ZM357.017 13H358.017V12H357.017V13ZM357.017 15.55L357.8 16.1724L358.017 15.8991V15.55H357.017ZM347.063 28.9985C350.587 29.1908 353.11 30.144 354.779 31.726L356.155 30.274C354.025 28.256 350.981 27.2092 347.172 27.0015L347.063 28.9985ZM354.793 31.7382C356.498 33.2963 357.367 35.3345 357.367 37.95H359.367C359.367 34.8321 358.303 32.237 356.142 30.2618L354.793 31.7382ZM357.367 37.95C357.367 39.7812 356.927 41.3796 356.066 42.7749L357.768 43.8251C358.841 42.087 359.367 40.1188 359.367 37.95H357.367ZM356.071 42.7667C355.221 44.115 353.945 45.2143 352.189 46.0463L353.045 47.8537C355.089 46.8857 356.68 45.5516 357.763 43.8333L356.071 42.7667ZM352.189 46.0463C350.457 46.8668 348.295 47.3 345.667 47.3V49.3C348.506 49.3 350.978 48.8332 353.045 47.8537L352.189 46.0463ZM345.667 47.3C343.241 47.3 340.954 46.9173 338.8 46.157L338.134 48.043C340.514 48.8827 343.027 49.3 345.667 49.3V47.3ZM338.817 46.1631C336.687 45.3685 335.019 44.3375 333.774 43.0929L332.36 44.5071C333.849 45.9959 335.781 47.1649 338.118 48.0369L338.817 46.1631ZM333.919 44.3233L335.669 41.4733L333.965 40.4267L332.215 43.2767L333.919 44.3233ZM334.1 41.6471C335.386 42.9697 337.065 44.0231 339.099 44.8296L339.836 42.9704C338.003 42.2435 336.582 41.3303 335.534 40.2529L334.1 41.6471ZM339.113 44.835C341.166 45.614 343.354 46 345.667 46V44C343.581 44 341.635 43.6527 339.822 42.965L339.113 44.835ZM345.667 46C348.663 46 351.13 45.3572 352.936 43.9357L351.699 42.3643C350.371 43.4095 348.405 44 345.667 44V46ZM352.946 43.9276C354.771 42.452 355.667 40.4203 355.667 37.95H353.667C353.667 39.8797 352.997 41.3146 351.688 42.3724L352.946 43.9276ZM355.667 37.95C355.667 35.5073 354.766 33.5053 352.936 32.0643L351.699 33.6357C353.001 34.6614 353.667 36.0594 353.667 37.95H355.667ZM352.936 32.0643C351.116 30.6314 348.485 30 345.217 30V32C348.283 32 350.385 32.6019 351.699 33.6357L352.936 32.0643ZM345.217 30H342.717V32H345.217V30ZM343.717 31V28.35H341.717V31H343.717ZM343.499 28.9739L353.199 16.8239L351.636 15.5761L341.936 27.7261L343.499 28.9739ZM352.417 15.2H334.517V17.2H352.417V15.2ZM335.517 16.2V13H333.517V16.2H335.517ZM334.517 14H357.017V12H334.517V14ZM356.017 13V15.55H358.017V13H356.017ZM356.234 14.9276L346.334 27.3776L347.9 28.6224L357.8 16.1724L356.234 14.9276Z" fill="#E6F7FF"/>
<path d="M146.167 15.2V25H143.899V20.982H139.447V25H137.179V15.2H139.447V19.064H143.899V15.2H146.167ZM156.056 17.468V25H153.97V24.132C153.429 24.7853 152.645 25.112 151.618 25.112C150.909 25.112 150.265 24.9533 149.686 24.636C149.117 24.3187 148.669 23.866 148.342 23.278C148.016 22.69 147.852 22.0087 147.852 21.234C147.852 20.4593 148.016 19.778 148.342 19.19C148.669 18.602 149.117 18.1493 149.686 17.832C150.265 17.5147 150.909 17.356 151.618 17.356C152.58 17.356 153.331 17.6593 153.872 18.266V17.468H156.056ZM151.996 23.32C152.547 23.32 153.004 23.1333 153.368 22.76C153.732 22.3773 153.914 21.8687 153.914 21.234C153.914 20.5993 153.732 20.0953 153.368 19.722C153.004 19.3393 152.547 19.148 151.996 19.148C151.436 19.148 150.974 19.3393 150.61 19.722C150.246 20.0953 150.064 20.5993 150.064 21.234C150.064 21.8687 150.246 22.3773 150.61 22.76C150.974 23.1333 151.436 23.32 151.996 23.32ZM165.403 22.144H164.269V25H162.085V17.468H164.269V20.394H165.445L167.489 17.468H169.813L167.181 21.08L169.995 25H167.419L165.403 22.144ZM178.437 17.468V25H176.351V24.132C175.81 24.7853 175.026 25.112 173.999 25.112C173.29 25.112 172.646 24.9533 172.067 24.636C171.498 24.3187 171.05 23.866 170.723 23.278C170.396 22.69 170.233 22.0087 170.233 21.234C170.233 20.4593 170.396 19.778 170.723 19.19C171.05 18.602 171.498 18.1493 172.067 17.832C172.646 17.5147 173.29 17.356 173.999 17.356C174.96 17.356 175.712 17.6593 176.253 18.266V17.468H178.437ZM174.377 23.32C174.928 23.32 175.385 23.1333 175.749 22.76C176.113 22.3773 176.295 21.8687 176.295 21.234C176.295 20.5993 176.113 20.0953 175.749 19.722C175.385 19.3393 174.928 19.148 174.377 19.148C173.817 19.148 173.355 19.3393 172.991 19.722C172.627 20.0953 172.445 20.5993 172.445 21.234C172.445 21.8687 172.627 22.3773 172.991 22.76C173.355 23.1333 173.817 23.32 174.377 23.32ZM183.819 22.144H182.685V25H180.501V17.468H182.685V20.394H183.861L185.905 17.468H188.229L185.597 21.08L188.411 25H185.835L183.819 22.144ZM196.781 17.468V25H194.695V24.118C194.415 24.4447 194.07 24.692 193.659 24.86C193.258 25.028 192.828 25.112 192.371 25.112C191.382 25.112 190.593 24.8273 190.005 24.258C189.426 23.6887 189.137 22.844 189.137 21.724V17.468H191.321V21.402C191.321 22.6153 191.83 23.222 192.847 23.222C193.379 23.222 193.804 23.054 194.121 22.718C194.438 22.3727 194.597 21.864 194.597 21.192V17.468H196.781ZM203.595 25L201.943 22.69L200.235 25H197.855L200.753 21.206L197.953 17.468H200.403L201.999 19.666L203.637 17.468H205.961L203.161 21.15L206.073 25H203.595ZM214.697 25.112C213.894 25.112 213.171 24.9487 212.527 24.622C211.892 24.286 211.393 23.824 211.029 23.236C210.674 22.648 210.497 21.9807 210.497 21.234C210.497 20.4873 210.674 19.82 211.029 19.232C211.393 18.644 211.892 18.1867 212.527 17.86C213.171 17.524 213.894 17.356 214.697 17.356C215.49 17.356 216.181 17.524 216.769 17.86C217.366 18.1867 217.8 18.658 218.071 19.274L216.377 20.184C215.985 19.4933 215.42 19.148 214.683 19.148C214.113 19.148 213.642 19.3347 213.269 19.708C212.895 20.0813 212.709 20.59 212.709 21.234C212.709 21.878 212.895 22.3867 213.269 22.76C213.642 23.1333 214.113 23.32 214.683 23.32C215.429 23.32 215.994 22.9747 216.377 22.284L218.071 23.208C217.8 23.8053 217.366 24.272 216.769 24.608C216.181 24.944 215.49 25.112 214.697 25.112ZM226.904 17.468V25H224.818V24.132C224.277 24.7853 223.493 25.112 222.466 25.112C221.757 25.112 221.113 24.9533 220.534 24.636C219.965 24.3187 219.517 23.866 219.19 23.278C218.863 22.69 218.7 22.0087 218.7 21.234C218.7 20.4593 218.863 19.778 219.19 19.19C219.517 18.602 219.965 18.1493 220.534 17.832C221.113 17.5147 221.757 17.356 222.466 17.356C223.427 17.356 224.179 17.6593 224.72 18.266V17.468H226.904ZM222.844 23.32C223.395 23.32 223.852 23.1333 224.216 22.76C224.58 22.3773 224.762 21.8687 224.762 21.234C224.762 20.5993 224.58 20.0953 224.216 19.722C223.852 19.3393 223.395 19.148 222.844 19.148C222.284 19.148 221.822 19.3393 221.458 19.722C221.094 20.0953 220.912 20.5993 220.912 21.234C220.912 21.8687 221.094 22.3773 221.458 22.76C221.822 23.1333 222.284 23.32 222.844 23.32ZM236.402 17.468V25H234.316V24.118C234.036 24.4447 233.691 24.692 233.28 24.86C232.879 25.028 232.449 25.112 231.992 25.112C231.003 25.112 230.214 24.8273 229.626 24.258C229.047 23.6887 228.758 22.844 228.758 21.724V17.468H230.942V21.402C230.942 22.6153 231.451 23.222 232.468 23.222C233 23.222 233.425 23.054 233.742 22.718C234.059 22.3727 234.218 21.864 234.218 21.192V17.468H236.402ZM232.524 16.656C230.881 16.656 230.055 15.9327 230.046 14.486H231.474C231.483 14.8127 231.572 15.0693 231.74 15.256C231.917 15.4333 232.174 15.522 232.51 15.522C232.846 15.522 233.103 15.4333 233.28 15.256C233.467 15.0693 233.56 14.8127 233.56 14.486H235.016C235.007 15.9327 234.176 16.656 232.524 16.656ZM248.116 17.356C249.058 17.356 249.805 17.636 250.356 18.196C250.916 18.7467 251.196 19.5773 251.196 20.688V25H249.012V21.024C249.012 20.4267 248.886 19.9833 248.634 19.694C248.391 19.3953 248.041 19.246 247.584 19.246C247.07 19.246 246.664 19.414 246.366 19.75C246.067 20.0767 245.918 20.5667 245.918 21.22V25H243.734V21.024C243.734 19.8387 243.258 19.246 242.306 19.246C241.802 19.246 241.4 19.414 241.102 19.75C240.803 20.0767 240.654 20.5667 240.654 21.22V25H238.47V17.468H240.556V18.336C240.836 18.0187 241.176 17.776 241.578 17.608C241.988 17.44 242.436 17.356 242.922 17.356C243.454 17.356 243.934 17.4633 244.364 17.678C244.793 17.8833 245.138 18.1867 245.4 18.588C245.708 18.196 246.095 17.8927 246.562 17.678C247.038 17.4633 247.556 17.356 248.116 17.356ZM260.701 17.468V25H258.615V24.132C258.073 24.7853 257.289 25.112 256.263 25.112C255.553 25.112 254.909 24.9533 254.331 24.636C253.761 24.3187 253.313 23.866 252.987 23.278C252.66 22.69 252.497 22.0087 252.497 21.234C252.497 20.4593 252.66 19.778 252.987 19.19C253.313 18.602 253.761 18.1493 254.331 17.832C254.909 17.5147 255.553 17.356 256.263 17.356C257.224 17.356 257.975 17.6593 258.517 18.266V17.468H260.701ZM256.641 23.32C257.191 23.32 257.649 23.1333 258.013 22.76C258.377 22.3773 258.559 21.8687 258.559 21.234C258.559 20.5993 258.377 20.0953 258.013 19.722C257.649 19.3393 257.191 19.148 256.641 19.148C256.081 19.148 255.619 19.3393 255.255 19.722C254.891 20.0953 254.709 20.5993 254.709 21.234C254.709 21.8687 254.891 22.3773 255.255 22.76C255.619 23.1333 256.081 23.32 256.641 23.32ZM267.497 25L265.845 22.69L264.137 25H261.757L264.655 21.206L261.855 17.468H264.305L265.901 19.666L267.539 17.468H269.863L267.063 21.15L269.975 25H267.497ZM170.922 43.08C171.37 43.22 171.716 43.4347 171.958 43.724C172.21 44.0133 172.336 44.3587 172.336 44.76C172.336 45.236 172.173 45.656 171.846 46.02C171.52 46.3747 171.072 46.65 170.502 46.846C169.933 47.042 169.289 47.14 168.57 47.14C167.982 47.14 167.404 47.0793 166.834 46.958C166.265 46.8367 165.738 46.6547 165.252 46.412L165.84 44.886C166.634 45.2687 167.511 45.46 168.472 45.46C168.986 45.46 169.387 45.3853 169.676 45.236C169.975 45.0773 170.124 44.858 170.124 44.578C170.124 44.3353 170.022 44.1533 169.816 44.032C169.611 43.9013 169.312 43.836 168.92 43.836H167.38V42.478H168.724C169.107 42.478 169.401 42.4173 169.606 42.296C169.812 42.1747 169.914 41.9973 169.914 41.764C169.914 41.5213 169.784 41.3347 169.522 41.204C169.27 41.0733 168.906 41.008 168.43 41.008C167.702 41.008 166.909 41.1807 166.05 41.526L165.518 40.014C166.564 39.5567 167.581 39.328 168.57 39.328C169.252 39.328 169.858 39.412 170.39 39.58C170.932 39.748 171.356 39.9953 171.664 40.322C171.972 40.6393 172.126 41.0127 172.126 41.442C172.126 41.7967 172.019 42.1187 171.804 42.408C171.59 42.688 171.296 42.912 170.922 43.08ZM181.527 39.468V47H179.441V46.132C178.9 46.7853 178.116 47.112 177.089 47.112C176.38 47.112 175.736 46.9533 175.157 46.636C174.588 46.3187 174.14 45.866 173.813 45.278C173.486 44.69 173.323 44.0087 173.323 43.234C173.323 42.4593 173.486 41.778 173.813 41.19C174.14 40.602 174.588 40.1493 175.157 39.832C175.736 39.5147 176.38 39.356 177.089 39.356C178.05 39.356 178.802 39.6593 179.343 40.266V39.468H181.527ZM177.467 45.32C178.018 45.32 178.475 45.1333 178.839 44.76C179.203 44.3773 179.385 43.8687 179.385 43.234C179.385 42.5993 179.203 42.0953 178.839 41.722C178.475 41.3393 178.018 41.148 177.467 41.148C176.907 41.148 176.445 41.3393 176.081 41.722C175.717 42.0953 175.535 42.5993 175.535 43.234C175.535 43.8687 175.717 44.3773 176.081 44.76C176.445 45.1333 176.907 45.32 177.467 45.32ZM186.909 44.144H185.775V47H183.591V39.468H185.775V42.394H186.951L188.995 39.468H191.319L188.687 43.08L191.501 47H188.925L186.909 44.144ZM199.943 39.468V47H197.857V46.132C197.316 46.7853 196.532 47.112 195.505 47.112C194.796 47.112 194.152 46.9533 193.573 46.636C193.004 46.3187 192.556 45.866 192.229 45.278C191.902 44.69 191.739 44.0087 191.739 43.234C191.739 42.4593 191.902 41.778 192.229 41.19C192.556 40.602 193.004 40.1493 193.573 39.832C194.152 39.5147 194.796 39.356 195.505 39.356C196.466 39.356 197.218 39.6593 197.759 40.266V39.468H199.943ZM195.883 45.32C196.434 45.32 196.891 45.1333 197.255 44.76C197.619 44.3773 197.801 43.8687 197.801 43.234C197.801 42.5993 197.619 42.0953 197.255 41.722C196.891 41.3393 196.434 41.148 195.883 41.148C195.323 41.148 194.861 41.3393 194.497 41.722C194.133 42.0953 193.951 42.5993 193.951 43.234C193.951 43.8687 194.133 44.3773 194.497 44.76C194.861 45.1333 195.323 45.32 195.883 45.32ZM206.825 43.08C207.273 43.22 207.618 43.4347 207.861 43.724C208.113 44.0133 208.239 44.3587 208.239 44.76C208.239 45.236 208.075 45.656 207.749 46.02C207.422 46.3747 206.974 46.65 206.405 46.846C205.835 47.042 205.191 47.14 204.473 47.14C203.885 47.14 203.306 47.0793 202.737 46.958C202.167 46.8367 201.64 46.6547 201.155 46.412L201.743 44.886C202.536 45.2687 203.413 45.46 204.375 45.46C204.888 45.46 205.289 45.3853 205.579 45.236C205.877 45.0773 206.027 44.858 206.027 44.578C206.027 44.3353 205.924 44.1533 205.719 44.032C205.513 43.9013 205.215 43.836 204.823 43.836H203.283V42.478H204.627C205.009 42.478 205.303 42.4173 205.509 42.296C205.714 42.1747 205.817 41.9973 205.817 41.764C205.817 41.5213 205.686 41.3347 205.425 41.204C205.173 41.0733 204.809 41.008 204.333 41.008C203.605 41.008 202.811 41.1807 201.953 41.526L201.421 40.014C202.466 39.5567 203.483 39.328 204.473 39.328C205.154 39.328 205.761 39.412 206.293 39.58C206.834 39.748 207.259 39.9953 207.567 40.322C207.875 40.6393 208.029 41.0127 208.029 41.442C208.029 41.7967 207.921 42.1187 207.707 42.408C207.492 42.688 207.198 42.912 206.825 43.08ZM213.243 47.21C212.049 47.21 211.153 46.944 210.555 46.412C209.958 45.88 209.659 45.096 209.659 44.06V39.468H211.829V42.016C212.044 41.8667 212.324 41.7407 212.669 41.638C213.024 41.5353 213.425 41.484 213.873 41.484C214.797 41.484 215.521 41.7173 216.043 42.184C216.566 42.6507 216.827 43.332 216.827 44.228C216.827 45.18 216.505 45.9173 215.861 46.44C215.217 46.9533 214.345 47.21 213.243 47.21ZM217.625 39.468H219.809V47H217.625V39.468ZM213.243 45.67C213.691 45.67 214.032 45.5393 214.265 45.278C214.499 45.0167 214.615 44.676 214.615 44.256C214.615 43.864 214.494 43.5513 214.251 43.318C214.018 43.0753 213.677 42.954 213.229 42.954C212.912 42.954 212.632 43.0193 212.389 43.15C212.156 43.2713 211.969 43.4393 211.829 43.654V44.27C211.829 44.7087 211.951 45.054 212.193 45.306C212.436 45.5487 212.786 45.67 213.243 45.67ZM227.654 43.066C228.54 43.3647 228.984 43.962 228.984 44.858C228.984 45.5393 228.727 46.0667 228.214 46.44C227.7 46.8133 226.935 47 225.918 47H221.9V39.468H225.75C226.692 39.468 227.43 39.6407 227.962 39.986C228.494 40.322 228.76 40.798 228.76 41.414C228.76 41.7873 228.662 42.1187 228.466 42.408C228.279 42.688 228.008 42.9073 227.654 43.066ZM223.902 42.562H225.554C226.319 42.562 226.702 42.2913 226.702 41.75C226.702 41.218 226.319 40.952 225.554 40.952H223.902V42.562ZM225.736 45.516C226.538 45.516 226.94 45.2407 226.94 44.69C226.94 44.4007 226.846 44.1907 226.66 44.06C226.473 43.92 226.179 43.85 225.778 43.85H223.902V45.516H225.736ZM238.211 39.468V47H236.125V46.132C235.583 46.7853 234.799 47.112 233.773 47.112C233.063 47.112 232.419 46.9533 231.841 46.636C231.271 46.3187 230.823 45.866 230.497 45.278C230.17 44.69 230.007 44.0087 230.007 43.234C230.007 42.4593 230.17 41.778 230.497 41.19C230.823 40.602 231.271 40.1493 231.841 39.832C232.419 39.5147 233.063 39.356 233.773 39.356C234.734 39.356 235.485 39.6593 236.027 40.266V39.468H238.211ZM234.151 45.32C234.701 45.32 235.159 45.1333 235.523 44.76C235.887 44.3773 236.069 43.8687 236.069 43.234C236.069 42.5993 235.887 42.0953 235.523 41.722C235.159 41.3393 234.701 41.148 234.151 41.148C233.591 41.148 233.129 41.3393 232.765 41.722C232.401 42.0953 232.219 42.5993 232.219 43.234C232.219 43.8687 232.401 44.3773 232.765 44.76C233.129 45.1333 233.591 45.32 234.151 45.32ZM249.907 39.356C250.849 39.356 251.596 39.636 252.147 40.196C252.707 40.7467 252.987 41.5773 252.987 42.688V47H250.803V43.024C250.803 42.4267 250.677 41.9833 250.425 41.694C250.182 41.3953 249.832 41.246 249.375 41.246C248.861 41.246 248.455 41.414 248.157 41.75C247.858 42.0767 247.709 42.5667 247.709 43.22V47H245.525V43.024C245.525 41.8387 245.049 41.246 244.097 41.246C243.593 41.246 243.191 41.414 242.893 41.75C242.594 42.0767 242.445 42.5667 242.445 43.22V47H240.261V39.468H242.347V40.336C242.627 40.0187 242.967 39.776 243.369 39.608C243.779 39.44 244.227 39.356 244.713 39.356C245.245 39.356 245.725 39.4633 246.155 39.678C246.584 39.8833 246.929 40.1867 247.191 40.588C247.499 40.196 247.886 39.8927 248.353 39.678C248.829 39.4633 249.347 39.356 249.907 39.356ZM258.348 47.21C257.153 47.21 256.248 46.944 255.632 46.412C255.025 45.88 254.722 45.096 254.722 44.06V39.468H256.892V42.016C257.125 41.848 257.424 41.7173 257.788 41.624C258.161 41.5307 258.577 41.484 259.034 41.484C259.977 41.484 260.714 41.7173 261.246 42.184C261.778 42.6507 262.044 43.332 262.044 44.228C262.044 45.1893 261.713 45.9267 261.05 46.44C260.397 46.9533 259.496 47.21 258.348 47.21ZM258.348 45.67C258.815 45.67 259.174 45.544 259.426 45.292C259.687 45.04 259.818 44.6993 259.818 44.27C259.818 43.8593 259.692 43.5373 259.44 43.304C259.197 43.0707 258.847 42.954 258.39 42.954C258.054 42.954 257.755 43.0147 257.494 43.136C257.233 43.2573 257.032 43.43 256.892 43.654V44.27C256.892 44.7087 257.018 45.054 257.27 45.306C257.531 45.5487 257.891 45.67 258.348 45.67ZM264.794 43.598C264.794 43.1127 264.901 42.7113 265.116 42.394C265.34 42.0767 265.662 41.7267 266.082 41.344C266.39 41.064 266.614 40.8307 266.754 40.644C266.903 40.448 266.978 40.2287 266.978 39.986C266.978 39.6407 266.838 39.37 266.558 39.174C266.287 38.9687 265.923 38.866 265.466 38.866C265.027 38.866 264.635 38.9593 264.29 39.146C263.954 39.3233 263.669 39.5753 263.436 39.902L261.742 38.908C262.134 38.3107 262.661 37.8487 263.324 37.522C263.996 37.1953 264.789 37.032 265.704 37.032C266.777 37.032 267.636 37.2607 268.28 37.718C268.933 38.1753 269.26 38.81 269.26 39.622C269.26 40.0047 269.195 40.3407 269.064 40.63C268.943 40.9193 268.789 41.1667 268.602 41.372C268.425 41.568 268.191 41.7967 267.902 42.058C267.557 42.366 267.305 42.6273 267.146 42.842C266.987 43.0473 266.908 43.2993 266.908 43.598H264.794ZM265.858 47.112C265.475 47.112 265.153 46.9907 264.892 46.748C264.64 46.496 264.514 46.1927 264.514 45.838C264.514 45.4833 264.64 45.1893 264.892 44.956C265.144 44.7133 265.466 44.592 265.858 44.592C266.25 44.592 266.572 44.7133 266.824 44.956C267.076 45.1893 267.202 45.4833 267.202 45.838C267.202 46.1927 267.071 46.496 266.81 46.748C266.558 46.9907 266.241 47.112 265.858 47.112Z" fill="black" fill-opacity="0.85"/>
<path d="M146.167 15.2H147.167V14.2H146.167V15.2ZM146.167 25V26H147.167V25H146.167ZM143.899 25H142.899V26H143.899V25ZM143.899 20.982H144.899V19.982H143.899V20.982ZM139.447 20.982V19.982H138.447V20.982H139.447ZM139.447 25V26H140.447V25H139.447ZM137.179 25H136.179V26H137.179V25ZM137.179 15.2V14.2H136.179V15.2H137.179ZM139.447 15.2H140.447V14.2H139.447V15.2ZM139.447 19.064H138.447V20.064H139.447V19.064ZM143.899 19.064V20.064H144.899V19.064H143.899ZM143.899 15.2V14.2H142.899V15.2H143.899ZM145.167 15.2V25H147.167V15.2H145.167ZM146.167 24H143.899V26H146.167V24ZM144.899 25V20.982H142.899V25H144.899ZM143.899 19.982H139.447V21.982H143.899V19.982ZM138.447 20.982V25H140.447V20.982H138.447ZM139.447 24H137.179V26H139.447V24ZM138.179 25V15.2H136.179V25H138.179ZM137.179 16.2H139.447V14.2H137.179V16.2ZM138.447 15.2V19.064H140.447V15.2H138.447ZM139.447 20.064H143.899V18.064H139.447V20.064ZM144.899 19.064V15.2H142.899V19.064H144.899ZM143.899 16.2H146.167V14.2H143.899V16.2ZM156.056 17.468H157.056V16.468H156.056V17.468ZM156.056 25V26H157.056V25H156.056ZM153.97 25H152.97V26H153.97V25ZM153.97 24.132H154.97V21.3577L153.2 23.494L153.97 24.132ZM149.686 24.636L149.199 25.5095L149.205 25.5128L149.686 24.636ZM148.342 23.278L147.468 23.7636L148.342 23.278ZM148.342 19.19L147.468 18.7044L148.342 19.19ZM149.686 17.832L149.205 16.9552L149.199 16.9585L149.686 17.832ZM153.872 18.266L153.126 18.9318L154.872 20.8887V18.266H153.872ZM153.872 17.468V16.468H152.872V17.468H153.872ZM153.368 22.76L154.084 23.4582L154.093 23.4492L153.368 22.76ZM153.368 19.722L152.644 20.4113L152.652 20.4201L153.368 19.722ZM150.61 19.722L151.326 20.4202L151.335 20.4112L150.61 19.722ZM150.61 22.76L149.886 23.4493L149.894 23.4581L150.61 22.76ZM155.056 17.468V25H157.056V17.468H155.056ZM156.056 24H153.97V26H156.056V24ZM154.97 25V24.132H152.97V25H154.97ZM153.2 23.494C152.889 23.8698 152.416 24.112 151.618 24.112V26.112C152.874 26.112 153.969 25.7009 154.74 24.77L153.2 23.494ZM151.618 24.112C151.064 24.112 150.587 23.9897 150.167 23.7592L149.205 25.5128C149.942 25.917 150.754 26.112 151.618 26.112V24.112ZM150.173 23.7625C149.772 23.5389 149.456 23.223 149.216 22.7924L147.468 23.7636C147.882 24.509 148.462 25.0985 149.199 25.5095L150.173 23.7625ZM149.216 22.7924C148.984 22.3741 148.852 21.8648 148.852 21.234H146.852C146.852 22.1526 147.047 23.0059 147.468 23.7636L149.216 22.7924ZM148.852 21.234C148.852 20.6032 148.984 20.0939 149.216 19.6756L147.468 18.7044C147.047 19.4621 146.852 20.3154 146.852 21.234H148.852ZM149.216 19.6756C149.456 19.245 149.772 18.9291 150.173 18.7055L149.199 16.9585C148.462 17.3695 147.882 17.959 147.468 18.7044L149.216 19.6756ZM150.167 18.7088C150.587 18.4783 151.064 18.356 151.618 18.356V16.356C150.754 16.356 149.942 16.551 149.205 16.9552L150.167 18.7088ZM151.618 18.356C152.352 18.356 152.809 18.5768 153.126 18.9318L154.618 17.6002C153.853 16.7418 152.808 16.356 151.618 16.356V18.356ZM154.872 18.266V17.468H152.872V18.266H154.872ZM153.872 18.468H156.056V16.468H153.872V18.468ZM151.996 24.32C152.8 24.32 153.521 24.0362 154.084 23.4581L152.652 22.0619C152.488 22.2304 152.294 22.32 151.996 22.32V24.32ZM154.093 23.4492C154.668 22.8443 154.914 22.0703 154.914 21.234H152.914C152.914 21.667 152.796 21.9103 152.644 22.0708L154.093 23.4492ZM154.914 21.234C154.914 20.3986 154.668 19.623 154.084 19.0239L152.652 20.4201C152.796 20.5676 152.914 20.8 152.914 21.234H154.914ZM154.093 19.0328C153.531 18.4424 152.808 18.148 151.996 18.148V20.148C152.286 20.148 152.477 20.2363 152.644 20.4112L154.093 19.0328ZM151.996 18.148C151.181 18.148 150.451 18.4387 149.886 19.0328L151.335 20.4112C151.498 20.24 151.692 20.148 151.996 20.148V18.148ZM149.894 19.0239C149.31 19.623 149.064 20.3986 149.064 21.234H151.064C151.064 20.8 151.182 20.5676 151.326 20.4201L149.894 19.0239ZM149.064 21.234C149.064 22.0703 149.31 22.8443 149.886 23.4492L151.335 22.0708C151.182 21.9103 151.064 21.667 151.064 21.234H149.064ZM149.894 23.4581C150.461 24.0398 151.189 24.32 151.996 24.32V22.32C151.684 22.32 151.487 22.2269 151.326 22.0619L149.894 23.4581ZM165.403 22.144L166.22 21.5673L165.921 21.144H165.403V22.144ZM164.269 22.144V21.144H163.269V22.144H164.269ZM164.269 25V26H165.269V25H164.269ZM162.085 25H161.085V26H162.085V25ZM162.085 17.468V16.468H161.085V17.468H162.085ZM164.269 17.468H165.269V16.468H164.269V17.468ZM164.269 20.394H163.269V21.394H164.269V20.394ZM165.445 20.394V21.394H165.966L166.265 20.9667L165.445 20.394ZM167.489 17.468V16.468H166.968L166.669 16.8953L167.489 17.468ZM169.813 17.468L170.621 18.0569L171.779 16.468H169.813V17.468ZM167.181 21.08L166.373 20.4911L165.947 21.0756L166.369 21.6632L167.181 21.08ZM169.995 25V26H171.944L170.808 24.4168L169.995 25ZM167.419 25L166.602 25.5767L166.901 26H167.419V25ZM165.403 21.144H164.269V23.144H165.403V21.144ZM163.269 22.144V25H165.269V22.144H163.269ZM164.269 24H162.085V26H164.269V24ZM163.085 25V17.468H161.085V25H163.085ZM162.085 18.468H164.269V16.468H162.085V18.468ZM163.269 17.468V20.394H165.269V17.468H163.269ZM164.269 21.394H165.445V19.394H164.269V21.394ZM166.265 20.9667L168.309 18.0407L166.669 16.8953L164.625 19.8213L166.265 20.9667ZM167.489 18.468H169.813V16.468H167.489V18.468ZM169.005 16.8791L166.373 20.4911L167.989 21.6689L170.621 18.0569L169.005 16.8791ZM166.369 21.6632L169.183 25.5832L170.808 24.4168L167.994 20.4968L166.369 21.6632ZM169.995 24H167.419V26H169.995V24ZM168.236 24.4233L166.22 21.5673L164.586 22.7207L166.602 25.5767L168.236 24.4233ZM178.437 17.468H179.437V16.468H178.437V17.468ZM178.437 25V26H179.437V25H178.437ZM176.351 25H175.351V26H176.351V25ZM176.351 24.132H177.351V21.3577L175.581 23.494L176.351 24.132ZM172.067 24.636L171.58 25.5095L171.586 25.5128L172.067 24.636ZM170.723 23.278L169.849 23.7636L170.723 23.278ZM170.723 19.19L169.849 18.7044L170.723 19.19ZM172.067 17.832L171.586 16.9552L171.58 16.9585L172.067 17.832ZM176.253 18.266L175.507 18.9318L177.253 20.8887V18.266H176.253ZM176.253 17.468V16.468H175.253V17.468H176.253ZM175.749 22.76L176.465 23.4582L176.474 23.4492L175.749 22.76ZM175.749 19.722L175.025 20.4113L175.033 20.4201L175.749 19.722ZM172.991 19.722L173.707 20.4202L173.716 20.4112L172.991 19.722ZM172.991 22.76L172.267 23.4493L172.275 23.4581L172.991 22.76ZM177.437 17.468V25H179.437V17.468H177.437ZM178.437 24H176.351V26H178.437V24ZM177.351 25V24.132H175.351V25H177.351ZM175.581 23.494C175.27 23.8698 174.797 24.112 173.999 24.112V26.112C175.255 26.112 176.35 25.7009 177.121 24.77L175.581 23.494ZM173.999 24.112C173.445 24.112 172.968 23.9897 172.548 23.7592L171.586 25.5128C172.323 25.917 173.135 26.112 173.999 26.112V24.112ZM172.554 23.7625C172.153 23.5389 171.837 23.223 171.597 22.7924L169.849 23.7636C170.263 24.509 170.843 25.0985 171.58 25.5095L172.554 23.7625ZM171.597 22.7924C171.365 22.3741 171.233 21.8648 171.233 21.234H169.233C169.233 22.1526 169.428 23.0059 169.849 23.7636L171.597 22.7924ZM171.233 21.234C171.233 20.6032 171.365 20.0939 171.597 19.6756L169.849 18.7044C169.428 19.4621 169.233 20.3154 169.233 21.234H171.233ZM171.597 19.6756C171.837 19.245 172.153 18.9291 172.554 18.7055L171.58 16.9585C170.843 17.3695 170.263 17.959 169.849 18.7044L171.597 19.6756ZM172.548 18.7088C172.968 18.4783 173.445 18.356 173.999 18.356V16.356C173.135 16.356 172.323 16.551 171.586 16.9552L172.548 18.7088ZM173.999 18.356C174.732 18.356 175.19 18.5768 175.507 18.9318L176.999 17.6002C176.233 16.7418 175.189 16.356 173.999 16.356V18.356ZM177.253 18.266V17.468H175.253V18.266H177.253ZM176.253 18.468H178.437V16.468H176.253V18.468ZM174.377 24.32C175.181 24.32 175.901 24.0362 176.465 23.4581L175.033 22.0619C174.869 22.2304 174.675 22.32 174.377 22.32V24.32ZM176.474 23.4492C177.049 22.8443 177.295 22.0703 177.295 21.234H175.295C175.295 21.667 175.177 21.9103 175.025 22.0708L176.474 23.4492ZM177.295 21.234C177.295 20.3986 177.049 19.623 176.465 19.0239L175.033 20.4201C175.177 20.5676 175.295 20.8 175.295 21.234H177.295ZM176.474 19.0328C175.912 18.4424 175.189 18.148 174.377 18.148V20.148C174.667 20.148 174.858 20.2363 175.025 20.4112L176.474 19.0328ZM174.377 18.148C173.562 18.148 172.832 18.4387 172.267 19.0328L173.716 20.4112C173.879 20.24 174.073 20.148 174.377 20.148V18.148ZM172.275 19.0239C171.691 19.623 171.445 20.3986 171.445 21.234H173.445C173.445 20.8 173.563 20.5676 173.707 20.4201L172.275 19.0239ZM171.445 21.234C171.445 22.0703 171.691 22.8443 172.267 23.4492L173.716 22.0708C173.563 21.9103 173.445 21.667 173.445 21.234H171.445ZM172.275 23.4581C172.842 24.0398 173.57 24.32 174.377 24.32V22.32C174.065 22.32 173.868 22.2269 173.707 22.0619L172.275 23.4581ZM183.819 22.144L184.636 21.5673L184.337 21.144H183.819V22.144ZM182.685 22.144V21.144H181.685V22.144H182.685ZM182.685 25V26H183.685V25H182.685ZM180.501 25H179.501V26H180.501V25ZM180.501 17.468V16.468H179.501V17.468H180.501ZM182.685 17.468H183.685V16.468H182.685V17.468ZM182.685 20.394H181.685V21.394H182.685V20.394ZM183.861 20.394V21.394H184.382L184.681 20.9667L183.861 20.394ZM185.905 17.468V16.468H185.384L185.085 16.8953L185.905 17.468ZM188.229 17.468L189.037 18.0569L190.195 16.468H188.229V17.468ZM185.597 21.08L184.789 20.4911L184.363 21.0756L184.785 21.6632L185.597 21.08ZM188.411 25V26H190.36L189.224 24.4168L188.411 25ZM185.835 25L185.018 25.5767L185.317 26H185.835V25ZM183.819 21.144H182.685V23.144H183.819V21.144ZM181.685 22.144V25H183.685V22.144H181.685ZM182.685 24H180.501V26H182.685V24ZM181.501 25V17.468H179.501V25H181.501ZM180.501 18.468H182.685V16.468H180.501V18.468ZM181.685 17.468V20.394H183.685V17.468H181.685ZM182.685 21.394H183.861V19.394H182.685V21.394ZM184.681 20.9667L186.725 18.0407L185.085 16.8953L183.041 19.8213L184.681 20.9667ZM185.905 18.468H188.229V16.468H185.905V18.468ZM187.421 16.8791L184.789 20.4911L186.405 21.6689L189.037 18.0569L187.421 16.8791ZM184.785 21.6632L187.599 25.5832L189.224 24.4168L186.41 20.4968L184.785 21.6632ZM188.411 24H185.835V26H188.411V24ZM186.652 24.4233L184.636 21.5673L183.002 22.7207L185.018 25.5767L186.652 24.4233ZM196.781 17.468H197.781V16.468H196.781V17.468ZM196.781 25V26H197.781V25H196.781ZM194.695 25H193.695V26H194.695V25ZM194.695 24.118H195.695V21.4147L193.936 23.4672L194.695 24.118ZM193.659 24.86L193.28 23.9344L193.273 23.9376L193.659 24.86ZM190.005 24.258L189.304 24.9709L189.309 24.9764L190.005 24.258ZM189.137 17.468V16.468H188.137V17.468H189.137ZM191.321 17.468H192.321V16.468H191.321V17.468ZM194.121 22.718L194.848 23.4047L194.857 23.3946L194.121 22.718ZM194.597 17.468V16.468H193.597V17.468H194.597ZM195.781 17.468V25H197.781V17.468H195.781ZM196.781 24H194.695V26H196.781V24ZM195.695 25V24.118H193.695V25H195.695ZM193.936 23.4672C193.762 23.6695 193.549 23.8246 193.28 23.9345L194.038 25.7855C194.59 25.5594 195.068 25.2198 195.454 24.7688L193.936 23.4672ZM193.273 23.9376C193 24.0518 192.703 24.112 192.371 24.112V26.112C192.954 26.112 193.515 26.0042 194.045 25.7824L193.273 23.9376ZM192.371 24.112C191.584 24.112 191.064 23.8919 190.7 23.5396L189.309 24.9764C190.121 25.7628 191.18 26.112 192.371 26.112V24.112ZM190.706 23.5452C190.382 23.2261 190.137 22.6801 190.137 21.724H188.137C188.137 23.0079 188.471 24.1513 189.304 24.9708L190.706 23.5452ZM190.137 21.724V17.468H188.137V21.724H190.137ZM189.137 18.468H191.321V16.468H189.137V18.468ZM190.321 17.468V21.402H192.321V17.468H190.321ZM190.321 21.402C190.321 22.1241 190.469 22.8519 190.936 23.4095C191.432 24.0009 192.133 24.222 192.847 24.222V22.222C192.543 22.222 192.481 22.1398 192.469 22.1245C192.428 22.0754 192.321 21.8933 192.321 21.402H190.321ZM192.847 24.222C193.609 24.222 194.313 23.9715 194.848 23.4046L193.394 22.0314C193.295 22.1365 193.149 22.222 192.847 22.222V24.222ZM194.857 23.3946C195.405 22.7984 195.597 22.0068 195.597 21.192H193.597C193.597 21.7212 193.471 21.947 193.385 22.0414L194.857 23.3946ZM195.597 21.192V17.468H193.597V21.192H195.597ZM194.597 18.468H196.781V16.468H194.597V18.468ZM203.594 25L202.781 25.5817L203.08 26H203.594V25ZM201.943 22.69L202.756 22.1083L201.956 20.9898L201.138 22.0955L201.943 22.69ZM200.234 25V26H200.739L201.039 25.5945L200.234 25ZM197.855 25L197.06 24.393L195.832 26H197.855V25ZM200.753 21.206L201.547 21.813L202.006 21.2119L201.553 20.6065L200.753 21.206ZM197.952 17.468V16.468H195.954L197.152 18.0675L197.952 17.468ZM200.402 17.468L201.212 16.8804L200.912 16.468H200.402V17.468ZM201.999 19.666L201.189 20.2536L201.988 21.3535L202.8 20.2635L201.999 19.666ZM203.637 17.468V16.468H203.135L202.835 16.8705L203.637 17.468ZM205.96 17.468L206.756 18.0733L207.977 16.468H205.96V17.468ZM203.161 21.15L202.365 20.5447L201.905 21.1484L202.363 21.7532L203.161 21.15ZM206.072 25V26H208.083L206.87 24.3968L206.072 25ZM204.408 24.4183L202.756 22.1083L201.129 23.2717L202.781 25.5817L204.408 24.4183ZM201.138 22.0955L199.43 24.4055L201.039 25.5945L202.747 23.2845L201.138 22.0955ZM200.234 24H197.855V26H200.234V24ZM198.649 25.607L201.547 21.813L199.958 20.599L197.06 24.393L198.649 25.607ZM201.553 20.6065L198.753 16.8685L197.152 18.0675L199.952 21.8055L201.553 20.6065ZM197.952 18.468H200.402V16.468H197.952V18.468ZM199.593 18.0556L201.189 20.2536L202.808 19.0784L201.212 16.8804L199.593 18.0556ZM202.8 20.2635L204.438 18.0655L202.835 16.8705L201.197 19.0685L202.8 20.2635ZM203.637 18.468H205.96V16.468H203.637V18.468ZM205.165 16.8627L202.365 20.5447L203.956 21.7553L206.756 18.0733L205.165 16.8627ZM202.363 21.7532L205.275 25.6032L206.87 24.3968L203.958 20.5468L202.363 21.7532ZM206.072 24H203.594V26H206.072V24ZM212.527 24.622L212.059 25.5058L212.066 25.5099L212.074 25.5138L212.527 24.622ZM211.029 23.236L210.172 23.7525L210.178 23.7624L211.029 23.236ZM211.029 19.232L210.178 18.7056L210.172 18.7155L211.029 19.232ZM212.527 17.86L212.984 18.7491L212.989 18.7466L212.527 17.86ZM216.768 17.86L216.272 18.7282L216.28 18.7329L216.289 18.7374L216.768 17.86ZM218.07 19.274L218.544 20.1549L219.358 19.7177L218.986 18.8717L218.07 19.274ZM216.376 20.184L215.507 20.6776L215.989 21.5273L216.85 21.0649L216.376 20.184ZM213.268 22.76L213.976 22.0529L213.268 22.76ZM216.376 22.284L216.855 21.4061L215.983 20.9304L215.502 21.7994L216.376 22.284ZM218.07 23.208L218.981 23.6207L219.365 22.7748L218.549 22.3301L218.07 23.208ZM216.768 24.608L216.278 23.7364L216.272 23.7398L216.768 24.608ZM214.697 24.112C214.033 24.112 213.468 23.9781 212.979 23.7302L212.074 25.5138C212.873 25.9192 213.754 26.112 214.697 26.112V24.112ZM212.994 23.7382C212.51 23.482 212.146 23.1407 211.879 22.7096L210.178 23.7624C210.639 24.5073 211.273 25.09 212.059 25.5058L212.994 23.7382ZM211.885 22.7195C211.632 22.3009 211.497 21.8151 211.497 21.234H209.497C209.497 22.1462 209.715 22.9951 210.172 23.7525L211.885 22.7195ZM211.497 21.234C211.497 20.6529 211.632 20.1671 211.885 19.7485L210.172 18.7155C209.715 19.4729 209.497 20.3217 209.497 21.234H211.497ZM211.879 19.7584C212.144 19.3298 212.505 18.9955 212.984 18.7491L212.069 16.9709C211.278 17.3778 210.641 17.9582 210.178 18.7056L211.879 19.7584ZM212.989 18.7466C213.476 18.4927 214.038 18.356 214.697 18.356V16.356C213.75 16.356 212.865 16.5553 212.064 16.9734L212.989 18.7466ZM214.697 18.356C215.346 18.356 215.86 18.4924 216.272 18.7282L217.265 16.9918C216.501 16.5556 215.634 16.356 214.697 16.356V18.356ZM216.289 18.7374C216.695 18.9595 216.974 19.265 217.155 19.6763L218.986 18.8717C218.625 18.051 218.037 17.4139 217.248 16.9826L216.289 18.7374ZM217.597 18.3931L215.903 19.3031L216.85 21.0649L218.544 20.1549L217.597 18.3931ZM217.246 19.6904C216.693 18.7162 215.812 18.148 214.682 18.148V20.148C215.027 20.148 215.276 20.2704 215.507 20.6776L217.246 19.6904ZM214.682 18.148C213.871 18.148 213.138 18.4244 212.561 19.0009L213.976 20.4151C214.146 20.2449 214.355 20.148 214.682 20.148V18.148ZM212.561 19.0009C211.961 19.6015 211.708 20.3868 211.708 21.234H213.708C213.708 20.7932 213.83 20.5612 213.976 20.4151L212.561 19.0009ZM211.708 21.234C211.708 22.0812 211.961 22.8665 212.561 23.4671L213.976 22.0529C213.83 21.9068 213.708 21.6748 213.708 21.234H211.708ZM212.561 23.4671C213.138 24.0436 213.871 24.32 214.682 24.32V22.32C214.355 22.32 214.146 22.2231 213.976 22.0529L212.561 23.4671ZM214.682 24.32C215.216 24.32 215.729 24.1947 216.188 23.9141C216.644 23.6352 216.992 23.236 217.251 22.7686L215.502 21.7994C215.378 22.0226 215.253 22.1414 215.144 22.2079C215.038 22.2726 214.896 22.32 214.682 22.32V24.32ZM215.898 23.1619L217.592 24.0859L218.549 22.3301L216.855 21.4061L215.898 23.1619ZM217.16 22.7953C216.981 23.1897 216.699 23.4997 216.278 23.7364L217.259 25.4796C218.033 25.0443 218.619 24.421 218.981 23.6207L217.16 22.7953ZM216.272 23.7398C215.86 23.9756 215.346 24.112 214.697 24.112V26.112C215.634 26.112 216.501 25.9124 217.265 25.4762L216.272 23.7398ZM226.904 17.468H227.904V16.468H226.904V17.468ZM226.904 25V26H227.904V25H226.904ZM224.818 25H223.818V26H224.818V25ZM224.818 24.132H225.818V21.3577L224.048 23.494L224.818 24.132ZM220.534 24.636L220.047 25.5095L220.053 25.5128L220.534 24.636ZM219.19 23.278L218.316 23.7636L219.19 23.278ZM219.19 19.19L218.316 18.7044L219.19 19.19ZM220.534 17.832L220.053 16.9552L220.047 16.9585L220.534 17.832ZM224.72 18.266L223.974 18.9318L225.72 20.8887V18.266H224.72ZM224.72 17.468V16.468H223.72V17.468H224.72ZM224.216 22.76L224.932 23.4582L224.941 23.4492L224.216 22.76ZM224.216 19.722L223.491 20.4113L223.5 20.4201L224.216 19.722ZM221.458 19.722L222.174 20.4202L222.183 20.4112L221.458 19.722ZM221.458 22.76L220.733 23.4493L220.742 23.4581L221.458 22.76ZM225.904 17.468V25H227.904V17.468H225.904ZM226.904 24H224.818V26H226.904V24ZM225.818 25V24.132H223.818V25H225.818ZM224.048 23.494C223.737 23.8698 223.264 24.112 222.466 24.112V26.112C223.722 26.112 224.817 25.7009 225.588 24.77L224.048 23.494ZM222.466 24.112C221.912 24.112 221.435 23.9897 221.015 23.7592L220.053 25.5128C220.79 25.917 221.601 26.112 222.466 26.112V24.112ZM221.021 23.7625C220.62 23.5389 220.303 23.223 220.064 22.7924L218.316 23.7636C218.73 24.509 219.31 25.0985 220.047 25.5095L221.021 23.7625ZM220.064 22.7924C219.832 22.3741 219.7 21.8648 219.7 21.234H217.7C217.7 22.1526 217.895 23.0059 218.316 23.7636L220.064 22.7924ZM219.7 21.234C219.7 20.6032 219.832 20.0939 220.064 19.6756L218.316 18.7044C217.895 19.4621 217.7 20.3154 217.7 21.234H219.7ZM220.064 19.6756C220.303 19.245 220.62 18.9291 221.021 18.7055L220.047 16.9585C219.31 17.3695 218.73 17.959 218.316 18.7044L220.064 19.6756ZM221.015 18.7088C221.435 18.4783 221.912 18.356 222.466 18.356V16.356C221.601 16.356 220.79 16.551 220.053 16.9552L221.015 18.7088ZM222.466 18.356C223.199 18.356 223.657 18.5768 223.974 18.9318L225.466 17.6002C224.7 16.7418 223.655 16.356 222.466 16.356V18.356ZM225.72 18.266V17.468H223.72V18.266H225.72ZM224.72 18.468H226.904V16.468H224.72V18.468ZM222.844 24.32C223.647 24.32 224.368 24.0362 224.932 23.4581L223.5 22.0619C223.336 22.2304 223.142 22.32 222.844 22.32V24.32ZM224.941 23.4492C225.516 22.8443 225.762 22.0703 225.762 21.234H223.762C223.762 21.667 223.644 21.9103 223.491 22.0708L224.941 23.4492ZM225.762 21.234C225.762 20.3986 225.516 19.623 224.932 19.0239L223.5 20.4201C223.644 20.5676 223.762 20.8 223.762 21.234H225.762ZM224.941 19.0328C224.379 18.4424 223.655 18.148 222.844 18.148V20.148C223.134 20.148 223.325 20.2363 223.491 20.4112L224.941 19.0328ZM222.844 18.148C222.029 18.148 221.299 18.4387 220.733 19.0328L222.183 20.4112C222.345 20.24 222.539 20.148 222.844 20.148V18.148ZM220.742 19.0239C220.158 19.623 219.912 20.3986 219.912 21.234H221.912C221.912 20.8 222.03 20.5676 222.174 20.4201L220.742 19.0239ZM219.912 21.234C219.912 22.0703 220.158 22.8443 220.733 23.4492L222.183 22.0708C222.03 21.9103 221.912 21.667 221.912 21.234H219.912ZM220.742 23.4581C221.309 24.0398 222.036 24.32 222.844 24.32V22.32C222.531 22.32 222.335 22.2269 222.174 22.0619L220.742 23.4581ZM236.402 17.468H237.402V16.468H236.402V17.468ZM236.402 25V26H237.402V25H236.402ZM234.316 25H233.316V26H234.316V25ZM234.316 24.118H235.316V21.4147L233.557 23.4672L234.316 24.118ZM233.28 24.86L232.901 23.9344L232.894 23.9376L233.28 24.86ZM229.626 24.258L228.925 24.9709L228.93 24.9764L229.626 24.258ZM228.758 17.468V16.468H227.758V17.468H228.758ZM230.942 17.468H231.942V16.468H230.942V17.468ZM233.742 22.718L234.469 23.4047L234.478 23.3946L233.742 22.718ZM234.218 17.468V16.468H233.218V17.468H234.218ZM230.046 14.486V13.486H229.039L229.046 14.4925L230.046 14.486ZM231.474 14.486L232.474 14.4574L232.446 13.486H231.474V14.486ZM231.74 15.256L230.997 15.925L231.014 15.9445L231.033 15.9631L231.74 15.256ZM233.28 15.256L232.573 14.5489V14.5489L233.28 15.256ZM233.56 14.486V13.486H232.56V14.486H233.56ZM235.016 14.486L236.016 14.4925L236.022 13.486H235.016V14.486ZM235.402 17.468V25H237.402V17.468H235.402ZM236.402 24H234.316V26H236.402V24ZM235.316 25V24.118H233.316V25H235.316ZM233.557 23.4672C233.383 23.6695 233.17 23.8246 232.901 23.9345L233.659 25.7855C234.211 25.5594 234.689 25.2198 235.075 24.7688L233.557 23.4672ZM232.894 23.9376C232.621 24.0518 232.324 24.112 231.992 24.112V26.112C232.575 26.112 233.136 26.0042 233.666 25.7824L232.894 23.9376ZM231.992 24.112C231.205 24.112 230.685 23.8919 230.322 23.5396L228.93 24.9764C229.743 25.7628 230.801 26.112 231.992 26.112V24.112ZM230.327 23.5452C230.003 23.2261 229.758 22.6801 229.758 21.724H227.758C227.758 23.0079 228.092 24.1513 228.925 24.9708L230.327 23.5452ZM229.758 21.724V17.468H227.758V21.724H229.758ZM228.758 18.468H230.942V16.468H228.758V18.468ZM229.942 17.468V21.402H231.942V17.468H229.942ZM229.942 21.402C229.942 22.1241 230.09 22.8519 230.557 23.4095C231.053 24.0009 231.754 24.222 232.468 24.222V22.222C232.164 22.222 232.103 22.1398 232.09 22.1245C232.049 22.0754 231.942 21.8933 231.942 21.402H229.942ZM232.468 24.222C233.23 24.222 233.934 23.9715 234.469 23.4046L233.015 22.0314C232.916 22.1365 232.77 22.222 232.468 22.222V24.222ZM234.478 23.3946C235.026 22.7984 235.218 22.0068 235.218 21.192H233.218C233.218 21.7212 233.092 21.947 233.006 22.0414L234.478 23.3946ZM235.218 21.192V17.468H233.218V21.192H235.218ZM234.218 18.468H236.402V16.468H234.218V18.468ZM232.524 15.656C231.828 15.656 231.49 15.5002 231.331 15.3612C231.196 15.2431 231.049 15.013 231.046 14.4795L229.046 14.4925C229.052 15.4057 229.323 16.2606 230.014 16.8658C230.681 17.4501 231.577 17.656 232.524 17.656V15.656ZM230.046 15.486H231.474V13.486H230.046V15.486ZM230.474 14.5146C230.488 15.0056 230.627 15.5146 230.997 15.925L232.483 14.587C232.496 14.601 232.497 14.6092 232.493 14.597C232.487 14.5818 232.476 14.5392 232.474 14.4574L230.474 14.5146ZM231.033 15.9631C231.455 16.3848 232.002 16.522 232.51 16.522V14.522C232.428 14.522 232.394 14.5109 232.392 14.5103C232.392 14.5102 232.399 14.5127 232.41 14.5198C232.422 14.527 232.435 14.5368 232.447 14.5489L231.033 15.9631ZM232.51 16.522C233.018 16.522 233.565 16.3848 233.987 15.9631L232.573 14.5489C232.585 14.5368 232.598 14.527 232.61 14.5198C232.621 14.5127 232.628 14.5102 232.628 14.5103C232.626 14.5109 232.592 14.522 232.51 14.522V16.522ZM233.987 15.9631C234.404 15.5465 234.56 15.0111 234.56 14.486H232.56C232.56 14.5202 232.558 14.5444 232.555 14.5599C232.554 14.5676 232.553 14.5731 232.552 14.5766C232.551 14.5801 232.55 14.5817 232.55 14.5818C232.55 14.5818 232.551 14.5804 232.552 14.578C232.553 14.5756 232.555 14.5725 232.557 14.5689C232.562 14.5612 232.567 14.5543 232.573 14.5489L233.987 15.9631ZM233.56 15.486H235.016V13.486H233.56V15.486ZM234.016 14.4795C234.013 15.0113 233.865 15.2408 233.729 15.3594C233.568 15.4997 233.225 15.656 232.524 15.656V17.656C233.474 17.656 234.373 17.4507 235.043 16.8676C235.737 16.2629 236.01 15.4074 236.016 14.4925L234.016 14.4795ZM250.356 18.196L249.643 18.8971L249.648 18.9031L249.654 18.909L250.356 18.196ZM251.196 25V26H252.196V25H251.196ZM249.012 25H248.012V26H249.012V25ZM248.634 19.694L247.857 20.3246L247.868 20.3379L247.88 20.3508L248.634 19.694ZM246.366 19.75L247.104 20.4248L247.113 20.4144L246.366 19.75ZM245.918 25V26H246.918V25H245.918ZM243.734 25H242.734V26H243.734V25ZM241.102 19.75L241.84 20.4248L241.849 20.4144L241.102 19.75ZM240.654 25V26H241.654V25H240.654ZM238.47 25H237.47V26H238.47V25ZM238.47 17.468V16.468H237.47V17.468H238.47ZM240.556 17.468H241.556V16.468H240.556V17.468ZM240.556 18.336H239.556V20.9808L241.305 18.9976L240.556 18.336ZM241.578 17.608L241.199 16.6824L241.191 16.6856L241.578 17.608ZM244.364 17.678L243.916 18.5724L243.924 18.5763L243.932 18.5801L244.364 17.678ZM245.4 18.588L244.562 19.1337L245.323 20.3036L246.186 19.2058L245.4 18.588ZM246.562 17.678L246.15 16.7664L246.144 16.7695L246.562 17.678ZM248.116 18.356C248.848 18.356 249.317 18.5658 249.643 18.8971L251.069 17.4949C250.293 16.7062 249.269 16.356 248.116 16.356V18.356ZM249.654 18.909C249.956 19.2052 250.196 19.7329 250.196 20.688H252.196C252.196 19.4218 251.876 18.2881 251.057 17.483L249.654 18.909ZM250.196 20.688V25H252.196V20.688H250.196ZM251.196 24H249.012V26H251.196V24ZM250.012 25V21.024H248.012V25H250.012ZM250.012 21.024C250.012 20.3135 249.866 19.5864 249.388 19.0372L247.88 20.3508C247.905 20.3803 248.012 20.5398 248.012 21.024H250.012ZM249.41 19.0634C248.941 18.4861 248.279 18.246 247.584 18.246V20.246C247.803 20.246 247.841 20.3045 247.857 20.3246L249.41 19.0634ZM247.584 18.246C246.83 18.246 246.135 18.5047 245.618 19.0856L247.113 20.4144C247.194 20.3233 247.311 20.246 247.584 20.246V18.246ZM245.628 19.0752C245.095 19.6572 244.918 20.4336 244.918 21.22H246.918C246.918 20.6997 247.038 20.4961 247.104 20.4248L245.628 19.0752ZM244.918 21.22V25H246.918V21.22H244.918ZM245.918 24H243.734V26H245.918V24ZM244.734 25V21.024H242.734V25H244.734ZM244.734 21.024C244.734 20.3238 244.597 19.6135 244.156 19.0643C243.682 18.4733 243.001 18.246 242.306 18.246V20.246C242.562 20.246 242.596 20.3151 242.597 20.3167C242.632 20.3602 242.734 20.5389 242.734 21.024H244.734ZM242.306 18.246C241.554 18.246 240.867 18.5089 240.354 19.0856L241.849 20.4144C241.934 20.3191 242.049 20.246 242.306 20.246V18.246ZM240.364 19.0752C239.831 19.6572 239.654 20.4336 239.654 21.22H241.654C241.654 20.6997 241.774 20.4961 241.84 20.4248L240.364 19.0752ZM239.654 21.22V25H241.654V21.22H239.654ZM240.654 24H238.47V26H240.654V24ZM239.47 25V17.468H237.47V25H239.47ZM238.47 18.468H240.556V16.468H238.47V18.468ZM239.556 17.468V18.336H241.556V17.468H239.556ZM241.305 18.9976C241.483 18.7968 241.698 18.6418 241.964 18.5304L241.191 16.6856C240.655 16.9102 240.189 17.2405 239.806 17.6744L241.305 18.9976ZM241.956 18.5335C242.236 18.4191 242.554 18.356 242.922 18.356V16.356C242.319 16.356 241.741 16.4609 241.199 16.6825L241.956 18.5335ZM242.922 18.356C243.315 18.356 243.64 18.4344 243.916 18.5724L244.811 16.7836C244.228 16.4922 243.592 16.356 242.922 16.356V18.356ZM243.932 18.5801C244.195 18.7057 244.4 18.8852 244.562 19.1337L246.238 18.0423C245.877 17.4881 245.391 17.061 244.795 16.7759L243.932 18.5801ZM246.186 19.2058C246.393 18.9424 246.652 18.7369 246.98 18.5865L246.144 16.7695C245.537 17.0484 245.022 17.4496 244.613 17.9702L246.186 19.2058ZM246.973 18.5896C247.31 18.4373 247.687 18.356 248.116 18.356V16.356C247.424 16.356 246.765 16.4893 246.15 16.7664L246.973 18.5896ZM260.701 17.468H261.701V16.468H260.701V17.468ZM260.701 25V26H261.701V25H260.701ZM258.615 25H257.615V26H258.615V25ZM258.615 24.132H259.615V21.3577L257.845 23.494L258.615 24.132ZM254.331 24.636L253.844 25.5095L253.85 25.5128L254.331 24.636ZM252.987 23.278L252.113 23.7636L252.987 23.278ZM252.987 19.19L252.113 18.7044L252.987 19.19ZM254.331 17.832L253.85 16.9552L253.844 16.9585L254.331 17.832ZM258.517 18.266L257.771 18.9318L259.517 20.8887V18.266H258.517ZM258.517 17.468V16.468H257.517V17.468H258.517ZM258.013 22.76L258.729 23.4582L258.737 23.4492L258.013 22.76ZM258.013 19.722L257.288 20.4113L257.297 20.4201L258.013 19.722ZM255.255 19.722L255.971 20.4202L255.979 20.4112L255.255 19.722ZM255.255 22.76L254.53 23.4493L254.539 23.4581L255.255 22.76ZM259.701 17.468V25H261.701V17.468H259.701ZM260.701 24H258.615V26H260.701V24ZM259.615 25V24.132H257.615V25H259.615ZM257.845 23.494C257.533 23.8698 257.061 24.112 256.263 24.112V26.112C257.518 26.112 258.614 25.7009 259.385 24.77L257.845 23.494ZM256.263 24.112C255.709 24.112 255.232 23.9897 254.812 23.7592L253.85 25.5128C254.587 25.917 255.398 26.112 256.263 26.112V24.112ZM254.818 23.7625C254.416 23.5389 254.1 23.223 253.861 22.7924L252.113 23.7636C252.527 24.509 253.107 25.0985 253.844 25.5095L254.818 23.7625ZM253.861 22.7924C253.629 22.3741 253.497 21.8648 253.497 21.234H251.497C251.497 22.1526 251.692 23.0059 252.113 23.7636L253.861 22.7924ZM253.497 21.234C253.497 20.6032 253.629 20.0939 253.861 19.6756L252.113 18.7044C251.692 19.4621 251.497 20.3154 251.497 21.234H253.497ZM253.861 19.6756C254.1 19.245 254.416 18.9291 254.818 18.7055L253.844 16.9585C253.107 17.3695 252.527 17.959 252.113 18.7044L253.861 19.6756ZM254.812 18.7088C255.232 18.4783 255.709 18.356 256.263 18.356V16.356C255.398 16.356 254.587 16.551 253.85 16.9552L254.812 18.7088ZM256.263 18.356C256.996 18.356 257.454 18.5768 257.771 18.9318L259.263 17.6002C258.497 16.7418 257.452 16.356 256.263 16.356V18.356ZM259.517 18.266V17.468H257.517V18.266H259.517ZM258.517 18.468H260.701V16.468H258.517V18.468ZM256.641 24.32C257.444 24.32 258.165 24.0362 258.729 23.4581L257.297 22.0619C257.133 22.2304 256.939 22.32 256.641 22.32V24.32ZM258.737 23.4492C259.313 22.8443 259.559 22.0703 259.559 21.234H257.559C257.559 21.667 257.441 21.9103 257.288 22.0708L258.737 23.4492ZM259.559 21.234C259.559 20.3986 259.313 19.623 258.729 19.0239L257.297 20.4201C257.441 20.5676 257.559 20.8 257.559 21.234H259.559ZM258.737 19.0328C258.176 18.4424 257.452 18.148 256.641 18.148V20.148C256.931 20.148 257.122 20.2363 257.288 20.4112L258.737 19.0328ZM256.641 18.148C255.825 18.148 255.095 18.4387 254.53 19.0328L255.979 20.4112C256.142 20.24 256.336 20.148 256.641 20.148V18.148ZM254.539 19.0239C253.955 19.623 253.709 20.3986 253.709 21.234H255.709C255.709 20.8 255.827 20.5676 255.971 20.4201L254.539 19.0239ZM253.709 21.234C253.709 22.0703 253.955 22.8443 254.53 23.4492L255.979 22.0708C255.827 21.9103 255.709 21.667 255.709 21.234H253.709ZM254.539 23.4581C255.106 24.0398 255.833 24.32 256.641 24.32V22.32C256.328 22.32 256.132 22.2269 255.971 22.0619L254.539 23.4581ZM267.497 25L266.683 25.5817L266.983 26H267.497V25ZM265.845 22.69L266.658 22.1083L265.858 20.9898L265.041 22.0955L265.845 22.69ZM264.137 25V26H264.641L264.941 25.5945L264.137 25ZM261.757 25L260.962 24.393L259.735 26H261.757V25ZM264.655 21.206L265.45 21.813L265.909 21.2119L265.455 20.6065L264.655 21.206ZM261.855 17.468V16.468H259.856L261.054 18.0675L261.855 17.468ZM264.305 17.468L265.114 16.8804L264.815 16.468H264.305V17.468ZM265.901 19.666L265.092 20.2536L265.89 21.3535L266.703 20.2635L265.901 19.666ZM267.539 17.468V16.468H267.037L266.737 16.8705L267.539 17.468ZM269.863 17.468L270.659 18.0733L271.88 16.468H269.863V17.468ZM267.063 21.15L266.267 20.5447L265.808 21.1484L266.265 21.7532L267.063 21.15ZM269.975 25V26H271.985L270.772 24.3968L269.975 25ZM268.31 24.4183L266.658 22.1083L265.031 23.2717L266.683 25.5817L268.31 24.4183ZM265.041 22.0955L263.333 24.4055L264.941 25.5945L266.649 23.2845L265.041 22.0955ZM264.137 24H261.757V26H264.137V24ZM262.552 25.607L265.45 21.813L263.86 20.599L260.962 24.393L262.552 25.607ZM265.455 20.6065L262.655 16.8685L261.054 18.0675L263.854 21.8055L265.455 20.6065ZM261.855 18.468H264.305V16.468H261.855V18.468ZM263.496 18.0556L265.092 20.2536L266.71 19.0784L265.114 16.8804L263.496 18.0556ZM266.703 20.2635L268.341 18.0655L266.737 16.8705L265.099 19.0685L266.703 20.2635ZM267.539 18.468H269.863V16.468H267.539V18.468ZM269.067 16.8627L266.267 20.5447L267.859 21.7553L270.659 18.0733L269.067 16.8627ZM266.265 21.7532L269.177 25.6032L270.772 24.3968L267.86 20.5468L266.265 21.7532ZM269.975 24H267.497V26H269.975V24ZM170.922 43.08L170.512 42.1681L168.11 43.2489L170.624 44.0345L170.922 43.08ZM171.958 43.724L171.192 44.3666L171.198 44.3738L171.204 44.3808L171.958 43.724ZM171.846 46.02L172.582 46.6975L172.591 46.6879L171.846 46.02ZM170.502 46.846L170.828 47.7915L170.502 46.846ZM166.834 46.958L166.626 47.936L166.834 46.958ZM165.252 46.412L164.319 46.0524L163.993 46.9002L164.805 47.3064L165.252 46.412ZM165.84 44.886L166.275 43.9853L165.297 43.5139L164.907 44.5264L165.84 44.886ZM169.676 45.236L170.135 46.1247L170.145 46.1191L169.676 45.236ZM169.816 44.032L169.279 44.8757L169.293 44.8845L169.308 44.8929L169.816 44.032ZM167.38 43.836H166.38V44.836H167.38V43.836ZM167.38 42.478V41.478H166.38V42.478H167.38ZM169.606 42.296L169.098 41.4351L169.606 42.296ZM169.522 41.204L169.062 42.0918L169.069 42.0951L169.075 42.0984L169.522 41.204ZM166.05 41.526L165.107 41.8579L165.454 42.8437L166.423 42.4538L166.05 41.526ZM165.518 40.014L165.118 39.0978L164.267 39.47L164.575 40.3459L165.518 40.014ZM170.39 39.58L170.089 40.5336L170.094 40.5351L170.39 39.58ZM171.664 40.322L170.937 41.008L170.942 41.0133L170.947 41.0185L171.664 40.322ZM171.804 42.408L172.598 43.0164L172.603 43.0102L172.607 43.0038L171.804 42.408ZM170.624 44.0345C170.934 44.1313 171.099 44.2558 171.192 44.3666L172.725 43.0814C172.332 42.6135 171.807 42.3087 171.221 42.1255L170.624 44.0345ZM171.204 44.3808C171.29 44.4791 171.336 44.588 171.336 44.76H173.336C173.336 44.1293 173.131 43.5475 172.712 43.0672L171.204 44.3808ZM171.336 44.76C171.336 44.9821 171.269 45.166 171.102 45.3521L172.591 46.6879C173.077 46.146 173.336 45.4899 173.336 44.76H171.336ZM171.111 45.3425C170.921 45.5485 170.628 45.7452 170.177 45.9005L170.828 47.7915C171.516 47.5548 172.118 47.2008 172.582 46.6975L171.111 45.3425ZM170.177 45.9005C169.73 46.0542 169.199 46.14 168.57 46.14V48.14C169.379 48.14 170.136 48.0298 170.828 47.7915L170.177 45.9005ZM168.57 46.14C168.052 46.14 167.543 46.0865 167.043 45.98L166.626 47.936C167.264 48.0721 167.913 48.14 168.57 48.14V46.14ZM167.043 45.98C166.55 45.875 166.104 45.7197 165.7 45.5176L164.805 47.3064C165.371 47.5896 165.98 47.7983 166.626 47.936L167.043 45.98ZM166.185 46.7716L166.773 45.2456L164.907 44.5264L164.319 46.0524L166.185 46.7716ZM165.406 45.7867C166.347 46.2405 167.375 46.46 168.472 46.46V44.46C167.647 44.46 166.921 44.2968 166.275 43.9853L165.406 45.7867ZM168.472 46.46C169.062 46.46 169.645 46.3775 170.135 46.1246L169.218 44.3474C169.129 44.3932 168.909 44.46 168.472 44.46V46.46ZM170.145 46.1191C170.69 45.8301 171.124 45.3117 171.124 44.578H169.124C169.124 44.5582 169.127 44.5273 169.138 44.4901C169.15 44.4524 169.166 44.4181 169.186 44.3897C169.224 44.3333 169.251 44.3293 169.207 44.3529L170.145 46.1191ZM171.124 44.578C171.124 43.9893 170.841 43.4762 170.325 43.1711L169.308 44.8929C169.281 44.8771 169.223 44.8332 169.176 44.7508C169.13 44.6692 169.124 44.6008 169.124 44.578H171.124ZM170.353 43.1883C169.917 42.9108 169.397 42.836 168.92 42.836V44.836C169.064 44.836 169.162 44.8482 169.225 44.8619C169.287 44.8756 169.298 44.8872 169.279 44.8757L170.353 43.1883ZM168.92 42.836H167.38V44.836H168.92V42.836ZM168.38 43.836V42.478H166.38V43.836H168.38ZM167.38 43.478H168.724V41.478H167.38V43.478ZM168.724 43.478C169.188 43.478 169.689 43.4087 170.115 43.1569L169.098 41.4351C169.111 41.4272 169.095 41.4396 169.03 41.4531C168.964 41.4666 168.865 41.478 168.724 41.478V43.478ZM170.115 43.1569C170.617 42.8606 170.914 42.3605 170.914 41.764H168.914C168.914 41.7295 168.923 41.6547 168.972 41.571C169.02 41.4883 169.077 41.4473 169.098 41.4351L170.115 43.1569ZM170.914 41.764C170.914 41.4516 170.826 41.1411 170.636 40.8685C170.452 40.6058 170.208 40.4288 169.97 40.3096L169.075 42.0984C169.098 42.1098 169.05 42.0915 168.997 42.0155C168.937 41.9295 168.914 41.8337 168.914 41.764H170.914ZM169.983 40.3162C169.523 40.0779 168.971 40.008 168.43 40.008V42.008C168.841 42.008 169.018 42.0688 169.062 42.0918L169.983 40.3162ZM168.43 40.008C167.545 40.008 166.624 40.2176 165.677 40.5982L166.423 42.4538C167.194 42.1437 167.86 42.008 168.43 42.008V40.008ZM166.994 41.1941L166.462 39.6821L164.575 40.3459L165.107 41.8579L166.994 41.1941ZM165.919 40.9302C166.857 40.5197 167.739 40.328 168.57 40.328V38.328C167.423 38.328 166.27 38.5936 165.118 39.0978L165.919 40.9302ZM168.57 40.328C169.171 40.328 169.673 40.4023 170.089 40.5336L170.691 38.6264C170.043 38.4217 169.332 38.328 168.57 38.328V40.328ZM170.094 40.5351C170.513 40.6652 170.774 40.8355 170.937 41.008L172.392 39.636C171.939 39.1552 171.35 38.8308 170.687 38.6249L170.094 40.5351ZM170.947 41.0185C171.08 41.1554 171.126 41.2813 171.126 41.442H173.126C173.126 40.744 172.865 40.1232 172.382 39.6255L170.947 41.0185ZM171.126 41.442C171.126 41.5784 171.09 41.6922 171.001 41.8122L172.607 43.0038C172.948 42.5451 173.126 42.0149 173.126 41.442H171.126ZM171.011 41.7996C170.912 41.9286 170.759 42.057 170.512 42.1681L171.333 43.9919C171.833 43.767 172.268 43.4474 172.598 43.0164L171.011 41.7996ZM181.527 39.468H182.527V38.468H181.527V39.468ZM181.527 47V48H182.527V47H181.527ZM179.441 47H178.441V48H179.441V47ZM179.441 46.132H180.441V43.3577L178.671 45.494L179.441 46.132ZM175.157 46.636L174.67 47.5095L174.676 47.5128L175.157 46.636ZM173.813 45.278L172.939 45.7636L173.813 45.278ZM173.813 41.19L172.939 40.7044L173.813 41.19ZM175.157 39.832L174.676 38.9552L174.67 38.9585L175.157 39.832ZM179.343 40.266L178.597 40.9318L180.343 42.8887V40.266H179.343ZM179.343 39.468V38.468H178.343V39.468H179.343ZM178.839 44.76L179.555 45.4582L179.564 45.4492L178.839 44.76ZM178.839 41.722L178.114 42.4113L178.123 42.4201L178.839 41.722ZM176.081 41.722L176.797 42.4202L176.806 42.4112L176.081 41.722ZM176.081 44.76L175.356 45.4493L175.365 45.4581L176.081 44.76ZM180.527 39.468V47H182.527V39.468H180.527ZM181.527 46H179.441V48H181.527V46ZM180.441 47V46.132H178.441V47H180.441ZM178.671 45.494C178.36 45.8698 177.887 46.112 177.089 46.112V48.112C178.345 48.112 179.44 47.7009 180.211 46.77L178.671 45.494ZM177.089 46.112C176.535 46.112 176.058 45.9897 175.638 45.7592L174.676 47.5128C175.413 47.917 176.225 48.112 177.089 48.112V46.112ZM175.644 45.7625C175.243 45.5389 174.926 45.223 174.687 44.7924L172.939 45.7636C173.353 46.509 173.933 47.0985 174.67 47.5095L175.644 45.7625ZM174.687 44.7924C174.455 44.3741 174.323 43.8648 174.323 43.234H172.323C172.323 44.1526 172.518 45.0059 172.939 45.7636L174.687 44.7924ZM174.323 43.234C174.323 42.6032 174.455 42.0939 174.687 41.6756L172.939 40.7044C172.518 41.4621 172.323 42.3154 172.323 43.234H174.323ZM174.687 41.6756C174.926 41.245 175.243 40.9291 175.644 40.7055L174.67 38.9585C173.933 39.3695 173.353 39.959 172.939 40.7044L174.687 41.6756ZM175.638 40.7088C176.058 40.4783 176.535 40.356 177.089 40.356V38.356C176.225 38.356 175.413 38.551 174.676 38.9552L175.638 40.7088ZM177.089 40.356C177.822 40.356 178.28 40.5768 178.597 40.9318L180.089 39.6002C179.323 38.7418 178.278 38.356 177.089 38.356V40.356ZM180.343 40.266V39.468H178.343V40.266H180.343ZM179.343 40.468H181.527V38.468H179.343V40.468ZM177.467 46.32C178.27 46.32 178.991 46.0362 179.555 45.4581L178.123 44.0619C177.959 44.2304 177.765 44.32 177.467 44.32V46.32ZM179.564 45.4492C180.139 44.8443 180.385 44.0703 180.385 43.234H178.385C178.385 43.667 178.267 43.9103 178.114 44.0708L179.564 45.4492ZM180.385 43.234C180.385 42.3986 180.139 41.623 179.555 41.0239L178.123 42.4201C178.267 42.5676 178.385 42.8 178.385 43.234H180.385ZM179.564 41.0328C179.002 40.4424 178.278 40.148 177.467 40.148V42.148C177.757 42.148 177.948 42.2363 178.114 42.4112L179.564 41.0328ZM177.467 40.148C176.652 40.148 175.922 40.4387 175.356 41.0328L176.806 42.4112C176.968 42.24 177.162 42.148 177.467 42.148V40.148ZM175.365 41.0239C174.781 41.623 174.535 42.3986 174.535 43.234H176.535C176.535 42.8 176.653 42.5676 176.797 42.4201L175.365 41.0239ZM174.535 43.234C174.535 44.0703 174.781 44.8443 175.356 45.4492L176.806 44.0708C176.653 43.9103 176.535 43.667 176.535 43.234H174.535ZM175.365 45.4581C175.932 46.0398 176.66 46.32 177.467 46.32V44.32C177.154 44.32 176.958 44.2269 176.797 44.0619L175.365 45.4581ZM186.909 44.144L187.726 43.5673L187.427 43.144H186.909V44.144ZM185.775 44.144V43.144H184.775V44.144H185.775ZM185.775 47V48H186.775V47H185.775ZM183.591 47H182.591V48H183.591V47ZM183.591 39.468V38.468H182.591V39.468H183.591ZM185.775 39.468H186.775V38.468H185.775V39.468ZM185.775 42.394H184.775V43.394H185.775V42.394ZM186.951 42.394V43.394H187.472L187.771 42.9667L186.951 42.394ZM188.995 39.468V38.468H188.474L188.175 38.8953L188.995 39.468ZM191.319 39.468L192.127 40.0569L193.285 38.468H191.319V39.468ZM188.687 43.08L187.879 42.4911L187.453 43.0756L187.875 43.6632L188.687 43.08ZM191.501 47V48H193.45L192.313 46.4168L191.501 47ZM188.925 47L188.108 47.5767L188.407 48H188.925V47ZM186.909 43.144H185.775V45.144H186.909V43.144ZM184.775 44.144V47H186.775V44.144H184.775ZM185.775 46H183.591V48H185.775V46ZM184.591 47V39.468H182.591V47H184.591ZM183.591 40.468H185.775V38.468H183.591V40.468ZM184.775 39.468V42.394H186.775V39.468H184.775ZM185.775 43.394H186.951V41.394H185.775V43.394ZM187.771 42.9667L189.815 40.0407L188.175 38.8953L186.131 41.8213L187.771 42.9667ZM188.995 40.468H191.319V38.468H188.995V40.468ZM190.511 38.8791L187.879 42.4911L189.495 43.6689L192.127 40.0569L190.511 38.8791ZM187.875 43.6632L190.689 47.5832L192.313 46.4168L189.499 42.4968L187.875 43.6632ZM191.501 46H188.925V48H191.501V46ZM189.742 46.4233L187.726 43.5673L186.092 44.7207L188.108 47.5767L189.742 46.4233ZM199.943 39.468H200.943V38.468H199.943V39.468ZM199.943 47V48H200.943V47H199.943ZM197.857 47H196.857V48H197.857V47ZM197.857 46.132H198.857V43.3577L197.087 45.494L197.857 46.132ZM193.573 46.636L193.086 47.5095L193.092 47.5128L193.573 46.636ZM192.229 45.278L191.355 45.7636L192.229 45.278ZM192.229 41.19L191.355 40.7044L192.229 41.19ZM193.573 39.832L193.092 38.9552L193.086 38.9585L193.573 39.832ZM197.759 40.266L197.013 40.9318L198.759 42.8887V40.266H197.759ZM197.759 39.468V38.468H196.759V39.468H197.759ZM197.255 44.76L197.971 45.4582L197.98 45.4492L197.255 44.76ZM197.255 41.722L196.53 42.4113L196.539 42.4201L197.255 41.722ZM194.497 41.722L195.213 42.4202L195.222 42.4112L194.497 41.722ZM194.497 44.76L193.772 45.4493L193.781 45.4581L194.497 44.76ZM198.943 39.468V47H200.943V39.468H198.943ZM199.943 46H197.857V48H199.943V46ZM198.857 47V46.132H196.857V47H198.857ZM197.087 45.494C196.776 45.8698 196.303 46.112 195.505 46.112V48.112C196.761 48.112 197.856 47.7009 198.627 46.77L197.087 45.494ZM195.505 46.112C194.951 46.112 194.474 45.9897 194.054 45.7592L193.092 47.5128C193.829 47.917 194.641 48.112 195.505 48.112V46.112ZM194.06 45.7625C193.659 45.5389 193.342 45.223 193.103 44.7924L191.355 45.7636C191.769 46.509 192.349 47.0985 193.086 47.5095L194.06 45.7625ZM193.103 44.7924C192.871 44.3741 192.739 43.8648 192.739 43.234H190.739C190.739 44.1526 190.934 45.0059 191.355 45.7636L193.103 44.7924ZM192.739 43.234C192.739 42.6032 192.871 42.0939 193.103 41.6756L191.355 40.7044C190.934 41.4621 190.739 42.3154 190.739 43.234H192.739ZM193.103 41.6756C193.342 41.245 193.659 40.9291 194.06 40.7055L193.086 38.9585C192.349 39.3695 191.769 39.959 191.355 40.7044L193.103 41.6756ZM194.054 40.7088C194.474 40.4783 194.951 40.356 195.505 40.356V38.356C194.641 38.356 193.829 38.551 193.092 38.9552L194.054 40.7088ZM195.505 40.356C196.238 40.356 196.696 40.5768 197.013 40.9318L198.505 39.6002C197.739 38.7418 196.694 38.356 195.505 38.356V40.356ZM198.759 40.266V39.468H196.759V40.266H198.759ZM197.759 40.468H199.943V38.468H197.759V40.468ZM195.883 46.32C196.686 46.32 197.407 46.0362 197.971 45.4581L196.539 44.0619C196.375 44.2304 196.181 44.32 195.883 44.32V46.32ZM197.98 45.4492C198.555 44.8443 198.801 44.0703 198.801 43.234H196.801C196.801 43.667 196.683 43.9103 196.53 44.0708L197.98 45.4492ZM198.801 43.234C198.801 42.3986 198.555 41.623 197.971 41.0239L196.539 42.4201C196.683 42.5676 196.801 42.8 196.801 43.234H198.801ZM197.98 41.0328C197.418 40.4424 196.694 40.148 195.883 40.148V42.148C196.173 42.148 196.364 42.2363 196.53 42.4112L197.98 41.0328ZM195.883 40.148C195.068 40.148 194.338 40.4387 193.772 41.0328L195.222 42.4112C195.384 42.24 195.578 42.148 195.883 42.148V40.148ZM193.781 41.0239C193.197 41.623 192.951 42.3986 192.951 43.234H194.951C194.951 42.8 195.069 42.5676 195.213 42.4201L193.781 41.0239ZM192.951 43.234C192.951 44.0703 193.197 44.8443 193.772 45.4492L195.222 44.0708C195.069 43.9103 194.951 43.667 194.951 43.234H192.951ZM193.781 45.4581C194.348 46.0398 195.076 46.32 195.883 46.32V44.32C195.57 44.32 195.374 44.2269 195.213 44.0619L193.781 45.4581ZM206.825 43.08L206.414 42.1681L204.013 43.2489L206.526 44.0345L206.825 43.08ZM207.861 43.724L207.094 44.3666L207.1 44.3738L207.107 44.3808L207.861 43.724ZM207.749 46.02L208.484 46.6975L208.493 46.6879L207.749 46.02ZM206.405 46.846L206.73 47.7915L206.405 46.846ZM202.737 46.958L202.528 47.936L202.737 46.958ZM201.155 46.412L200.222 46.0524L199.895 46.9002L200.707 47.3064L201.155 46.412ZM201.743 44.886L202.177 43.9853L201.2 43.5139L200.81 44.5264L201.743 44.886ZM205.579 45.236L206.037 46.1247L206.048 46.1191L205.579 45.236ZM205.719 44.032L205.182 44.8757L205.196 44.8845L205.21 44.8929L205.719 44.032ZM203.283 43.836H202.283V44.836H203.283V43.836ZM203.283 42.478V41.478H202.283V42.478H203.283ZM205.509 42.296L205 41.4351L205.509 42.296ZM205.425 41.204L204.964 42.0918L204.971 42.0951L204.977 42.0984L205.425 41.204ZM201.953 41.526L201.009 41.8579L201.356 42.8437L202.326 42.4538L201.953 41.526ZM201.421 40.014L201.02 39.0978L200.169 39.47L200.477 40.3459L201.421 40.014ZM206.293 39.58L205.992 40.5336L205.996 40.5351L206.293 39.58ZM207.567 40.322L206.839 41.008L206.844 41.0133L206.849 41.0185L207.567 40.322ZM207.707 42.408L208.5 43.0164L208.505 43.0102L208.51 43.0038L207.707 42.408ZM206.526 44.0345C206.836 44.1313 207.002 44.2558 207.094 44.3666L208.627 43.0814C208.234 42.6135 207.709 42.3087 207.123 42.1255L206.526 44.0345ZM207.107 44.3808C207.192 44.4791 207.239 44.588 207.239 44.76H209.239C209.239 44.1293 209.033 43.5475 208.615 43.0672L207.107 44.3808ZM207.239 44.76C207.239 44.9821 207.171 45.166 207.004 45.3521L208.493 46.6879C208.979 46.146 209.239 45.4899 209.239 44.76H207.239ZM207.013 45.3425C206.823 45.5485 206.53 45.7452 206.079 45.9005L206.73 47.7915C207.418 47.5548 208.021 47.2008 208.484 46.6975L207.013 45.3425ZM206.079 45.9005C205.633 46.0542 205.101 46.14 204.473 46.14V48.14C205.281 48.14 206.038 48.0298 206.73 47.7915L206.079 45.9005ZM204.473 46.14C203.954 46.14 203.445 46.0865 202.945 45.98L202.528 47.936C203.167 48.0721 203.815 48.14 204.473 48.14V46.14ZM202.945 45.98C202.453 45.875 202.006 45.7197 201.602 45.5176L200.707 47.3064C201.274 47.5896 201.882 47.7983 202.528 47.936L202.945 45.98ZM202.088 46.7716L202.676 45.2456L200.81 44.5264L200.222 46.0524L202.088 46.7716ZM201.308 45.7867C202.249 46.2405 203.277 46.46 204.375 46.46V44.46C203.55 44.46 202.823 44.2968 202.177 43.9853L201.308 45.7867ZM204.375 46.46C204.965 46.46 205.547 46.3775 206.037 46.1246L205.12 44.3474C205.031 44.3932 204.811 44.46 204.375 44.46V46.46ZM206.048 46.1191C206.592 45.8301 207.027 45.3117 207.027 44.578H205.027C205.027 44.5582 205.029 44.5273 205.041 44.4901C205.052 44.4524 205.069 44.4181 205.088 44.3897C205.126 44.3333 205.154 44.3293 205.11 44.3529L206.048 46.1191ZM207.027 44.578C207.027 43.9893 206.744 43.4762 206.227 43.1711L205.21 44.8929C205.183 44.8771 205.125 44.8332 205.079 44.7508C205.033 44.6692 205.027 44.6008 205.027 44.578H207.027ZM206.256 43.1883C205.819 42.9108 205.299 42.836 204.823 42.836V44.836C204.966 44.836 205.064 44.8482 205.127 44.8619C205.19 44.8756 205.2 44.8872 205.182 44.8757L206.256 43.1883ZM204.823 42.836H203.283V44.836H204.823V42.836ZM204.283 43.836V42.478H202.283V43.836H204.283ZM203.283 43.478H204.627V41.478H203.283V43.478ZM204.627 43.478C205.091 43.478 205.591 43.4087 206.017 43.1569L205 41.4351C205.013 41.4272 204.998 41.4396 204.932 41.4531C204.867 41.4666 204.768 41.478 204.627 41.478V43.478ZM206.017 43.1569C206.519 42.8606 206.817 42.3605 206.817 41.764H204.817C204.817 41.7295 204.826 41.6547 204.874 41.571C204.922 41.4883 204.979 41.4473 205 41.4351L206.017 43.1569ZM206.817 41.764C206.817 41.4516 206.729 41.1411 206.538 40.8685C206.354 40.6058 206.11 40.4288 205.872 40.3096L204.977 42.0984C205 42.1098 204.953 42.0915 204.899 42.0155C204.839 41.9295 204.817 41.8337 204.817 41.764H206.817ZM205.885 40.3162C205.425 40.0779 204.874 40.008 204.333 40.008V42.008C204.744 42.008 204.92 42.0688 204.964 42.0918L205.885 40.3162ZM204.333 40.008C203.447 40.008 202.526 40.2176 201.58 40.5982L202.326 42.4538C203.097 42.1437 203.762 42.008 204.333 42.008V40.008ZM202.896 41.1941L202.364 39.6821L200.477 40.3459L201.009 41.8579L202.896 41.1941ZM201.821 40.9302C202.76 40.5197 203.641 40.328 204.473 40.328V38.328C203.326 38.328 202.172 38.5936 201.02 39.0978L201.821 40.9302ZM204.473 40.328C205.074 40.328 205.576 40.4023 205.992 40.5336L206.594 38.6264C205.946 38.4217 205.234 38.328 204.473 38.328V40.328ZM205.996 40.5351C206.416 40.6652 206.676 40.8355 206.839 41.008L208.294 39.636C207.841 39.1552 207.252 38.8308 206.589 38.6249L205.996 40.5351ZM206.849 41.0185C206.982 41.1554 207.029 41.2813 207.029 41.442H209.029C209.029 40.744 208.767 40.1232 208.284 39.6255L206.849 41.0185ZM207.029 41.442C207.029 41.5784 206.993 41.6922 206.904 41.8122L208.51 43.0038C208.85 42.5451 209.029 42.0149 209.029 41.442H207.029ZM206.913 41.7996C206.814 41.9286 206.661 42.057 206.414 42.1681L207.235 43.9919C207.735 43.767 208.17 43.4474 208.5 43.0164L206.913 41.7996ZM210.555 46.412L209.89 47.1588L210.555 46.412ZM209.659 39.468V38.468H208.659V39.468H209.659ZM211.829 39.468H212.829V38.468H211.829V39.468ZM211.829 42.016H210.829V43.9298L212.4 42.8369L211.829 42.016ZM212.669 41.638L212.391 40.6774L212.384 40.6795L212.669 41.638ZM216.043 42.184L216.709 41.4381L216.043 42.184ZM215.861 46.44L216.485 47.222L216.492 47.2165L215.861 46.44ZM217.625 39.468V38.468H216.625V39.468H217.625ZM219.809 39.468H220.809V38.468H219.809V39.468ZM219.809 47V48H220.809V47H219.809ZM217.625 47H216.625V48H217.625V47ZM214.265 45.278L215.011 45.944L214.265 45.278ZM214.251 43.318L213.531 44.0111L213.544 44.0252L213.558 44.0388L214.251 43.318ZM212.389 43.15L212.851 44.0372L212.857 44.0339L212.863 44.0305L212.389 43.15ZM211.829 43.654L210.992 43.1077L210.829 43.3567V43.654H211.829ZM212.193 45.306L211.473 45.9996L211.48 46.0064L211.486 46.0131L212.193 45.306ZM213.243 46.21C212.176 46.21 211.562 45.9699 211.22 45.6652L209.89 47.1588C210.743 47.9181 211.921 48.21 213.243 48.21V46.21ZM211.22 45.6652C210.895 45.3754 210.659 44.9002 210.659 44.06H208.659C208.659 45.2918 209.021 46.3846 209.89 47.1588L211.22 45.6652ZM210.659 44.06V39.468H208.659V44.06H210.659ZM209.659 40.468H211.829V38.468H209.659V40.468ZM210.829 39.468V42.016H212.829V39.468H210.829ZM212.4 42.8369C212.502 42.7665 212.675 42.6795 212.954 42.5965L212.384 40.6795C211.973 40.8019 211.586 40.9668 211.258 41.1951L212.4 42.8369ZM212.947 42.5986C213.195 42.5269 213.5 42.484 213.873 42.484V40.484C213.351 40.484 212.853 40.5437 212.391 40.6774L212.947 42.5986ZM213.873 42.484C214.632 42.484 215.09 42.6732 215.377 42.9299L216.709 41.4381C215.952 40.7614 214.963 40.484 213.873 40.484V42.484ZM215.377 42.9299C215.632 43.1569 215.827 43.5321 215.827 44.228H217.827C217.827 43.1319 217.5 42.1444 216.709 41.4381L215.377 42.9299ZM215.827 44.228C215.827 44.9287 215.605 45.3602 215.231 45.6635L216.492 47.2165C217.406 46.4745 217.827 45.4313 217.827 44.228H215.827ZM215.238 45.658C214.823 45.989 214.195 46.21 213.243 46.21V48.21C214.495 48.21 215.612 47.9177 216.485 47.222L215.238 45.658ZM217.625 40.468H219.809V38.468H217.625V40.468ZM218.809 39.468V47H220.809V39.468H218.809ZM219.809 46H217.625V48H219.809V46ZM218.625 47V39.468H216.625V47H218.625ZM213.243 46.67C213.891 46.67 214.538 46.4738 215.011 45.944L213.519 44.612C213.513 44.6188 213.505 44.6276 213.477 44.6383C213.443 44.6511 213.372 44.67 213.243 44.67V46.67ZM215.011 45.944C215.44 45.4644 215.615 44.8703 215.615 44.256H213.615C213.615 44.4817 213.558 44.5689 213.519 44.612L215.011 45.944ZM215.615 44.256C215.615 43.6406 215.416 43.0503 214.944 42.5972L213.558 44.0388C213.572 44.0524 213.615 44.0874 213.615 44.256H215.615ZM214.972 42.6249C214.494 42.1276 213.856 41.954 213.229 41.954V43.954C213.365 43.954 213.445 43.9726 213.485 43.987C213.521 43.9996 213.529 44.0097 213.531 44.0111L214.972 42.6249ZM213.229 41.954C212.772 41.954 212.324 42.0492 211.915 42.2695L212.863 44.0305C212.94 43.9894 213.052 43.954 213.229 43.954V41.954ZM211.928 42.2628C211.546 42.4613 211.228 42.745 210.992 43.1077L212.667 44.2003C212.71 44.1336 212.766 44.0813 212.851 44.0372L211.928 42.2628ZM210.829 43.654V44.27H212.829V43.654H210.829ZM210.829 44.27C210.829 44.8984 211.008 45.517 211.473 45.9996L212.914 44.6124C212.893 44.591 212.829 44.5189 212.829 44.27H210.829ZM211.486 46.0131C211.972 46.4992 212.612 46.67 213.243 46.67V44.67C213.101 44.67 213.014 44.6509 212.965 44.6342C212.922 44.619 212.907 44.605 212.9 44.5989L211.486 46.0131ZM227.654 43.066L227.245 42.1532L224.911 43.1974L227.334 44.0137L227.654 43.066ZM221.9 47H220.9V48H221.9V47ZM221.9 39.468V38.468H220.9V39.468H221.9ZM227.962 39.986L227.417 40.8248L227.428 40.8315L227.962 39.986ZM228.466 42.408L227.638 41.8471L227.634 41.8533L228.466 42.408ZM223.902 42.562H222.902V43.562H223.902V42.562ZM223.902 40.952V39.952H222.902V40.952H223.902ZM226.66 44.06L226.06 44.86L226.073 44.8698L226.086 44.8792L226.66 44.06ZM223.902 43.85V42.85H222.902V43.85H223.902ZM223.902 45.516H222.902V46.516H223.902V45.516ZM227.334 44.0137C227.634 44.1147 227.776 44.237 227.848 44.334C227.917 44.4273 227.984 44.5796 227.984 44.858H229.984C229.984 44.2404 229.828 43.646 229.454 43.142C229.083 42.6417 228.559 42.3159 227.973 42.1183L227.334 44.0137ZM227.984 44.858C227.984 45.2468 227.859 45.4617 227.625 45.6313L228.802 47.2487C229.595 46.6716 229.984 45.8318 229.984 44.858H227.984ZM227.625 45.6313C227.358 45.8255 226.841 46 225.918 46V48C227.029 48 228.042 47.8011 228.802 47.2487L227.625 45.6313ZM225.918 46H221.9V48H225.918V46ZM222.9 47V39.468H220.9V47H222.9ZM221.9 40.468H225.75V38.468H221.9V40.468ZM225.75 40.468C226.587 40.468 227.108 40.6242 227.417 40.8248L228.506 39.1472C227.751 38.6572 226.797 38.468 225.75 38.468V40.468ZM227.428 40.8315C227.677 40.9891 227.76 41.15 227.76 41.414H229.76C229.76 40.446 229.31 39.6549 228.496 39.1405L227.428 40.8315ZM227.76 41.414C227.76 41.6017 227.714 41.7349 227.638 41.8472L229.294 42.9688C229.609 42.5025 229.76 41.9729 229.76 41.414H227.76ZM227.634 41.8533C227.567 41.9533 227.455 42.0594 227.245 42.1532L228.062 43.9788C228.562 43.7553 228.991 43.4227 229.298 42.9627L227.634 41.8533ZM223.902 43.562H225.554V41.562H223.902V43.562ZM225.554 43.562C226.024 43.562 226.555 43.4844 226.992 43.1754C227.492 42.8216 227.702 42.2874 227.702 41.75H225.702C225.702 41.7678 225.699 41.7354 225.725 41.679C225.754 41.6173 225.798 41.57 225.837 41.5426C225.87 41.5197 225.876 41.5262 225.826 41.5379C225.776 41.5497 225.689 41.562 225.554 41.562V43.562ZM227.702 41.75C227.702 41.2102 227.487 40.679 226.985 40.3304C226.55 40.0277 226.021 39.952 225.554 39.952V41.952C225.69 41.952 225.779 41.9642 225.83 41.9761C225.881 41.9879 225.876 41.9949 225.844 41.9726C225.805 41.9458 225.759 41.8979 225.728 41.8333C225.7 41.7735 225.702 41.7368 225.702 41.75H227.702ZM225.554 39.952H223.902V41.952H225.554V39.952ZM222.902 40.952V42.562H224.902V40.952H222.902ZM225.736 46.516C226.22 46.516 226.761 46.4385 227.204 46.1341C227.716 45.7831 227.94 45.2446 227.94 44.69H225.94C225.94 44.7061 225.937 44.6718 225.965 44.6144C225.995 44.5523 226.039 44.508 226.073 44.4849C226.1 44.4662 226.099 44.4759 226.039 44.4895C225.98 44.5031 225.882 44.516 225.736 44.516V46.516ZM227.94 44.69C227.94 44.1727 227.759 43.6087 227.233 43.2408L226.086 44.8792C226.061 44.8616 226.034 44.8378 226.01 44.8078C225.985 44.778 225.967 44.7479 225.956 44.7216C225.933 44.6702 225.94 44.6502 225.94 44.69H227.94ZM227.26 43.26C226.814 42.9258 226.255 42.85 225.778 42.85V44.85C225.924 44.85 226.016 44.8632 226.067 44.8753C226.119 44.8875 226.103 44.8927 226.06 44.86L227.26 43.26ZM225.778 42.85H223.902V44.85H225.778V42.85ZM222.902 43.85V45.516H224.902V43.85H222.902ZM223.902 46.516H225.736V44.516H223.902V46.516ZM238.211 39.468H239.211V38.468H238.211V39.468ZM238.211 47V48H239.211V47H238.211ZM236.125 47H235.125V48H236.125V47ZM236.125 46.132H237.125V43.3577L235.355 45.494L236.125 46.132ZM231.841 46.636L231.354 47.5095L231.36 47.5128L231.841 46.636ZM230.497 45.278L229.622 45.7636L230.497 45.278ZM230.497 41.19L229.622 40.7044L230.497 41.19ZM231.841 39.832L231.36 38.9552L231.354 38.9585L231.841 39.832ZM236.027 40.266L235.28 40.9318L237.027 42.8887V40.266H236.027ZM236.027 39.468V38.468H235.027V39.468H236.027ZM235.523 44.76L236.239 45.4582L236.247 45.4492L235.523 44.76ZM235.523 41.722L234.798 42.4113L234.807 42.4201L235.523 41.722ZM232.765 41.722L233.481 42.4202L233.489 42.4112L232.765 41.722ZM232.765 44.76L232.04 45.4493L232.049 45.4581L232.765 44.76ZM237.211 39.468V47H239.211V39.468H237.211ZM238.211 46H236.125V48H238.211V46ZM237.125 47V46.132H235.125V47H237.125ZM235.355 45.494C235.043 45.8698 234.57 46.112 233.773 46.112V48.112C235.028 48.112 236.123 47.7009 236.895 46.77L235.355 45.494ZM233.773 46.112C233.218 46.112 232.742 45.9897 232.321 45.7592L231.36 47.5128C232.097 47.917 232.908 48.112 233.773 48.112V46.112ZM232.327 45.7625C231.926 45.5389 231.61 45.223 231.371 44.7924L229.622 45.7636C230.037 46.509 230.616 47.0985 231.354 47.5095L232.327 45.7625ZM231.371 44.7924C231.138 44.3741 231.007 43.8648 231.007 43.234H229.007C229.007 44.1526 229.201 45.0059 229.622 45.7636L231.371 44.7924ZM231.007 43.234C231.007 42.6032 231.138 42.0939 231.371 41.6756L229.622 40.7044C229.201 41.4621 229.007 42.3154 229.007 43.234H231.007ZM231.371 41.6756C231.61 41.245 231.926 40.9291 232.327 40.7055L231.354 38.9585C230.616 39.3695 230.037 39.959 229.622 40.7044L231.371 41.6756ZM232.321 40.7088C232.742 40.4783 233.218 40.356 233.773 40.356V38.356C232.908 38.356 232.097 38.551 231.36 38.9552L232.321 40.7088ZM233.773 40.356C234.506 40.356 234.964 40.5768 235.28 40.9318L236.773 39.6002C236.007 38.7418 234.962 38.356 233.773 38.356V40.356ZM237.027 40.266V39.468H235.027V40.266H237.027ZM236.027 40.468H238.211V38.468H236.027V40.468ZM234.151 46.32C234.954 46.32 235.675 46.0362 236.239 45.4581L234.807 44.0619C234.642 44.2304 234.449 44.32 234.151 44.32V46.32ZM236.247 45.4492C236.823 44.8443 237.069 44.0703 237.069 43.234H235.069C235.069 43.667 234.951 43.9103 234.798 44.0708L236.247 45.4492ZM237.069 43.234C237.069 42.3986 236.823 41.623 236.239 41.0239L234.807 42.4201C234.95 42.5676 235.069 42.8 235.069 43.234H237.069ZM236.247 41.0328C235.686 40.4424 234.962 40.148 234.151 40.148V42.148C234.441 42.148 234.632 42.2363 234.798 42.4112L236.247 41.0328ZM234.151 40.148C233.335 40.148 232.605 40.4387 232.04 41.0328L233.489 42.4112C233.652 42.24 233.846 42.148 234.151 42.148V40.148ZM232.049 41.0239C231.464 41.623 231.219 42.3986 231.219 43.234H233.219C233.219 42.8 233.337 42.5676 233.481 42.4201L232.049 41.0239ZM231.219 43.234C231.219 44.0703 231.465 44.8443 232.04 45.4492L233.489 44.0708C233.337 43.9103 233.219 43.667 233.219 43.234H231.219ZM232.049 45.4581C232.616 46.0398 233.343 46.32 234.151 46.32V44.32C233.838 44.32 233.641 44.2269 233.481 44.0619L232.049 45.4581ZM252.147 40.196L251.434 40.8971L251.439 40.9031L251.445 40.909L252.147 40.196ZM252.987 47V48H253.987V47H252.987ZM250.803 47H249.803V48H250.803V47ZM250.425 41.694L249.648 42.3246L249.659 42.3379L249.671 42.3508L250.425 41.694ZM248.157 41.75L248.895 42.4248L248.904 42.4144L248.157 41.75ZM247.709 47V48H248.709V47H247.709ZM245.525 47H244.525V48H245.525V47ZM242.893 41.75L243.631 42.4248L243.64 42.4144L242.893 41.75ZM242.445 47V48H243.445V47H242.445ZM240.261 47H239.261V48H240.261V47ZM240.261 39.468V38.468H239.261V39.468H240.261ZM242.347 39.468H243.347V38.468H242.347V39.468ZM242.347 40.336H241.347V42.9808L243.096 40.9976L242.347 40.336ZM243.369 39.608L242.99 38.6824L242.982 38.6856L243.369 39.608ZM246.155 39.678L245.707 40.5724L245.715 40.5764L245.723 40.5801L246.155 39.678ZM247.191 40.588L246.353 41.1337L247.114 42.3036L247.977 41.2058L247.191 40.588ZM248.353 39.678L247.941 38.7664L247.935 38.7695L248.353 39.678ZM249.907 40.356C250.639 40.356 251.108 40.5658 251.434 40.8971L252.86 39.4949C252.084 38.7062 251.06 38.356 249.907 38.356V40.356ZM251.445 40.909C251.747 41.2052 251.987 41.7329 251.987 42.688H253.987C253.987 41.4218 253.667 40.2881 252.848 39.483L251.445 40.909ZM251.987 42.688V47H253.987V42.688H251.987ZM252.987 46H250.803V48H252.987V46ZM251.803 47V43.024H249.803V47H251.803ZM251.803 43.024C251.803 42.3135 251.657 41.5864 251.179 41.0372L249.671 42.3508C249.696 42.3803 249.803 42.5398 249.803 43.024H251.803ZM251.201 41.0634C250.732 40.4861 250.07 40.246 249.375 40.246V42.246C249.594 42.246 249.632 42.3045 249.648 42.3246L251.201 41.0634ZM249.375 40.246C248.621 40.246 247.926 40.5047 247.409 41.0856L248.904 42.4144C248.985 42.3233 249.102 42.246 249.375 42.246V40.246ZM247.419 41.0752C246.886 41.6572 246.709 42.4336 246.709 43.22H248.709C248.709 42.6997 248.829 42.4961 248.895 42.4248L247.419 41.0752ZM246.709 43.22V47H248.709V43.22H246.709ZM247.709 46H245.525V48H247.709V46ZM246.525 47V43.024H244.525V47H246.525ZM246.525 43.024C246.525 42.3238 246.388 41.6135 245.947 41.0643C245.473 40.4733 244.792 40.246 244.097 40.246V42.246C244.353 42.246 244.387 42.3151 244.388 42.3167C244.423 42.3602 244.525 42.5389 244.525 43.024H246.525ZM244.097 40.246C243.346 40.246 242.658 40.5089 242.145 41.0856L243.64 42.4144C243.725 42.3191 243.84 42.246 244.097 42.246V40.246ZM242.155 41.0752C241.622 41.6572 241.445 42.4336 241.445 43.22H243.445C243.445 42.6997 243.565 42.4961 243.631 42.4248L242.155 41.0752ZM241.445 43.22V47H243.445V43.22H241.445ZM242.445 46H240.261V48H242.445V46ZM241.261 47V39.468H239.261V47H241.261ZM240.261 40.468H242.347V38.468H240.261V40.468ZM241.347 39.468V40.336H243.347V39.468H241.347ZM243.096 40.9976C243.274 40.7968 243.489 40.6418 243.755 40.5304L242.982 38.6856C242.446 38.9102 241.98 39.2405 241.597 39.6744L243.096 40.9976ZM243.747 40.5335C244.027 40.4191 244.345 40.356 244.713 40.356V38.356C244.11 38.356 243.532 38.4609 242.99 38.6825L243.747 40.5335ZM244.713 40.356C245.106 40.356 245.431 40.4344 245.707 40.5724L246.602 38.7836C246.019 38.4922 245.383 38.356 244.713 38.356V40.356ZM245.723 40.5801C245.986 40.7057 246.191 40.8852 246.353 41.1337L248.029 40.0423C247.668 39.4881 247.182 39.061 246.586 38.7759L245.723 40.5801ZM247.977 41.2058C248.184 40.9424 248.443 40.7369 248.771 40.5865L247.935 38.7695C247.328 39.0484 246.813 39.4496 246.404 39.9702L247.977 41.2058ZM248.764 40.5896C249.101 40.4373 249.478 40.356 249.907 40.356V38.356C249.215 38.356 248.556 38.4893 247.941 38.7664L248.764 40.5896ZM255.632 46.412L254.973 47.1639L254.978 47.1688L255.632 46.412ZM254.722 39.468V38.468H253.722V39.468H254.722ZM256.892 39.468H257.892V38.468H256.892V39.468ZM256.892 42.016H255.892V43.9682L257.476 42.8275L256.892 42.016ZM257.788 41.624L257.545 40.6538L257.539 40.6553L257.788 41.624ZM261.246 42.184L261.905 41.4322L261.246 42.184ZM261.05 46.44L260.437 45.6494L260.432 45.6537L261.05 46.44ZM259.426 45.292L258.732 44.5722L258.725 44.5785L258.719 44.5849L259.426 45.292ZM259.44 43.304L258.747 44.0248L258.754 44.0314L258.76 44.0378L259.44 43.304ZM257.494 43.136L257.073 42.229V42.229L257.494 43.136ZM256.892 43.654L256.044 43.124L255.892 43.3672V43.654H256.892ZM257.27 45.306L256.563 46.0131L256.576 46.0262L256.589 46.0388L257.27 45.306ZM258.348 46.21C257.284 46.21 256.651 45.9711 256.285 45.6552L254.978 47.1688C255.844 47.9169 257.023 48.21 258.348 48.21V46.21ZM256.291 45.6601C255.959 45.3689 255.722 44.8955 255.722 44.06H253.722C253.722 45.2965 254.091 46.3911 254.973 47.1639L256.291 45.6601ZM255.722 44.06V39.468H253.722V44.06H255.722ZM254.722 40.468H256.892V38.468H254.722V40.468ZM255.892 39.468V42.016H257.892V39.468H255.892ZM257.476 42.8275C257.582 42.751 257.758 42.664 258.036 42.5927L257.539 40.6553C257.09 40.7706 256.668 40.945 256.308 41.2045L257.476 42.8275ZM258.03 42.5941C258.311 42.5239 258.643 42.484 259.034 42.484V40.484C258.51 40.484 258.011 40.5374 257.545 40.6539L258.03 42.5941ZM259.034 42.484C259.816 42.484 260.29 42.6758 260.586 42.9358L261.905 41.4322C261.138 40.7589 260.137 40.484 259.034 40.484V42.484ZM260.586 42.9358C260.847 43.1643 261.044 43.5376 261.044 44.228H263.044C263.044 43.1264 262.709 42.1371 261.905 41.4322L260.586 42.9358ZM261.044 44.228C261.044 44.9315 260.818 45.355 260.437 45.6494L261.662 47.2305C262.607 46.4984 263.044 45.4471 263.044 44.228H261.044ZM260.432 45.6537C260.011 45.9842 259.356 46.21 258.348 46.21V48.21C259.636 48.21 260.782 47.9225 261.668 47.2263L260.432 45.6537ZM258.348 46.67C258.994 46.67 259.641 46.4914 260.133 45.9991L258.719 44.5849C258.707 44.5966 258.635 44.67 258.348 44.67V46.67ZM260.12 46.0118C260.612 45.5371 260.818 44.9172 260.818 44.27H258.818C258.818 44.4814 258.762 44.5429 258.732 44.5722L260.12 46.0118ZM260.818 44.27C260.818 43.6399 260.615 43.0296 260.119 42.5702L258.76 44.0378C258.768 44.0451 258.818 44.0787 258.818 44.27H260.818ZM260.133 42.5832C259.646 42.1145 259.011 41.954 258.39 41.954V43.954C258.536 43.954 258.627 43.9729 258.679 43.9902C258.727 44.0061 258.742 44.0207 258.747 44.0248L260.133 42.5832ZM258.39 41.954C257.932 41.954 257.486 42.037 257.073 42.229L257.915 44.043C258.024 43.9923 258.175 43.954 258.39 43.954V41.954ZM257.073 42.229C256.652 42.4242 256.296 42.7207 256.044 43.124L257.74 44.184C257.768 44.1393 257.813 44.0904 257.915 44.043L257.073 42.229ZM255.892 43.654V44.27H257.892V43.654H255.892ZM255.892 44.27C255.892 44.9089 256.082 45.5321 256.563 46.0131L257.977 44.5989C257.954 44.5759 257.892 44.5085 257.892 44.27H255.892ZM256.589 46.0388C257.083 46.4976 257.712 46.67 258.348 46.67V44.67C258.069 44.67 257.979 44.5997 257.95 44.5732L256.589 46.0388ZM264.794 43.598H263.794V44.598H264.794V43.598ZM265.116 42.394L264.299 41.8173L264.293 41.8254L264.288 41.8337L265.116 42.394ZM266.082 41.344L265.409 40.6041L265.408 40.6048L266.082 41.344ZM266.754 40.644L265.958 40.0379L265.954 40.044L266.754 40.644ZM266.558 39.174L265.953 39.9707L265.969 39.9823L265.984 39.9932L266.558 39.174ZM264.29 39.146L264.757 40.0304L264.765 40.0257L264.29 39.146ZM263.436 39.902L262.93 40.7645L263.718 41.2271L264.25 40.4832L263.436 39.902ZM261.742 38.908L260.906 38.3593L260.329 39.2384L261.236 39.7705L261.742 38.908ZM263.324 37.522L262.887 36.6226L262.882 36.6251L263.324 37.522ZM268.28 37.718L267.701 38.5333L267.706 38.5372L268.28 37.718ZM269.064 40.63L268.152 40.2184L268.147 40.2308L268.142 40.2433L269.064 40.63ZM268.602 41.372L267.862 40.6993L267.86 40.7011L268.602 41.372ZM267.902 42.058L268.567 42.8043L268.572 42.8001L267.902 42.058ZM267.146 42.842L267.937 43.4534L267.944 43.445L267.95 43.4364L267.146 42.842ZM266.908 43.598V44.598H267.908V43.598H266.908ZM264.892 46.748L264.185 47.4551L264.198 47.4682L264.211 47.4808L264.892 46.748ZM264.892 44.956L265.571 45.6898L265.578 45.6831L265.586 45.6763L264.892 44.956ZM266.824 44.956L266.13 45.6763L266.137 45.6831L266.144 45.6898L266.824 44.956ZM266.81 46.748L267.504 47.4683L267.504 47.4678L266.81 46.748ZM265.794 43.598C265.794 43.2592 265.868 43.067 265.944 42.9543L264.288 41.8337C263.934 42.3556 263.794 42.9662 263.794 43.598H265.794ZM265.933 42.9707C266.101 42.7329 266.367 42.4373 266.755 42.0832L265.408 40.6048C264.957 41.016 264.579 41.4204 264.299 41.8173L265.933 42.9707ZM266.755 42.0839C267.079 41.7889 267.357 41.5059 267.554 41.244L265.954 40.044C265.87 40.1555 265.701 40.3391 265.409 40.6041L266.755 42.0839ZM267.549 41.25C267.829 40.8828 267.978 40.4512 267.978 39.986H265.978C265.978 40.0029 265.976 40.0092 265.975 40.0102C265.975 40.0115 265.972 40.0203 265.958 40.038L267.549 41.25ZM267.978 39.986C267.978 39.3184 267.682 38.7402 267.131 38.3548L265.984 39.9932C265.998 40.0026 266.001 40.0067 265.998 40.004C265.997 40.0027 265.995 40.0001 265.992 39.9964C265.99 39.9926 265.987 39.9882 265.985 39.9834C265.982 39.9786 265.98 39.9741 265.979 39.9701C265.977 39.9662 265.977 39.9636 265.976 39.9626C265.976 39.9605 265.978 39.9674 265.978 39.986H267.978ZM267.162 38.3773C266.666 38.001 266.067 37.866 265.466 37.866V39.866C265.78 39.866 265.908 39.9363 265.953 39.9707L267.162 38.3773ZM265.466 37.866C264.881 37.866 264.322 37.9918 263.814 38.2663L264.765 40.0257C264.948 39.9269 265.173 39.866 265.466 39.866V37.866ZM263.823 38.2616C263.342 38.5157 262.941 38.8748 262.622 39.3208L264.25 40.4832C264.398 40.2759 264.566 40.1309 264.757 40.0304L263.823 38.2616ZM263.942 39.0395L262.248 38.0455L261.236 39.7705L262.93 40.7645L263.942 39.0395ZM262.578 39.4567C262.869 39.0137 263.258 38.6695 263.766 38.4189L262.882 36.6251C262.065 37.0278 261.399 37.6076 260.906 38.3593L262.578 39.4567ZM263.761 38.4214C264.27 38.1741 264.907 38.032 265.704 38.032V36.032C264.671 36.032 263.722 36.2166 262.887 36.6226L263.761 38.4214ZM265.704 38.032C266.643 38.032 267.277 38.2324 267.701 38.5333L268.859 36.9027C267.995 36.2889 266.912 36.032 265.704 36.032V38.032ZM267.706 38.5372C268.087 38.8034 268.26 39.1292 268.26 39.622H270.26C270.26 38.4908 269.78 37.5473 268.853 36.8988L267.706 38.5372ZM268.26 39.622C268.26 39.8914 268.214 40.0822 268.152 40.2184L269.975 41.0416C270.175 40.5991 270.26 40.118 270.26 39.622H268.26ZM268.142 40.2433C268.059 40.4412 267.963 40.5885 267.862 40.6993L269.342 42.0447C269.614 41.7449 269.826 41.3975 269.986 41.0167L268.142 40.2433ZM267.86 40.7011C267.713 40.8635 267.506 41.0676 267.232 41.3159L268.572 42.8001C268.876 42.5257 269.136 42.2725 269.343 42.0429L267.86 40.7011ZM267.236 41.3117C266.871 41.6374 266.56 41.9518 266.342 42.2476L267.95 43.4364C268.049 43.3029 268.242 43.0946 268.567 42.8043L267.236 41.3117ZM266.355 42.2306C266.041 42.6368 265.908 43.113 265.908 43.598H267.908C267.908 43.4857 267.934 43.4579 267.937 43.4534L266.355 42.2306ZM266.908 42.598H264.794V44.598H266.908V42.598ZM265.858 46.112C265.707 46.112 265.634 46.0729 265.572 46.0152L264.211 47.4808C264.672 47.9085 265.243 48.112 265.858 48.112V46.112ZM265.599 46.0409C265.533 45.9754 265.514 45.926 265.514 45.838H263.514C263.514 46.4593 263.746 47.0166 264.185 47.4551L265.599 46.0409ZM265.514 45.838C265.514 45.7813 265.523 45.755 265.527 45.7454C265.531 45.7365 265.54 45.7183 265.571 45.6898L264.212 44.2222C263.749 44.6517 263.514 45.2151 263.514 45.838H265.514ZM265.586 45.6763C265.628 45.6353 265.691 45.592 265.858 45.592V43.592C265.241 43.592 264.66 43.7914 264.198 44.2357L265.586 45.6763ZM265.858 45.592C266.025 45.592 266.088 45.6353 266.13 45.6763L267.517 44.2357C267.056 43.7914 266.475 43.592 265.858 43.592V45.592ZM266.144 45.6898C266.175 45.7183 266.184 45.7365 266.188 45.7454C266.192 45.755 266.202 45.7813 266.202 45.838H268.202C268.202 45.2151 267.967 44.6517 267.503 44.2222L266.144 45.6898ZM266.202 45.838C266.202 45.914 266.187 45.9596 266.116 46.0282L267.504 47.4678C267.956 47.0324 268.202 46.4713 268.202 45.838H266.202ZM266.116 46.0277C266.069 46.0733 266.008 46.112 265.858 46.112V48.112C266.473 48.112 267.047 47.908 267.504 47.4683L266.116 46.0277Z" fill="#E6F7FF"/>
</svg>
