<svg width="316" height="590" viewBox="0 0 316 590" fill="none" xmlns="http://www.w3.org/2000/svg">
<path opacity="0.07" d="M-445.315 385.332L-445.314 385.332C-434.754 379.581 -423.832 374.248 -412.892 368.906L-412.656 368.791C-401.641 363.412 -390.609 358.021 -379.933 352.191C-358.582 340.531 -338.618 327.098 -322.975 308.436C-291.018 270.46 -283.532 214.985 -299.411 167.999C-306.713 146.394 -318.607 126.676 -333.448 109.446C-336.435 105.962 -340.574 102.459 -345.188 98.9322C-348.229 96.6073 -351.494 94.259 -354.784 91.8924C-356.484 90.6699 -358.19 89.4426 -359.876 88.2111C-364.835 84.5882 -369.629 80.9207 -373.622 77.1911C-377.619 73.4577 -380.781 69.6905 -382.51 65.8768L-382.511 65.8736C-387.095 55.9483 -386.192 47.9824 -381.902 41.7284C-377.586 35.4357 -369.788 30.7949 -360.424 27.6904C-341.696 21.4808 -317.024 21.5195 -302.565 26.4456C-263.656 39.958 -236.824 75.7462 -218.247 112.848L-218.246 112.849C-212.064 125.118 -206.499 137.716 -200.932 150.317C-198.113 156.699 -195.293 163.081 -192.393 169.421C-183.775 188.264 -174.459 206.705 -162.369 223.524L-162.368 223.525C-119.649 282.59 -43.0001 315.073 29.0709 304.274C45.3374 301.843 61.1506 297.412 76.8497 292.494C81.9446 290.899 87.0248 289.252 92.1047 287.606C102.691 284.176 113.275 280.746 123.986 277.774L123.987 277.773C155.525 268.939 189.804 264.155 220.617 275.173C251.242 286.304 276.828 317.033 272.531 349.351C268.867 376.606 248.504 393.965 224.912 410.251C220.723 413.142 216.429 416.002 212.112 418.877C204.304 424.078 196.421 429.328 188.95 434.906C177.337 443.575 166.658 453.077 158.672 464.518L159.082 464.804L158.672 464.519C141.718 488.845 138.506 519.679 135.338 550.088C135.122 552.161 134.906 554.233 134.686 556.3C131.234 588.756 126.765 620.187 104.792 642.602C86.9897 660.683 62.6944 667.288 37.2281 666.277C11.7582 665.267 -14.8408 656.638 -37.1652 644.306C-52.4149 635.882 -66.9927 626.069 -81.5646 616.259C-88.3589 611.685 -95.1519 607.112 -102.011 602.682C-123.559 588.763 -145.722 576.275 -170.475 569.724C-214.325 558.138 -260.642 566.845 -305.004 576.006L-305.93 576.197C-350.039 585.308 -395.399 594.676 -439.138 584.896L-439.14 584.895C-483.219 575.2 -524.914 540.098 -527.152 495.241C-528.319 471.174 -518.5 449.46 -503.055 430.868C-487.607 412.274 -466.551 396.831 -445.315 385.332Z" fill="#69C0FF" stroke="#E6F7FF"/>
</svg>
