<svg width="193" height="538" viewBox="0 0 193 538" fill="none" xmlns="http://www.w3.org/2000/svg">
  <path opacity="0.07" d="M258.194 107.844C251.422 141.652 227.632 172.435 195.222 184.18C163.433 195.769 128.463 188.786 94.6575 187.941C60.9296 187.019 22.0695 195.891 6.59492 225.971C-7.79103 254.031 5.25383 289.931 28.5616 311.217C51.7917 332.582 82.7967 342.753 112.791 352.691C142.786 362.629 173.713 373.499 196.088 395.719C221.338 420.813 232.129 456.636 250.538 487.172C268.947 517.708 302.899 545.286 337.252 535.795C379.688 523.969 392.141 465.679 431.936 447.015C466.991 430.606 517.345 447.688 540.979 417.061C554.974 398.871 550.164 371.206 535.481 353.725C520.643 336.244 498.187 327.158 476.04 321.492C453.815 315.748 430.812 312.802 409.521 304.415C362.354 285.856 327.475 239.627 322.283 189.192C319.417 160.516 325.488 131.76 327.129 102.927C328.847 74.0164 325.127 42.9317 306.249 21.0998C292.11 4.93952 246.419 -13.5424 243.612 17.2335C242.443 29.1242 255.726 48.3156 258.053 60.7493C261.002 76.2913 261.308 92.3004 258.194 107.844Z" fill="#69C0FF"/>
</svg>
