<svg width="125" height="215" viewBox="0 0 125 215" fill="none" xmlns="http://www.w3.org/2000/svg">
  <path opacity="0.3" d="M5.64207 191.577C34.4719 204.457 65.2642 219.505 96.2552 213.313C109.568 210.619 123.677 201.669 124.534 188.043C125.09 178.72 119.168 170.186 111.91 164.267C104.67 158.417 96.0669 154.533 88.3937 149.235C71.7382 137.826 59.7378 119.635 55.8706 99.7753C52.993 84.9651 54.4361 69.7253 53.6667 54.6415C52.8973 39.5577 49.285 23.6338 38.4726 13.1341C25.3899 0.403117 4.99785 -1.341 -12.8889 1.92274C-30.8434 5.20465 -47.7372 12.7165 -65.71 15.9305C-80.0141 18.4527 -94.6888 18.2346 -108.993 20.7568C-123.279 23.347 -137.831 29.2849 -146.198 41.2104C-154.881 53.5846 -155.231 69.9152 -154.037 84.9578C-151.293 118.807 -137.234 169.647 -97.5261 176.991C-85.1333 179.277 -71.6368 175.369 -59.148 175.299C-36.3698 175.094 -14.9783 182.467 5.64207 191.577Z" fill="#FFF0E1"/>
</svg>
