<svg width="247" height="645" viewBox="0 0 247 645" fill="none" xmlns="http://www.w3.org/2000/svg">
<path opacity="0.07" d="M228.115 146.159C243.946 193.001 236.472 248.289 204.642 286.114C173.473 323.301 125.036 339.702 82.4469 362.892C39.8984 385.931 -2.00159 424.812 0.34854 473.265C2.60162 518.428 44.5436 553.66 88.7529 563.384C132.921 573.26 178.72 563.66 223.097 554.496C267.474 545.331 313.677 536.656 357.397 548.207C406.748 561.268 445.836 598.02 490.593 622.743C535.35 647.467 597.291 657.372 633.149 620.952C677.371 575.838 651.041 494.518 687.082 442.804C718.851 397.291 793.635 382.4 801.027 327.417C805.364 294.793 779.555 263.884 748.786 252.702C717.823 241.631 683.419 246.449 651.852 255.292C620.132 264.094 589.452 276.929 556.997 281.779C485.112 292.55 408.647 260.147 366.037 201.232C341.915 167.675 328.836 127.609 310.2 90.6241C291.605 53.4874 264.696 17.5504 225.597 3.97274C196.45 -5.95898 126.455 3.84912 145.035 44.0832C152.109 59.689 182.366 73.9988 194.172 87.7715C208.977 104.959 220.836 124.622 228.115 146.159Z" fill="#69C0FF"/>
</svg>
