<svg width="222" height="645" viewBox="0 0 222 645" fill="none" xmlns="http://www.w3.org/2000/svg">
<path opacity="0.07" d="M-351.885 146.159C-336.054 193.001 -343.528 248.289 -375.358 286.114C-406.527 323.301 -454.964 339.702 -497.553 362.892C-540.102 385.931 -582.002 424.812 -579.651 473.265C-577.398 518.428 -535.456 553.66 -491.247 563.384C-447.079 573.26 -401.28 563.66 -356.903 554.496C-312.526 545.331 -266.323 536.656 -222.603 548.207C-173.252 561.268 -134.164 598.02 -89.407 622.743C-44.6496 647.467 17.2912 657.372 53.1488 620.952C97.3714 575.838 71.0412 494.518 107.082 442.804C138.851 397.291 213.635 382.4 221.027 327.417C225.364 294.793 199.555 263.884 168.786 252.702C137.823 241.631 103.419 246.449 71.8518 255.292C40.1321 264.094 9.45235 276.929 -23.003 281.779C-94.888 292.55 -171.353 260.147 -213.963 201.232C-238.085 167.675 -251.164 127.609 -269.8 90.6241C-288.395 53.4874 -315.304 17.5504 -354.403 3.97274C-383.55 -5.95898 -453.545 3.84912 -434.965 44.0832C-427.891 59.689 -397.634 73.9988 -385.828 87.7715C-371.023 104.959 -359.164 124.622 -351.885 146.159Z" fill="#69C0FF"/>
</svg>
