<svg width="1920" height="723" viewBox="0 0 1920 723" fill="none" xmlns="http://www.w3.org/2000/svg">
<g clip-path="url(#clip0)">
<path d="M-0.000244141 0H1920V650H960H-0.000244141V0Z" fill="#40A9FF"/>
<ellipse cx="961" cy="542" rx="1204" ry="181" fill="#40A9FF"/>
<mask id="mask0" mask-type="alpha" maskUnits="userSpaceOnUse" x="-291" y="297" width="2456" height="426">
<path d="M2165 542C2165 641.964 1625.95 723 961 723C296.049 723 -243 641.964 -243 542C-243 442.036 -497.451 297.5 167.5 297.5C832.451 297.5 2165 442.036 2165 542Z" fill="#40A9FF"/>
</mask>
<g mask="url(#mask0)">
<path opacity="0.03" d="M-30.885 485.159C-15.0538 532.001 -22.5278 587.289 -54.3578 625.114C-85.5272 662.301 -133.964 678.702 -176.553 701.892C-219.102 724.931 -261.002 763.812 -258.651 812.265C-256.398 857.428 -214.456 892.66 -170.247 902.384C-126.079 912.26 -80.28 902.66 -35.903 893.496C8.474 884.331 54.6773 875.656 98.397 887.207C147.748 900.268 186.836 937.02 231.593 961.743C276.35 986.467 338.291 996.372 374.149 959.952C418.371 914.838 392.041 833.518 428.082 781.804C459.851 736.291 534.635 721.4 542.027 666.417C546.364 633.793 520.555 602.884 489.786 591.702C458.823 580.631 424.419 585.449 392.852 594.292C361.132 603.094 330.452 615.929 297.997 620.779C226.112 631.55 149.647 599.147 107.037 540.232C82.9154 506.675 69.8358 466.609 51.2001 429.624C32.6052 392.487 5.69604 356.55 -33.4028 342.973C-62.5496 333.041 -132.545 342.849 -113.965 383.083C-106.891 398.689 -76.6339 412.999 -64.8281 426.771C-50.0225 443.959 -38.1637 463.622 -30.885 485.159Z" fill="url(#paint0_linear)"/>
</g>
<path opacity="0.08" d="M-175 147.482L-175.654 145.55C-116.103 126.295 -50.6595 126.847 8.65737 146.987C20.8686 151.137 33.0468 156.23 44.8518 161.077C66.7226 170.159 89.2397 179.56 112.861 183.473C145.805 188.933 181.163 182.375 212.43 165.131C243.697 147.888 268.002 121.384 280.938 90.5908C286.744 76.8465 290.56 62.0569 294.23 47.8136C298.742 30.4285 303.437 12.3603 311.687 -3.94991C335.785 -51.8111 391.818 -81.1594 444.851 -73.9038L444.612 -71.9181C392.385 -79.1773 337.232 -50.1058 313.49 -3.02766C305.363 13.096 300.705 31.0275 296.229 48.276C292.523 62.6559 288.62 77.4956 282.864 91.3264C269.818 122.53 245.08 149.283 213.43 166.863C181.73 184.357 145.925 190.942 112.622 185.459C88.7773 181.559 66.1235 172.121 44.1162 163.003C32.3978 158.106 20.2695 153.1 8.05833 148.949C-50.8987 128.833 -115.846 128.34 -175 147.482Z" fill="url(#paint1_linear)"/>
</g>
<defs>
<linearGradient id="paint0_linear" x1="-214.681" y1="566.866" x2="439.811" y2="884.335" gradientUnits="userSpaceOnUse">
<stop stop-color="#182B6B"/>
<stop offset="1"/>
</linearGradient>
<linearGradient id="paint1_linear" x1="104.37" y1="-16.1222" x2="210.867" y2="168.336" gradientUnits="userSpaceOnUse">
<stop stop-color="#182B6B"/>
<stop offset="1"/>
</linearGradient>
<clipPath id="clip0">
<rect width="1920" height="723" fill="white" transform="translate(-0.000244141)"/>
</clipPath>
</defs>
</svg>
