<svg width="225" height="604" viewBox="0 0 225 604" fill="none" xmlns="http://www.w3.org/2000/svg">
  <path opacity="0.07" d="M265.313 126.596C259.014 158.047 236.882 186.683 206.73 197.61C177.157 208.391 144.626 201.895 113.177 201.109C81.7999 200.251 45.6486 208.504 31.2528 236.488C17.8696 262.592 30.0052 295.989 51.6882 315.792C73.2989 335.667 102.143 345.129 130.046 354.374C157.95 363.62 186.722 373.732 207.537 394.403C231.026 417.747 241.065 451.073 258.191 479.481C275.316 507.888 306.902 533.544 338.86 524.714C378.338 513.712 389.923 459.486 426.944 442.123C459.555 426.858 506.399 442.749 528.386 414.257C541.405 397.335 536.93 371.599 523.271 355.336C509.467 339.074 488.576 330.621 467.973 325.35C447.298 320.006 425.899 317.266 406.092 309.464C362.212 292.198 329.764 249.192 324.935 202.272C322.268 175.595 327.916 148.844 329.442 122.021C331.041 95.1258 327.58 66.2079 310.018 45.8978C296.865 30.8641 254.359 13.6706 251.748 42.3011C250.66 53.3629 263.017 71.2165 265.182 82.7834C267.925 97.242 268.21 112.135 265.313 126.596Z" fill="#FF7875"/>
</svg>
