<svg width="484" height="767" viewBox="0 0 484 767" fill="none" xmlns="http://www.w3.org/2000/svg">
  <path opacity="0.07" d="M-38.0188 195.147C-47.7297 243.629 -81.846 287.773 -128.324 304.616C-173.911 321.235 -224.059 311.221 -272.538 310.01C-320.905 308.688 -376.632 321.41 -398.824 364.547C-419.454 404.785 -400.747 456.268 -367.322 486.794C-334.009 517.431 -289.547 532.017 -246.533 546.268C-203.519 560.52 -159.168 576.109 -127.081 607.973C-90.8726 643.958 -75.3976 695.33 -48.9984 739.121C-22.5993 782.911 26.0905 822.459 75.3541 808.847C136.209 791.889 154.067 708.298 211.135 681.533C261.405 658.003 333.615 682.498 367.508 638.578C387.577 612.493 380.679 572.82 359.624 547.751C338.345 522.683 306.141 509.653 274.382 501.528C242.511 493.291 209.524 489.066 178.991 477.039C111.351 450.425 61.3326 384.129 53.8882 311.803C49.7775 270.681 58.4832 229.443 60.8364 188.095C63.3011 146.637 57.9656 102.06 30.8939 70.7516C10.6178 47.5771 -54.9044 21.0732 -58.9302 65.2073C-60.6072 82.2591 -41.5585 109.78 -38.2206 127.611C-33.9926 149.899 -33.554 172.857 -38.0188 195.147Z" fill="#FF7875"/>
</svg>
